<?xml version="1.0" encoding="UTF-8" standalone="no"?>
<!-- Created with Inkscape (http://www.inkscape.org/) -->

<svg
   xmlns:dc="http://purl.org/dc/elements/1.1/"
   xmlns:cc="http://creativecommons.org/ns#"
   xmlns:rdf="http://www.w3.org/1999/02/22-rdf-syntax-ns#"
   xmlns:svg="http://www.w3.org/2000/svg"
   xmlns="http://www.w3.org/2000/svg"
   xmlns:sodipodi="http://sodipodi.sourceforge.net/DTD/sodipodi-0.dtd"
   xmlns:inkscape="http://www.inkscape.org/namespaces/inkscape"
   width="16px"
   height="16px"
   viewBox="0 0 16 16"
   version="1.1"
   id="SVGRoot"
   inkscape:version="0.92.1 r15371"
   sodipodi:docname="10.svg">
  <sodipodi:namedview
     id="base"
     pagecolor="#ffffff"
     bordercolor="#666666"
     borderopacity="1.0"
     inkscape:pageopacity="0.0"
     inkscape:pageshadow="2"
     inkscape:zoom="16"
     inkscape:cx="8"
     inkscape:cy="8"
     inkscape:document-units="px"
     inkscape:current-layer="layer1"
     showgrid="false"
     inkscape:window-width="681"
     inkscape:window-height="696"
     inkscape:window-x="676"
     inkscape:window-y="0"
     inkscape:window-maximized="0"
     inkscape:grid-bbox="true" />
  <defs
     id="defs20207" />
  <metadata
     id="metadata20210">
    <rdf:RDF>
      <cc:Work
         rdf:about="">
        <dc:format>image/svg+xml</dc:format>
        <dc:type
           rdf:resource="http://purl.org/dc/dcmitype/StillImage" />
        <dc:title></dc:title>
      </cc:Work>
    </rdf:RDF>
  </metadata>
  <g
     id="layer1"
     inkscape:groupmode="layer"
     inkscape:label="Layer 1">
    <g
       id="g32198"
       transform="matrix(1.3333333,0,0,-1.3333333,7.9986667,13.742167)">
      <path
         d="M 0,0 C 2.379,0 4.309,1.928 4.309,4.307 4.309,6.686 2.379,8.615 0,8.615 -2.379,8.615 -4.307,6.686 -4.307,4.307 -4.307,1.928 -2.379,0 0,0"
         style="fill:#ffffff;fill-opacity:1;fill-rule:nonzero;stroke:none"
         id="path32200"
         inkscape:connector-curvature="0" />
    </g>
    <g
       id="g32202"
       transform="matrix(1.3333333,0,0,-1.3333333,7.9986667,14.244667)">
      <path
         d="M 0,0 C 2.588,0 4.684,2.1 4.684,4.684 4.684,7.271 2.588,9.367 0,9.367 -2.586,9.367 -4.682,7.271 -4.682,4.684 -4.682,2.1 -2.586,0 0,0"
         style="fill:#231f20;fill-opacity:1;fill-rule:nonzero;stroke:none"
         id="path32204"
         inkscape:connector-curvature="0" />
    </g>
    <g
       id="g32206"
       transform="matrix(1.3333333,0,0,-1.3333333,5.1262667,4.9634665)">
      <path
         d="m 0,0 h 0.832 v -4.678 h -0.938 v 3.612 l -0.79,-0.643 -0.47,0.609 z"
         style="fill:#ffffff;fill-opacity:1;fill-rule:nonzero;stroke:none"
         id="path32208"
         inkscape:connector-curvature="0" />
    </g>
    <g
       id="g32210"
       transform="matrix(1.3333333,0,0,-1.3333333,10.925727,8.0989665)">
      <path
         d="m 0,0 c 0,0.602 0,1.734 -0.697,1.734 -0.684,0 -0.684,-1.132 -0.684,-1.734 0,-0.59 -0.007,-1.709 0.684,-1.709 C 0.006,-1.709 0,-0.59 0,0 m -2.318,0 c 0,1.172 0.354,2.432 1.621,2.432 1.367,0 1.634,-1.348 1.634,-2.432 0,-1.086 -0.281,-2.406 -1.634,-2.406 -1.442,0 -1.621,1.427 -1.621,2.406"
         style="fill:#ffffff;fill-opacity:1;fill-rule:nonzero;stroke:none"
         id="path32212"
         inkscape:connector-curvature="0" />
    </g>
  </g>
</svg>
