<?xml version="1.0" encoding="UTF-8" standalone="no"?>
<!-- Created with Inkscape (http://www.inkscape.org/) -->

<svg
   xmlns:dc="http://purl.org/dc/elements/1.1/"
   xmlns:cc="http://creativecommons.org/ns#"
   xmlns:rdf="http://www.w3.org/1999/02/22-rdf-syntax-ns#"
   xmlns:svg="http://www.w3.org/2000/svg"
   xmlns="http://www.w3.org/2000/svg"
   xmlns:sodipodi="http://sodipodi.sourceforge.net/DTD/sodipodi-0.dtd"
   xmlns:inkscape="http://www.inkscape.org/namespaces/inkscape"
   width="16px"
   height="16px"
   viewBox="0 0 16 16"
   version="1.1"
   id="SVGRoot"
   inkscape:version="0.92.1 r15371"
   sodipodi:docname="3.svg">
  <sodipodi:namedview
     id="base"
     pagecolor="#ffffff"
     bordercolor="#666666"
     borderopacity="1.0"
     inkscape:pageopacity="0.0"
     inkscape:pageshadow="2"
     inkscape:zoom="16"
     inkscape:cx="8"
     inkscape:cy="8"
     inkscape:document-units="px"
     inkscape:current-layer="layer1"
     showgrid="false"
     inkscape:window-width="681"
     inkscape:window-height="696"
     inkscape:window-x="676"
     inkscape:window-y="0"
     inkscape:window-maximized="0"
     inkscape:grid-bbox="true" />
  <defs
     id="defs20207" />
  <metadata
     id="metadata20210">
    <rdf:RDF>
      <cc:Work
         rdf:about="">
        <dc:format>image/svg+xml</dc:format>
        <dc:type
           rdf:resource="http://purl.org/dc/dcmitype/StillImage" />
        <dc:title></dc:title>
      </cc:Work>
    </rdf:RDF>
  </metadata>
  <g
     id="layer1"
     inkscape:groupmode="layer"
     inkscape:label="Layer 1">
    <g
       id="g32114"
       transform="matrix(1.3333333,0,0,-1.3333333,7.9986667,13.742)">
      <path
         d="M 0,0 C 2.379,0 4.309,1.93 4.309,4.309 4.309,6.687 2.379,8.613 0,8.613 -2.377,8.613 -4.307,6.687 -4.307,4.309 -4.307,1.93 -2.377,0 0,0"
         style="fill:#ffffff;fill-opacity:1;fill-rule:nonzero;stroke:none"
         id="path32116"
         inkscape:connector-curvature="0" />
    </g>
    <g
       id="g32118"
       transform="matrix(1.3333333,0,0,-1.3333333,7.9986667,14.242)">
      <path
         d="M 0,0 C 2.586,0 4.684,2.096 4.684,4.684 4.684,7.268 2.586,9.363 0,9.363 -2.586,9.363 -4.682,7.268 -4.682,4.684 -4.682,2.096 -2.586,0 0,0"
         style="fill:#231f20;fill-opacity:1;fill-rule:nonzero;stroke:none"
         id="path32120"
         inkscape:connector-curvature="0" />
    </g>
    <g
       id="g32122"
       transform="matrix(1.3333333,0,0,-1.3333333,6.0625367,10.0024)">
      <path
         d="m 0,0 c 0.331,-0.133 0.69,-0.223 1.069,-0.223 0.401,0 1.015,0.194 1.015,0.684 0,0.566 -0.448,0.752 -1.062,0.752 h -0.47 v 0.76 h 0.441 c 0.65,0 1.071,0.212 1.071,0.634 0,0.483 -0.394,0.635 -0.829,0.635 -0.379,0 -0.745,-0.09 -1.084,-0.256 L 0.097,3.76 c 0.386,0.152 0.848,0.242 1.345,0.242 0.594,0 1.587,-0.207 1.587,-1.236 0,-0.655 -0.407,-0.965 -0.897,-1.153 V 1.6 C 2.747,1.518 3.05,1.041 3.05,0.455 3.05,-0.691 2.009,-0.98 1.208,-0.98 c -0.422,0 -0.904,0.054 -1.264,0.158 z"
         style="fill:#ffffff;fill-opacity:1;fill-rule:nonzero;stroke:none"
         id="path32124"
         inkscape:connector-curvature="0" />
    </g>
  </g>
</svg>
