<?xml version="1.0" encoding="UTF-8" standalone="no"?>
<!-- Created with Inkscape (http://www.inkscape.org/) -->

<svg
   xmlns:dc="http://purl.org/dc/elements/1.1/"
   xmlns:cc="http://creativecommons.org/ns#"
   xmlns:rdf="http://www.w3.org/1999/02/22-rdf-syntax-ns#"
   xmlns:svg="http://www.w3.org/2000/svg"
   xmlns="http://www.w3.org/2000/svg"
   xmlns:sodipodi="http://sodipodi.sourceforge.net/DTD/sodipodi-0.dtd"
   xmlns:inkscape="http://www.inkscape.org/namespaces/inkscape"
   width="16px"
   height="16px"
   viewBox="0 0 16 16"
   version="1.1"
   id="SVGRoot"
   inkscape:version="0.92.1 r15371"
   sodipodi:docname="5.svg">
  <sodipodi:namedview
     id="base"
     pagecolor="#ffffff"
     bordercolor="#666666"
     borderopacity="1.0"
     inkscape:pageopacity="0.0"
     inkscape:pageshadow="2"
     inkscape:zoom="16"
     inkscape:cx="8"
     inkscape:cy="8"
     inkscape:document-units="px"
     inkscape:current-layer="layer1"
     showgrid="false"
     inkscape:window-width="681"
     inkscape:window-height="696"
     inkscape:window-x="676"
     inkscape:window-y="0"
     inkscape:window-maximized="0"
     inkscape:grid-bbox="true" />
  <defs
     id="defs20207" />
  <metadata
     id="metadata20210">
    <rdf:RDF>
      <cc:Work
         rdf:about="">
        <dc:format>image/svg+xml</dc:format>
        <dc:type
           rdf:resource="http://purl.org/dc/dcmitype/StillImage" />
        <dc:title></dc:title>
      </cc:Work>
    </rdf:RDF>
  </metadata>
  <g
     id="layer1"
     inkscape:groupmode="layer"
     inkscape:label="Layer 1">
    <g
       id="g32138"
       transform="matrix(1.3333333,0,0,-1.3333333,8,13.740733)">
      <path
         d="M 0,0 C 2.379,0 4.308,1.928 4.308,4.305 4.308,6.685 2.379,8.613 0,8.613 -2.379,8.613 -4.308,6.685 -4.308,4.305 -4.308,1.928 -2.379,0 0,0"
         style="fill:#ffffff;fill-opacity:1;fill-rule:nonzero;stroke:none"
         id="path32140"
         inkscape:connector-curvature="0" />
    </g>
    <g
       id="g32142"
       transform="matrix(1.3333333,0,0,-1.3333333,8,14.243333)">
      <path
         d="M 0,0 C 2.587,0 4.683,2.098 4.683,4.682 4.683,7.27 2.587,9.365 0,9.365 -2.585,9.365 -4.683,7.27 -4.683,4.682 -4.683,2.098 -2.585,0 0,0"
         style="fill:#231f20;fill-opacity:1;fill-rule:nonzero;stroke:none"
         id="path32144"
         inkscape:connector-curvature="0" />
    </g>
    <g
       id="g32146"
       transform="matrix(1.3333333,0,0,-1.3333333,10.08467,5.7355336)">
      <path
         d="m 0,0 h -1.858 l -0.019,-1.029 c 0.109,0.021 0.255,0.049 0.441,0.049 0.676,0 1.553,-0.317 1.553,-1.567 0,-0.904 -0.635,-1.635 -1.877,-1.635 -0.373,0 -0.807,0.063 -1.125,0.139 l 0.021,0.861 c 0.235,-0.095 0.565,-0.242 0.987,-0.242 0.504,0 1.027,0.236 1.027,0.85 0,0.621 -0.551,0.834 -1.103,0.834 -0.297,0 -0.58,-0.041 -0.863,-0.131 l 0.048,2.588 H 0 Z"
         style="fill:#ffffff;fill-opacity:1;fill-rule:nonzero;stroke:none"
         id="path32148"
         inkscape:connector-curvature="0" />
    </g>
  </g>
</svg>
