<?xml version="1.0" encoding="UTF-8" standalone="no"?>
<!-- Created with Inkscape (http://www.inkscape.org/) -->

<svg
   xmlns:dc="http://purl.org/dc/elements/1.1/"
   xmlns:cc="http://creativecommons.org/ns#"
   xmlns:rdf="http://www.w3.org/1999/02/22-rdf-syntax-ns#"
   xmlns:svg="http://www.w3.org/2000/svg"
   xmlns="http://www.w3.org/2000/svg"
   xmlns:sodipodi="http://sodipodi.sourceforge.net/DTD/sodipodi-0.dtd"
   xmlns:inkscape="http://www.inkscape.org/namespaces/inkscape"
   width="16px"
   height="16px"
   viewBox="0 0 16 16"
   version="1.1"
   id="SVGRoot"
   inkscape:version="0.92.1 r15371"
   sodipodi:docname="6.svg">
  <sodipodi:namedview
     id="base"
     pagecolor="#ffffff"
     bordercolor="#666666"
     borderopacity="1.0"
     inkscape:pageopacity="0.0"
     inkscape:pageshadow="2"
     inkscape:zoom="16"
     inkscape:cx="8"
     inkscape:cy="8"
     inkscape:document-units="px"
     inkscape:current-layer="layer1"
     showgrid="false"
     inkscape:window-width="681"
     inkscape:window-height="696"
     inkscape:window-x="676"
     inkscape:window-y="0"
     inkscape:window-maximized="0"
     inkscape:grid-bbox="true" />
  <defs
     id="defs20207" />
  <metadata
     id="metadata20210">
    <rdf:RDF>
      <cc:Work
         rdf:about="">
        <dc:format>image/svg+xml</dc:format>
        <dc:type
           rdf:resource="http://purl.org/dc/dcmitype/StillImage" />
        <dc:title></dc:title>
      </cc:Work>
    </rdf:RDF>
  </metadata>
  <g
     id="layer1"
     inkscape:groupmode="layer"
     inkscape:label="Layer 1">
    <g
       id="g32150"
       transform="matrix(1.3333333,0,0,-1.3333333,8,13.740733)">
      <path
         d="M 0,0 C 2.379,0 4.308,1.928 4.308,4.305 4.308,6.685 2.379,8.613 0,8.613 -2.379,8.613 -4.308,6.685 -4.308,4.305 -4.308,1.928 -2.379,0 0,0"
         style="fill:#ffffff;fill-opacity:1;fill-rule:nonzero;stroke:none"
         id="path32152"
         inkscape:connector-curvature="0" />
    </g>
    <g
       id="g32154"
       transform="matrix(1.3333333,0,0,-1.3333333,8,14.243333)">
      <path
         d="M 0,0 C 2.587,0 4.683,2.098 4.683,4.682 4.683,7.27 2.587,9.365 0,9.365 -2.585,9.365 -4.683,7.27 -4.683,4.682 -4.683,2.098 -2.585,0 0,0"
         style="fill:#231f20;fill-opacity:1;fill-rule:nonzero;stroke:none"
         id="path32156"
         inkscape:connector-curvature="0" />
    </g>
    <g
       id="g32158"
       transform="matrix(1.3333333,0,0,-1.3333333,7.00134,9.2147336)">
      <path
         d="m 0,0 c 0,-0.455 0.193,-0.855 0.67,-0.855 0.448,0 0.635,0.435 0.635,0.863 0,0.469 -0.194,0.904 -0.657,0.904 C 0.18,0.912 0,0.484 0,0 M 1.904,2.457 C 1.649,2.568 1.387,2.65 1.062,2.65 0.228,2.65 -0.055,1.877 -0.082,1.16 l 0.014,-0.014 c 0.227,0.331 0.523,0.483 0.931,0.483 0.91,0 1.408,-0.58 1.408,-1.469 0,-1.043 -0.511,-1.732 -1.601,-1.732 -1.339,0 -1.636,1.111 -1.636,2.242 0,1.305 0.421,2.74 1.981,2.74 0.352,0 0.682,-0.057 1.014,-0.174 z"
         style="fill:#ffffff;fill-opacity:1;fill-rule:nonzero;stroke:none"
         id="path32160"
         inkscape:connector-curvature="0" />
    </g>
  </g>
</svg>
