<?xml version="1.0" encoding="UTF-8" standalone="no"?>
<!-- Created with Inkscape (http://www.inkscape.org/) -->

<svg
   xmlns:dc="http://purl.org/dc/elements/1.1/"
   xmlns:cc="http://creativecommons.org/ns#"
   xmlns:rdf="http://www.w3.org/1999/02/22-rdf-syntax-ns#"
   xmlns:svg="http://www.w3.org/2000/svg"
   xmlns="http://www.w3.org/2000/svg"
   xmlns:sodipodi="http://sodipodi.sourceforge.net/DTD/sodipodi-0.dtd"
   xmlns:inkscape="http://www.inkscape.org/namespaces/inkscape"
   width="16px"
   height="16px"
   viewBox="0 0 16 16"
   version="1.1"
   id="SVGRoot"
   inkscape:version="0.92.1 r15371"
   sodipodi:docname="8.svg">
  <sodipodi:namedview
     id="base"
     pagecolor="#ffffff"
     bordercolor="#666666"
     borderopacity="1.0"
     inkscape:pageopacity="0.0"
     inkscape:pageshadow="2"
     inkscape:zoom="16"
     inkscape:cx="8"
     inkscape:cy="8"
     inkscape:document-units="px"
     inkscape:current-layer="layer1"
     showgrid="false"
     inkscape:window-width="681"
     inkscape:window-height="696"
     inkscape:window-x="676"
     inkscape:window-y="0"
     inkscape:window-maximized="0"
     inkscape:grid-bbox="true" />
  <defs
     id="defs20207" />
  <metadata
     id="metadata20210">
    <rdf:RDF>
      <cc:Work
         rdf:about="">
        <dc:format>image/svg+xml</dc:format>
        <dc:type
           rdf:resource="http://purl.org/dc/dcmitype/StillImage" />
        <dc:title></dc:title>
      </cc:Work>
    </rdf:RDF>
  </metadata>
  <g
     id="layer1"
     inkscape:groupmode="layer"
     inkscape:label="Layer 1">
    <g
       id="g32174"
       transform="matrix(1.3333333,0,0,-1.3333333,8.0013333,13.740733)">
      <path
         d="M 0,0 C 2.379,0 4.307,1.928 4.307,4.305 4.307,6.685 2.379,8.613 0,8.613 -2.379,8.613 -4.309,6.685 -4.309,4.305 -4.309,1.928 -2.379,0 0,0"
         style="fill:#ffffff;fill-opacity:1;fill-rule:nonzero;stroke:none"
         id="path32176"
         inkscape:connector-curvature="0" />
    </g>
    <g
       id="g32178"
       transform="matrix(1.3333333,0,0,-1.3333333,8.0013333,14.243333)">
      <path
         d="M 0,0 C 2.586,0 4.682,2.098 4.682,4.682 4.682,7.27 2.586,9.365 0,9.365 -2.586,9.365 -4.684,7.27 -4.684,4.682 -4.684,2.098 -2.586,0 0,0"
         style="fill:#231f20;fill-opacity:1;fill-rule:nonzero;stroke:none"
         id="path32180"
         inkscape:connector-curvature="0" />
    </g>
    <g
       id="g32182"
       transform="matrix(1.3333333,0,0,-1.3333333,8.8371933,6.4360336)">
      <path
         d="m 0,0 c 0,0.359 -0.227,0.607 -0.594,0.607 -0.351,0 -0.703,-0.193 -0.703,-0.58 0,-0.414 0.428,-0.599 0.76,-0.724 C -0.27,-0.6 0,-0.297 0,0 m -1.338,-2.256 c 0,-0.4 0.346,-0.683 0.731,-0.683 0.386,0 0.691,0.242 0.691,0.642 0,0.477 -0.408,0.703 -0.809,0.834 -0.343,-0.166 -0.613,-0.387 -0.613,-0.793 m 1.463,1.278 v -0.014 c 0.635,-0.297 0.924,-0.711 0.924,-1.264 0,-0.972 -0.703,-1.4 -1.656,-1.4 -0.938,0 -1.698,0.406 -1.698,1.386 0,0.54 0.305,0.911 0.883,1.194 v 0.014 c -0.482,0.214 -0.799,0.615 -0.799,1.117 0,0.863 0.655,1.271 1.532,1.271 0.847,0 1.615,-0.353 1.615,-1.16 0,-0.436 -0.27,-0.937 -0.801,-1.152 z"
         style="fill:#ffffff;fill-opacity:1;fill-rule:nonzero;stroke:none"
         id="path32184"
         inkscape:connector-curvature="0" />
    </g>
  </g>
</svg>
