<?xml version="1.0" encoding="UTF-8" standalone="no"?>
<!-- Created with Inkscape (http://www.inkscape.org/) -->

<svg
   xmlns:dc="http://purl.org/dc/elements/1.1/"
   xmlns:cc="http://creativecommons.org/ns#"
   xmlns:rdf="http://www.w3.org/1999/02/22-rdf-syntax-ns#"
   xmlns:svg="http://www.w3.org/2000/svg"
   xmlns="http://www.w3.org/2000/svg"
   xmlns:sodipodi="http://sodipodi.sourceforge.net/DTD/sodipodi-0.dtd"
   xmlns:inkscape="http://www.inkscape.org/namespaces/inkscape"
   width="16px"
   height="16px"
   viewBox="0 0 16 16"
   version="1.1"
   id="SVGRoot"
   inkscape:version="0.92.1 r15371"
   sodipodi:docname="Archery.svg">
  <sodipodi:namedview
     id="base"
     pagecolor="#ffffff"
     bordercolor="#666666"
     borderopacity="1.0"
     inkscape:pageopacity="0.0"
     inkscape:pageshadow="2"
     inkscape:zoom="16"
     inkscape:cx="8"
     inkscape:cy="8"
     inkscape:document-units="px"
     inkscape:current-layer="layer1"
     showgrid="false"
     inkscape:window-width="681"
     inkscape:window-height="696"
     inkscape:window-x="676"
     inkscape:window-y="0"
     inkscape:window-maximized="0"
     inkscape:grid-bbox="true" />
  <defs
     id="defs20207">
    <pattern
       y="0"
       x="0"
       height="6"
       width="6"
       patternUnits="userSpaceOnUse"
       id="EMFhbasepattern" />
  </defs>
  <metadata
     id="metadata20210">
    <rdf:RDF>
      <cc:Work
         rdf:about="">
        <dc:format>image/svg+xml</dc:format>
        <dc:type
           rdf:resource="http://purl.org/dc/dcmitype/StillImage" />
        <dc:title></dc:title>
      </cc:Work>
    </rdf:RDF>
  </metadata>
  <g
     id="layer1"
     inkscape:groupmode="layer"
     inkscape:label="Layer 1">
    <g
       id="g5712"
       transform="matrix(1.3333333,0,0,-1.3333333,13.017333,14.594)">
      <path
         d="M 0,0 C 0.652,0 1.182,0.529 1.182,1.183 V 8.709 C 1.182,9.361 0.652,9.891 0,9.891 h -7.526 c -0.653,0 -1.182,-0.53 -1.182,-1.182 V 1.183 C -8.708,0.529 -8.179,0 -7.526,0 Z"
         style="fill:#231f20;fill-opacity:1;fill-rule:nonzero;stroke:none"
         id="path5714"
         inkscape:connector-curvature="0" />
    </g>
    <g
       id="g5716"
       transform="matrix(1.3333333,0,0,-1.3333333,7.2906736,4.9038695)">
      <path
         d="m 0,0 h -1.653 c -0.399,0 -0.399,-0.519 0,-0.519 H 0 C 0.396,-0.52 0.396,0 0,0"
         style="fill:#231f20;fill-opacity:1;fill-rule:nonzero;stroke:none"
         id="path5718"
         inkscape:connector-curvature="0" />
    </g>
    <g
       id="g5720"
       transform="matrix(1.3333333,0,0,-1.3333333,7.2906736,4.9038695)">
      <path
         d="m 0,0 h -1.653 c -0.399,0 -0.399,-0.519 0,-0.519 H 0 C 0.396,-0.52 0.396,0 0,0"
         style="fill:#231f20;fill-opacity:1;fill-rule:nonzero;stroke:none"
         id="path5722"
         inkscape:connector-curvature="0" />
    </g>
    <g
       id="g5724"
       transform="matrix(1.3333333,0,0,-1.3333333,2.9821336,1.6734695)">
      <path
         d="M 0,0 C -0.541,0 -0.982,-0.44 -0.982,-0.981 V -8.508 C -0.982,-9.05 -0.541,-9.49 0,-9.49 h 7.526 c 0.541,0 0.982,0.44 0.982,0.982 v 7.527 C 8.508,-0.44 8.067,0 7.526,0 Z"
         style="fill:#ffffff;fill-opacity:1;fill-rule:nonzero;stroke:none"
         id="path5726"
         inkscape:connector-curvature="0" />
    </g>
    <g
       id="g5728"
       transform="matrix(1.3333333,0,0,-1.3333333,7.0341336,4.7261395)">
      <path
         d="M 0,0 C 0.386,0 0.695,0.312 0.695,0.695 0.695,1.079 0.386,1.391 0,1.391 -0.383,1.391 -0.695,1.079 -0.695,0.695 -0.695,0.312 -0.383,0 0,0"
         style="fill:#231f20;fill-opacity:1;fill-rule:nonzero;stroke:none"
         id="path5730"
         inkscape:connector-curvature="0" />
    </g>
    <g
       id="g5732"
       transform="matrix(1.3333333,0,0,-1.3333333,7.2504036,4.9618695)">
      <path
         d="m 0,0 h -1.735 c -0.419,0 -0.419,-0.544 0,-0.544 H 0 C 0.417,-0.545 0.417,0 0,0"
         style="fill:#231f20;fill-opacity:1;fill-rule:nonzero;stroke:none"
         id="path5734"
         inkscape:connector-curvature="0" />
    </g>
    <g
       id="g5736"
       transform="matrix(1.3333333,0,0,-1.3333333,11.182674,4.9618695)">
      <path
         d="m 0,0 h -2.243 c 0.412,0.41 1.182,1.182 1.577,1.575 C -0.287,1.13 -0.056,0.581 0,0 m 0,-0.544 c -0.058,-0.577 -0.287,-1.123 -0.664,-1.568 -0.349,0.346 -0.991,0.991 -1.42,1.42 v 0.148 z m -2.865,-2.771 v 0.024 c 0,-0.004 0.002,-0.006 0.002,-0.011 z m 3.22,3.045 c 0,0.771 -0.277,1.507 -0.78,2.087 0.002,0.002 -0.127,0.14 -0.127,0.14 L -2.51,0 -2.543,-0.032 c 0.006,-0.009 0.015,-0.015 0.019,-0.025 0.03,-0.053 0.046,-0.113 0.053,-0.173 0.002,-0.024 0,-0.049 -0.003,-0.075 -0.004,-0.051 -0.013,-0.102 -0.036,-0.15 L -2.512,-0.46 C -2.517,-0.469 -2.519,-0.48 -2.524,-0.489 -2.528,-0.496 -2.532,-0.5 -2.537,-0.506 -2.623,-0.638 -2.77,-0.715 -2.949,-0.715 h -0.955 v -2.55 c 0,-0.002 0.002,-0.004 0.002,-0.006 l -0.539,-2.707 c -0.041,-0.211 0.096,-0.416 0.307,-0.457 0.211,-0.043 0.414,0.094 0.457,0.306 l 0.558,2.807 v 0.003 h 0.254 v -0.003 l 0.558,-2.807 c 0.043,-0.212 0.246,-0.349 0.459,-0.306 0.209,0.041 0.347,0.246 0.306,0.457 l -0.544,2.732 v 2.287 l 1.534,-1.534 c 0,0 0.129,0.138 0.129,0.139 0.501,0.581 0.778,1.317 0.778,2.084"
         style="fill:#231f20;fill-opacity:1;fill-rule:nonzero;stroke:none"
         id="path5738"
         inkscape:connector-curvature="0" />
    </g>
  </g>
</svg>
