<?xml version="1.0" encoding="UTF-8" standalone="no"?>
<!-- Created with Inkscape (http://www.inkscape.org/) -->

<svg
   xmlns:dc="http://purl.org/dc/elements/1.1/"
   xmlns:cc="http://creativecommons.org/ns#"
   xmlns:rdf="http://www.w3.org/1999/02/22-rdf-syntax-ns#"
   xmlns:svg="http://www.w3.org/2000/svg"
   xmlns="http://www.w3.org/2000/svg"
   xmlns:sodipodi="http://sodipodi.sourceforge.net/DTD/sodipodi-0.dtd"
   xmlns:inkscape="http://www.inkscape.org/namespaces/inkscape"
   width="16px"
   height="16px"
   viewBox="0 0 16 16"
   version="1.1"
   id="SVGRoot"
   inkscape:version="0.92.1 r15371"
   sodipodi:docname="Boat tour.svg">
  <sodipodi:namedview
     id="base"
     pagecolor="#ffffff"
     bordercolor="#666666"
     borderopacity="1.0"
     inkscape:pageopacity="0.0"
     inkscape:pageshadow="2"
     inkscape:zoom="16"
     inkscape:cx="6.359375"
     inkscape:cy="4.313125"
     inkscape:document-units="px"
     inkscape:current-layer="layer1"
     showgrid="false"
     inkscape:window-width="681"
     inkscape:window-height="696"
     inkscape:window-x="676"
     inkscape:window-y="0"
     inkscape:window-maximized="0"
     inkscape:grid-bbox="true" />
  <defs
     id="defs20207">
    <pattern
       y="0"
       x="0"
       height="6"
       width="6"
       patternUnits="userSpaceOnUse"
       id="EMFhbasepattern" />
  </defs>
  <metadata
     id="metadata20210">
    <rdf:RDF>
      <cc:Work
         rdf:about="">
        <dc:format>image/svg+xml</dc:format>
        <dc:type
           rdf:resource="http://purl.org/dc/dcmitype/StillImage" />
        <dc:title></dc:title>
      </cc:Work>
    </rdf:RDF>
  </metadata>
  <g
     id="layer1"
     inkscape:groupmode="layer"
     inkscape:label="Layer 1">
    <g
       transform="matrix(1.0666666,0,0,1.0666666,2.0722754,-90.027486)"
       style="overflow:visible"
       id="g6777">
      <path
         d="m 9.244,96.724 c 0.652,0 1.181,-0.528 1.181,-1.181 v -7.52 c 0,-0.652 -0.528,-1.181 -1.181,-1.181 h -7.52 c -0.652,0 -1.181,0.528 -1.181,1.181 v 7.52 c 0,0.652 0.528,1.181 1.181,1.181 z"
         id="path6779"
         inkscape:connector-curvature="0" />
      <path
         d="m 1.724,87.043 c -0.541,0 -0.98,0.44 -0.98,0.98 v 7.52 c 0,0.541 0.44,0.98 0.98,0.98 h 7.52 c 0.541,0 0.98,-0.44 0.98,-0.98 v -7.52 c 0,-0.541 -0.44,-0.98 -0.98,-0.98 z"
         id="path6781"
         inkscape:connector-curvature="0"
         style="fill:#ffffff" />
      <path
         d="m 9.597,94.981 c -0.18,0 -0.353,-0.04 -0.506,-0.109 -0.159,-0.073 -0.337,-0.116 -0.523,-0.116 -0.186,0 -0.364,0.043 -0.521,0.116 -0.155,0.069 -0.327,0.109 -0.508,0.109 -0.18,0 -0.353,-0.04 -0.508,-0.109 -0.158,-0.073 -0.336,-0.116 -0.521,-0.116 -0.187,0 -0.364,0.043 -0.523,0.116 -0.153,0.069 -0.327,0.109 -0.507,0.109 -0.18,0 -0.354,-0.04 -0.507,-0.109 -0.159,-0.073 -0.337,-0.116 -0.522,-0.116 -0.187,0 -0.365,0.043 -0.522,0.116 -0.156,0.069 -0.329,0.109 -0.509,0.109 -0.181,0 -0.354,-0.04 -0.509,-0.109 -0.157,-0.073 -0.336,-0.116 -0.521,-0.116 -0.185,0 -0.364,0.043 -0.522,0.116 -0.154,0.069 -0.327,0.109 -0.507,0.109 v -0.76 c 0.18,0 0.353,-0.041 0.507,-0.11 0.158,-0.073 0.337,-0.116 0.522,-0.116 0.185,0 0.364,0.043 0.521,0.116 0.155,0.069 0.328,0.11 0.509,0.11 0.18,0 0.353,-0.041 0.507,-0.11 0.157,-0.073 0.336,-0.116 0.522,-0.116 0.186,0 0.363,0.043 0.522,0.116 0.153,0.069 0.327,0.11 0.507,0.11 0.18,0 0.354,-0.041 0.507,-0.11 0.159,-0.073 0.337,-0.116 0.523,-0.116 0.186,0 0.363,0.043 0.521,0.116 0.155,0.069 0.328,0.11 0.508,0.11 0.181,0 0.353,-0.041 0.508,-0.11 0.157,-0.073 0.336,-0.116 0.521,-0.116 0.187,0 0.364,0.043 0.523,0.116 0.153,0.069 0.326,0.11 0.506,0.11 v 0.76 z"
         id="path6783"
         inkscape:connector-curvature="0" />
      <path
         d="M 1.364,91.715 1.361,93.51 c 0.18,0 0.353,-0.04 0.507,-0.109 0.158,-0.073 0.337,-0.116 0.522,-0.116 0.185,0 0.364,0.043 0.521,0.116 0.156,0.069 0.329,0.109 0.509,0.109 0.18,0 0.353,-0.04 0.507,-0.109 0.157,-0.073 0.336,-0.116 0.522,-0.116 0.186,0 0.363,0.043 0.522,0.116 0.153,0.069 0.327,0.109 0.507,0.109 0.18,0 0.354,-0.04 0.507,-0.109 0.159,-0.073 0.337,-0.116 0.523,-0.116 0.186,0 0.363,0.043 0.521,0.116 0.155,0.069 0.328,0.109 0.508,0.109 0.051,0 0.1,-0.011 0.149,-0.017 0.091,-0.02 0.183,-0.028 0.271,-0.063 0.002,-0.001 0.004,-0.002 0.006,-0.003 0.654,-0.266 1.219,-0.923 1.571,-1.413 l 0.175,-0.299 z"
         id="path6785"
         inkscape:connector-curvature="0" />
      <path
         d="M 6.023,89.787 H 7.23 7.241 7.249 c 0.013,0 0.331,-0.013 0.438,0.224 l 0.46,1.096 c -0.222,0 -0.766,0 -1.57,0 z m -3.271,1.169 c 0,0.083 -0.068,0.15 -0.15,0.15 H 1.928 c -0.083,0 -0.15,-0.067 -0.15,-0.15 v -1.02 c 0,-0.083 0.067,-0.15 0.15,-0.15 h 0.674 c 0.082,0 0.15,0.067 0.15,0.15 z m 2.778,0 c 0,0.083 -0.067,0.15 -0.15,0.15 H 4.707 c -0.083,0 -0.15,-0.067 -0.15,-0.15 v -1.02 c 0,-0.083 0.067,-0.15 0.15,-0.15 H 5.38 c 0.083,0 0.15,0.067 0.15,0.15 z m -1.392,0 c 0,0.083 -0.068,0.15 -0.15,0.15 h -0.67 c -0.083,0 -0.15,-0.067 -0.15,-0.15 v -1.02 c 0,-0.083 0.067,-0.15 0.15,-0.15 h 0.669 c 0.083,0 0.15,0.067 0.15,0.15 v 1.02 z M 7.892,89.695 C 7.691,89.25 7.15,89.287 7.15,89.287 H 1.36 l -0.001,2.132 h 7.259 z"
         id="path6787"
         inkscape:connector-curvature="0" />
    </g>
  </g>
</svg>
