<?xml version="1.0" encoding="UTF-8" standalone="no"?>
<!-- Created with Inkscape (http://www.inkscape.org/) -->

<svg
   xmlns:dc="http://purl.org/dc/elements/1.1/"
   xmlns:cc="http://creativecommons.org/ns#"
   xmlns:rdf="http://www.w3.org/1999/02/22-rdf-syntax-ns#"
   xmlns:svg="http://www.w3.org/2000/svg"
   xmlns="http://www.w3.org/2000/svg"
   xmlns:sodipodi="http://sodipodi.sourceforge.net/DTD/sodipodi-0.dtd"
   xmlns:inkscape="http://www.inkscape.org/namespaces/inkscape"
   width="16px"
   height="16px"
   viewBox="0 0 16 16"
   version="1.1"
   id="SVGRoot"
   inkscape:version="0.92.1 r15371"
   sodipodi:docname="Boat launch.svg">
  <sodipodi:namedview
     id="base"
     pagecolor="#ffffff"
     bordercolor="#666666"
     borderopacity="1.0"
     inkscape:pageopacity="0.0"
     inkscape:pageshadow="2"
     inkscape:zoom="16"
     inkscape:cx="8"
     inkscape:cy="8"
     inkscape:document-units="px"
     inkscape:current-layer="layer1"
     showgrid="false"
     inkscape:window-width="716"
     inkscape:window-height="696"
     inkscape:window-x="676"
     inkscape:window-y="0"
     inkscape:window-maximized="0"
     inkscape:grid-bbox="true" />
  <defs
     id="defs20207" />
  <metadata
     id="metadata20210">
    <rdf:RDF>
      <cc:Work
         rdf:about="">
        <dc:format>image/svg+xml</dc:format>
        <dc:type
           rdf:resource="http://purl.org/dc/dcmitype/StillImage" />
        <dc:title />
      </cc:Work>
    </rdf:RDF>
  </metadata>
  <g
     id="layer1"
     inkscape:groupmode="layer"
     inkscape:label="Layer 1">
    <g
       id="g30290"
       transform="matrix(1.3333333,0,0,-1.3333333,13.014667,14.588667)">
      <path
         d="M 0,0 C 0.652,0 1.181,0.528 1.181,1.181 V 8.702 C 1.181,9.354 0.652,9.883 0,9.883 h -7.521 c -0.653,0 -1.182,-0.529 -1.182,-1.181 V 1.181 C -8.703,0.528 -8.174,0 -7.521,0 Z"
         style="fill:#231f20;fill-opacity:1;fill-rule:nonzero;stroke:none"
         id="path30292"
         inkscape:connector-curvature="0" />
    </g>
    <g
       id="g30294"
       transform="matrix(1.3333333,0,0,-1.3333333,2.9860002,1.6778665)">
      <path
         d="m 0,0 c -0.542,0 -0.981,-0.44 -0.981,-0.981 v -7.522 c 0,-0.54 0.439,-0.98 0.981,-0.98 h 7.521 c 0.541,0 0.981,0.44 0.981,0.98 v 7.522 C 8.502,-0.44 8.062,0 7.521,0 Z"
         style="fill:#ffffff;fill-opacity:1;fill-rule:nonzero;stroke:none"
         id="path30296"
         inkscape:connector-curvature="0" />
    </g>
    <g
       id="g30302"
       transform="matrix(1.3333333,0,0,-1.3333333,10.135733,8.6805365)">
      <path
         d="M 0,0 C -0.006,0.113 -0.027,0.221 -0.064,0.323 L 2.218,-0.312 2.145,-0.593 Z"
         style="fill:#231f20;fill-opacity:1;fill-rule:nonzero;stroke:none"
         id="path30304"
         inkscape:connector-curvature="0" />
    </g>
    <g
       id="g25"
       transform="matrix(0.8,0,0,0.8,1.6271467,1.609747)">
      <g
         transform="matrix(1.3333333,0,0,-1.3333333,4.3037332,4.0634665)"
         id="g30298">
        <path
           inkscape:connector-curvature="0"
           id="path30300"
           style="fill:#231f20;fill-opacity:1;fill-rule:nonzero;stroke:none"
           d="M 0,0 1.664,-0.453 2.588,0.187 2.909,0.11 1.994,-0.532 7.037,-1.915 6.668,-3.269 1.607,-1.89 C -0.355,-1.307 0.003,0.001 0.003,0.001" />
      </g>
      <g
         transform="matrix(1.3333333,0,0,-1.3333333,7.3727992,7.9174665)"
         id="g30306">
        <path
           inkscape:connector-curvature="0"
           id="path30308"
           style="fill:#231f20;fill-opacity:1;fill-rule:nonzero;stroke:none"
           d="M 0,0 C 0.061,0.09 0.135,0.171 0.218,0.24 L -3.589,1.291 V 0.989 Z" />
      </g>
      <g
         transform="matrix(1.3333333,0,0,-1.3333333,13.5824,12.283337)"
         id="g30310">
        <path
           inkscape:connector-curvature="0"
           id="path30312"
           style="fill:#231f20;fill-opacity:1;fill-rule:nonzero;stroke:none"
           d="M 0,0 C -0.181,0 -0.352,0.041 -0.506,0.11 -0.665,0.184 -0.843,0.226 -1.029,0.226 -1.215,0.226 -1.393,0.184 -1.551,0.11 -1.706,0.041 -1.878,0 -2.059,0 -2.239,0 -2.411,0.041 -2.566,0.11 -2.725,0.184 -2.902,0.226 -3.088,0.226 -3.274,0.226 -3.452,0.184 -3.611,0.11 -3.765,0.041 -3.939,0 -4.118,0 -4.298,0 -4.471,0.041 -4.625,0.11 -4.784,0.184 -4.963,0.226 -5.148,0.226 -5.334,0.226 -5.513,0.184 -5.67,0.11 -5.824,0.041 -5.998,0 -6.178,0 -6.357,0 -6.53,0.041 -6.686,0.11 -6.843,0.184 -7.021,0.226 -7.207,0.226 -7.393,0.226 -7.571,0.184 -7.73,0.11 -7.884,0.041 -8.058,0 -8.236,0 l -0.012,3.022 4.163,-1.147 c -0.287,0.139 -0.486,0.43 -0.486,0.768 0,0.473 0.382,0.856 0.855,0.856 0.472,0 0.856,-0.383 0.856,-0.856 0,-0.471 -0.384,-0.855 -0.856,-0.855 -0.028,0 -0.057,0.006 -0.084,0.009 l 3.794,-1.046 z m -3.716,2.273 c 0.205,0 0.371,0.165 0.371,0.37 0,0.206 -0.166,0.372 -0.371,0.372 -0.205,0 -0.371,-0.166 -0.371,-0.372 0,-0.205 0.166,-0.37 0.371,-0.37" />
      </g>
    </g>
  </g>
</svg>
