<?xml version="1.0" encoding="UTF-8" standalone="no"?>
<!-- Created with Inkscape (http://www.inkscape.org/) -->

<svg
   xmlns:dc="http://purl.org/dc/elements/1.1/"
   xmlns:cc="http://creativecommons.org/ns#"
   xmlns:rdf="http://www.w3.org/1999/02/22-rdf-syntax-ns#"
   xmlns:svg="http://www.w3.org/2000/svg"
   xmlns="http://www.w3.org/2000/svg"
   xmlns:sodipodi="http://sodipodi.sourceforge.net/DTD/sodipodi-0.dtd"
   xmlns:inkscape="http://www.inkscape.org/namespaces/inkscape"
   width="16px"
   height="16px"
   viewBox="0 0 16 16"
   version="1.1"
   id="SVGRoot"
   inkscape:version="0.92.1 r15371"
   sodipodi:docname="Campground.svg">
  <sodipodi:namedview
     id="base"
     pagecolor="#ffffff"
     bordercolor="#666666"
     borderopacity="1.0"
     inkscape:pageopacity="0.0"
     inkscape:pageshadow="2"
     inkscape:zoom="16"
     inkscape:cx="8"
     inkscape:cy="8"
     inkscape:document-units="px"
     inkscape:current-layer="layer1"
     showgrid="false"
     inkscape:window-width="681"
     inkscape:window-height="696"
     inkscape:window-x="676"
     inkscape:window-y="0"
     inkscape:window-maximized="0"
     inkscape:grid-bbox="true" />
  <defs
     id="defs20207" />
  <metadata
     id="metadata20210">
    <rdf:RDF>
      <cc:Work
         rdf:about="">
        <dc:format>image/svg+xml</dc:format>
        <dc:type
           rdf:resource="http://purl.org/dc/dcmitype/StillImage" />
        <dc:title></dc:title>
      </cc:Work>
    </rdf:RDF>
  </metadata>
  <g
     id="layer1"
     inkscape:groupmode="layer"
     inkscape:label="Layer 1">
    <g
       id="g30110"
       transform="matrix(1.3333333,0,0,-1.3333333,13.014,14.714333)">
      <path
         d="M 0,0 C 0.652,0 1.182,0.529 1.182,1.182 V 8.703 C 1.182,9.355 0.652,9.884 0,9.884 h -7.521 c -0.653,0 -1.182,-0.529 -1.182,-1.181 V 1.182 C -8.703,0.529 -8.174,0 -7.521,0 Z"
		 fill="param(fill) #FFF" stroke="param(outline) #000" stroke-width="param(outline-width) 0.1"
         id="path30112"
         inkscape:connector-curvature="0" />
    </g>
    <g
       id="g30114"
       transform="matrix(1.3333333,0,0,-1.3333333,2.9853336,1.8028735)">
      <path
         d="m 0,0 c -0.542,0 -0.982,-0.44 -0.982,-0.98 v -7.522 c 0,-0.541 0.44,-0.981 0.982,-0.981 h 7.521 c 0.542,0 0.982,0.44 0.982,0.981 V -0.98 C 8.503,-0.44 8.063,0 7.521,0 Z"
         style="fill:#ffffff;fill-opacity:1;fill-rule:nonzero;stroke:none"
         id="path30116"
         inkscape:connector-curvature="0" />
    </g>
    <g
       id="g30118"
       transform="matrix(1.3333333,0,0,-1.3333333,12.378533,11.628333)">
      <path
         d="M 0,0 -3.258,6.236 -6.514,0 H -7.203 V -0.449 H 0.635 V 0 Z M -5.002,0 -3.258,3.342 -1.512,0 Z"
         fill="param(fill) #e6e6e6" stroke="param(outline) #000" stroke-width="param(outline-width) 0.1"
         id="path30120"
         inkscape:connector-curvature="0" />
    </g>
  </g>
</svg>
