<?xml version="1.0" encoding="UTF-8" standalone="no"?>
<!-- Created with Inkscape (http://www.inkscape.org/) -->

<svg
   xmlns:dc="http://purl.org/dc/elements/1.1/"
   xmlns:cc="http://creativecommons.org/ns#"
   xmlns:rdf="http://www.w3.org/1999/02/22-rdf-syntax-ns#"
   xmlns:svg="http://www.w3.org/2000/svg"
   xmlns="http://www.w3.org/2000/svg"
   xmlns:sodipodi="http://sodipodi.sourceforge.net/DTD/sodipodi-0.dtd"
   xmlns:inkscape="http://www.inkscape.org/namespaces/inkscape"
   width="16px"
   height="16px"
   viewBox="0 0 16 16"
   version="1.1"
   id="SVGRoot"
   inkscape:version="0.92.1 r15371"
   sodipodi:docname="Checkbox.svg">
  <sodipodi:namedview
     id="base"
     pagecolor="#ffffff"
     bordercolor="#666666"
     borderopacity="1.0"
     inkscape:pageopacity="0.0"
     inkscape:pageshadow="2"
     inkscape:zoom="16"
     inkscape:cx="8"
     inkscape:cy="8"
     inkscape:document-units="px"
     inkscape:current-layer="layer1"
     showgrid="false"
     inkscape:window-width="681"
     inkscape:window-height="696"
     inkscape:window-x="676"
     inkscape:window-y="0"
     inkscape:window-maximized="0"
     inkscape:grid-bbox="true" />
  <defs
     id="defs20207" />
  <metadata
     id="metadata20210">
    <rdf:RDF>
      <cc:Work
         rdf:about="">
        <dc:format>image/svg+xml</dc:format>
        <dc:type
           rdf:resource="http://purl.org/dc/dcmitype/StillImage" />
        <dc:title></dc:title>
      </cc:Work>
    </rdf:RDF>
  </metadata>
  <g
     id="layer1"
     inkscape:groupmode="layer"
     inkscape:label="Layer 1">
    <g
       id="g30110"
       transform="matrix(1.3333333,0,0,-1.3333333,13.014,14.714333)">
      <path
         d="M 0,0 C 0.652,0 1.182,0.529 1.182,1.182 V 8.703 C 1.182,9.355 0.652,9.884 0,9.884 h -7.521 c -0.653,0 -1.182,-0.529 -1.182,-1.181 V 1.182 C -8.703,0.529 -8.174,0 -7.521,0 Z"
         fill="param(fill) #FFF"
         stroke="param(outline) #000"
         stroke-width="param(outline-width) 0.1"
         id="path30112"
         inkscape:connector-curvature="0" />
    </g>
    <g
       id="g30114"
       transform="matrix(1.3333333,0,0,-1.3333333,2.9853336,1.8028735)">
      <path
         d="m 0,0 c -0.542,0 -0.982,-0.44 -0.982,-0.98 v -7.522 c 0,-0.541 0.44,-0.981 0.982,-0.981 h 7.521 c 0.542,0 0.982,0.44 0.982,0.981 V -0.98 C 8.503,-0.44 8.063,0 7.521,0 Z"
         style="fill:#ffffff;fill-opacity:1;fill-rule:nonzero;stroke:none"
         id="path30116"
         inkscape:connector-curvature="0" />
    </g>
    <path
       style="fill:#0a0a0a;fill-rule:evenodd;stroke:#000000;stroke-width:0.01912708px;stroke-linecap:butt;stroke-linejoin:miter;stroke-opacity:1"
       d="m 3.0556102,8.7514498 c 0,0 0.6088551,-0.8806087 1.2965791,-1.1456701 0.186211,0.1673931 1.2418051,2.6957543 1.4280154,2.6678603 0.2094879,-0.02792 1.5893667,-2.3321014 4.5734353,-6.5591183 0,0 0.863594,0.469895 2.452526,0.5679542 C 8.6513717,8.1885877 6.5022796,11.996287 6.3139729,12.18026 5.778611,12.487144 5.5042047,12.309574 5.3179944,12.170067 4.8757416,11.695795 3.0788835,8.8630311 3.0556102,8.7514352 Z"
       id="path5752"
       inkscape:connector-curvature="0"
       sodipodi:nodetypes="cccccccc" />
  </g>
</svg>
