<?xml version="1.0" encoding="UTF-8" standalone="no"?>
<!-- Created with Inkscape (http://www.inkscape.org/) -->

<svg
   xmlns:dc="http://purl.org/dc/elements/1.1/"
   xmlns:cc="http://creativecommons.org/ns#"
   xmlns:rdf="http://www.w3.org/1999/02/22-rdf-syntax-ns#"
   xmlns:svg="http://www.w3.org/2000/svg"
   xmlns="http://www.w3.org/2000/svg"
   xmlns:sodipodi="http://sodipodi.sourceforge.net/DTD/sodipodi-0.dtd"
   xmlns:inkscape="http://www.inkscape.org/namespaces/inkscape"
   width="16px"
   height="16px"
   viewBox="0 0 16 16"
   version="1.1"
   id="SVGRoot"
   inkscape:version="0.92.1 r15371"
   sodipodi:docname="Climbing.svg">
  <sodipodi:namedview
     id="base"
     pagecolor="#ffffff"
     bordercolor="#666666"
     borderopacity="1.0"
     inkscape:pageopacity="0.0"
     inkscape:pageshadow="2"
     inkscape:zoom="16"
     inkscape:cx="8"
     inkscape:cy="8"
     inkscape:document-units="px"
     inkscape:current-layer="layer1"
     showgrid="false"
     inkscape:window-width="681"
     inkscape:window-height="696"
     inkscape:window-x="676"
     inkscape:window-y="0"
     inkscape:window-maximized="0"
     inkscape:grid-bbox="true" />
  <defs
     id="defs20207">
    <pattern
       y="0"
       x="0"
       height="6"
       width="6"
       patternUnits="userSpaceOnUse"
       id="EMFhbasepattern" />
  </defs>
  <metadata
     id="metadata20210">
    <rdf:RDF>
      <cc:Work
         rdf:about="">
        <dc:format>image/svg+xml</dc:format>
        <dc:type
           rdf:resource="http://purl.org/dc/dcmitype/StillImage" />
        <dc:title></dc:title>
      </cc:Work>
    </rdf:RDF>
  </metadata>
  <g
     id="layer1"
     inkscape:groupmode="layer"
     inkscape:label="Layer 1">
    <g
       id="g5044"
       transform="matrix(1.3333333,0,0,-1.3333333,13.014667,14.588667)">
      <path
         d="m 0,0 c 0.652,0 1.18,0.529 1.18,1.182 v 7.521 c 0,0.653 -0.528,1.18 -1.18,1.18 h -7.522 c -0.651,0 -1.18,-0.527 -1.18,-1.18 V 1.182 C -8.702,0.529 -8.173,0 -7.522,0 Z"
         style="fill:#231f20;fill-opacity:1;fill-rule:nonzero;stroke:none"
         id="path5046"
         inkscape:connector-curvature="0" />
    </g>
    <g
       id="g5048"
       transform="matrix(1.3333333,0,0,-1.3333333,2.9846669,1.6785265)">
      <path
         d="m 0,0 c -0.54,0 -0.979,-0.439 -0.979,-0.979 v -7.522 c 0,-0.541 0.439,-0.981 0.979,-0.981 h 7.522 c 0.541,0 0.98,0.44 0.98,0.981 v 7.522 C 8.502,-0.439 8.063,0 7.522,0 Z"
         style="fill:#ffffff;fill-opacity:1;fill-rule:nonzero;stroke:none"
         id="path5050"
         inkscape:connector-curvature="0" />
    </g>
    <g
       id="g5052"
       transform="matrix(1.3333333,0,0,-1.3333333,4.0081269,7.2345265)">
      <path
         d="m 0,0 c -0.035,-0.072 -0.061,-0.152 -0.074,-0.238 -0.006,-0.043 -0.01,-0.086 -0.01,-0.129 l 0.031,-1.969 -0.679,-1.465 c -0.024,-0.043 -0.041,-0.094 -0.049,-0.146 -0.037,-0.242 0.129,-0.467 0.371,-0.504 0.187,-0.029 0.367,0.066 0.453,0.224 l 0.748,1.602 c 0.016,0.037 0.029,0.076 0.035,0.119 0.002,0.02 0.004,0.041 0.004,0.061 l -0.006,1.216 1.15,-0.501 0.185,-1.19 c 0.037,-0.174 0.18,-0.312 0.365,-0.342 0.243,-0.035 0.467,0.131 0.504,0.371 0.006,0.041 0.006,0.083 0.002,0.121 L 2.804,-1.334 C 2.776,-1.195 2.685,-1.076 2.556,-1.016 L 1.528,-0.558 2.183,0.58 2.507,0.168 C 2.54,0.131 2.583,0.1 2.632,0.08 L 3.868,-0.281 C 4.032,-0.316 4.2,-0.23 4.265,-0.072 4.337,0.107 4.251,0.311 4.073,0.383 4.067,0.385 4.062,0.387 4.056,0.389 L 2.982,0.705 2.173,1.676 C 2.052,1.805 1.89,1.896 1.702,1.926 1.374,1.975 1.062,1.818 0.898,1.553 Z"
         style="fill:#231f20;fill-opacity:1;fill-rule:nonzero;stroke:none"
         id="path5054"
         inkscape:connector-curvature="0" />
    </g>
    <g
       id="g5056"
       transform="matrix(1.3333333,0,0,-1.3333333,8.7373269,10.997467)">
      <path
         d="m 0,0 -0.078,-0.59 -2.127,-0.517 0.02,-0.366 h 5.188 c 0.183,0 0.332,0.149 0.332,0.332 L 3.329,5.852 2.618,6.018 2.21,4.18 1.527,3.893 0.922,2.197 1.497,0.9 1.335,0.402 Z"
         style="fill:#231f20;fill-opacity:1;fill-rule:nonzero;stroke:none"
         id="path5058"
         inkscape:connector-curvature="0" />
    </g>
    <g
       id="g5060"
       transform="matrix(1.3333333,0,0,-1.3333333,6.8115969,4.5521265)">
      <path
         d="M 0,0 C 0.365,0 0.662,0.297 0.662,0.662 0.662,1.027 0.365,1.324 0,1.324 -0.365,1.324 -0.662,1.027 -0.662,0.662 -0.662,0.297 -0.365,0 0,0"
         style="fill:#231f20;fill-opacity:1;fill-rule:nonzero;stroke:none"
         id="path5062"
         inkscape:connector-curvature="0" />
    </g>
    <g
       id="g5064"
       transform="matrix(1.3333333,0,0,-1.3333333,5.0550669,4.6902665)">
      <path
         d="M 0,0 C 0.051,0.09 0.021,0.207 -0.07,0.258 L -0.391,0.445 C -0.482,0.496 -0.598,0.467 -0.65,0.375 L -1.639,-1.33 c -0.05,-0.09 -0.021,-0.205 0.071,-0.258 l 0.322,-0.185 c 0.09,-0.053 0.205,-0.022 0.258,0.068 z"
         style="fill:#231f20;fill-opacity:1;fill-rule:nonzero;stroke:none"
         id="path5066"
         inkscape:connector-curvature="0" />
    </g>
  </g>
</svg>
