<?xml version="1.0" encoding="UTF-8" standalone="no"?>
<!-- Created with Inkscape (http://www.inkscape.org/) -->

<svg
   xmlns:dc="http://purl.org/dc/elements/1.1/"
   xmlns:cc="http://creativecommons.org/ns#"
   xmlns:rdf="http://www.w3.org/1999/02/22-rdf-syntax-ns#"
   xmlns:svg="http://www.w3.org/2000/svg"
   xmlns="http://www.w3.org/2000/svg"
   xmlns:sodipodi="http://sodipodi.sourceforge.net/DTD/sodipodi-0.dtd"
   xmlns:inkscape="http://www.inkscape.org/namespaces/inkscape"
   width="16px"
   height="16px"
   viewBox="0 0 16 16"
   version="1.1"
   id="SVGRoot"
   inkscape:version="0.92.1 r15371"
   sodipodi:docname="Cross country ski trail.svg">
  <sodipodi:namedview
     id="base"
     pagecolor="#ffffff"
     bordercolor="#666666"
     borderopacity="1.0"
     inkscape:pageopacity="0.0"
     inkscape:pageshadow="2"
     inkscape:zoom="16"
     inkscape:cx="8"
     inkscape:cy="8"
     inkscape:document-units="px"
     inkscape:current-layer="layer1"
     showgrid="false"
     inkscape:window-width="716"
     inkscape:window-height="696"
     inkscape:window-x="676"
     inkscape:window-y="0"
     inkscape:window-maximized="0"
     inkscape:grid-bbox="true" />
  <defs
     id="defs20207" />
  <metadata
     id="metadata20210">
    <rdf:RDF>
      <cc:Work
         rdf:about="">
        <dc:format>image/svg+xml</dc:format>
        <dc:type
           rdf:resource="http://purl.org/dc/dcmitype/StillImage" />
        <dc:title />
      </cc:Work>
    </rdf:RDF>
  </metadata>
  <g
     id="layer1"
     inkscape:groupmode="layer"
     inkscape:label="Layer 1">
    <g
       id="g30242"
       transform="matrix(1.3333333,0,0,-1.3333333,13.453333,12.439603)">
      <path
         d="M 0,0 C -0.001,-0.222 -0.185,-0.4 -0.405,-0.399 H -6.99 v -0.272 h 6.584 c 0.371,-0.002 0.674,0.296 0.676,0.669 z"
         style="fill:#231f20;fill-opacity:1;fill-rule:nonzero;stroke:none"
         id="path30244"
         inkscape:connector-curvature="0" />
    </g>
    <g
       id="g30246"
       transform="matrix(1.3333333,0,0,-1.3333333,13.013333,14.589333)">
      <path
         d="M 0,0 C 0.652,0 1.182,0.529 1.182,1.182 V 8.703 C 1.182,9.355 0.652,9.884 0,9.884 h -7.521 c -0.653,0 -1.181,-0.529 -1.181,-1.181 V 1.182 C -8.702,0.529 -8.174,0 -7.521,0 Z"
         style="fill:#231f20;fill-opacity:1;fill-rule:nonzero;stroke:none"
         id="path30248"
         inkscape:connector-curvature="0" />
    </g>
    <g
       id="g30250"
       transform="matrix(1.3333333,0,0,-1.3333333,2.9846676,1.6778735)">
      <path
         d="m 0,0 c -0.541,0 -0.98,-0.44 -0.98,-0.98 v -7.522 c 0,-0.541 0.439,-0.981 0.98,-0.981 h 7.521 c 0.542,0 0.982,0.44 0.982,0.981 V -0.98 C 8.503,-0.44 8.063,0 7.521,0 Z"
         style="fill:#ffffff;fill-opacity:1;fill-rule:nonzero;stroke:none"
         id="path30252"
         inkscape:connector-curvature="0" />
    </g>
    <g
       id="g38"
       transform="matrix(0.8,0,0,0.8,1.6096001,1.5034407)">
      <g
         transform="matrix(1.3333333,0,0,-1.3333333,10.828401,4.2677335)"
         id="g30254">
        <path
           inkscape:connector-curvature="0"
           id="path30256"
           style="fill:#231f20;fill-opacity:1;fill-rule:nonzero;stroke:none"
           d="M 0,0 C 0.365,0 0.661,0.297 0.661,0.662 0.661,1.027 0.365,1.323 0,1.323 -0.365,1.323 -0.662,1.027 -0.662,0.662 -0.662,0.297 -0.365,0 0,0" />
      </g>
      <g
         transform="matrix(1.3333333,0,0,-1.3333333,5.2372006,11.861473)"
         id="g30258">
        <path
           inkscape:connector-curvature="0"
           id="path30260"
           style="fill:#231f20;fill-opacity:1;fill-rule:nonzero;stroke:none"
           d="M 0,0 -2.201,2.208 -2.2,1.822 -0.151,-0.234 c 0.235,-0.255 0.638,0.039 0.638,0.039 L 0.294,0.013 c 0,0 -0.19,-0.125 -0.289,-0.019 z" />
      </g>
      <path
         inkscape:connector-curvature="0"
         id="path30262"
         style="fill:#231f20;fill-opacity:1;fill-rule:nonzero;stroke:none;stroke-width:1.33333325"
         d="M 5.3314671,6.3090712 H 2.3274672 v 0.3586667 h 3.0039999 z" />
      <g
         transform="matrix(1.3333333,0,0,-1.3333333,13.4508,5.4520035)"
         id="g30264">
        <path
           inkscape:connector-curvature="0"
           id="path30266"
           style="fill:#231f20;fill-opacity:1;fill-rule:nonzero;stroke:none"
           d="M 0,0 0.257,-0.108 -2.301,-5.256 H -2.584 Z" />
      </g>
      <g
         transform="matrix(1.3333333,0,0,-1.3333333,7.7918666,4.9226735)"
         id="g30268">
        <path
           inkscape:connector-curvature="0"
           id="path30270"
           style="fill:#231f20;fill-opacity:1;fill-rule:nonzero;stroke:none"
           d="M 0,0 -1.029,-1.188 C -1.09,-1.264 -1.183,-1.31 -1.286,-1.31 c -0.185,0 -0.333,0.149 -0.333,0.333 0,0.099 0.043,0.188 0.112,0.249 l 1.11,1.278 c 0.061,0.073 0.153,0.12 0.256,0.12 l 1.607,0.001 c 0.118,0 0.223,-0.047 0.302,-0.123 l 1.024,-1.024 0.849,0.848 c 0.059,0.05 0.136,0.08 0.22,0.08 0.191,0 0.344,-0.154 0.344,-0.344 0,-0.083 -0.028,-0.158 -0.077,-0.217 L 3.105,-1.141 C 2.794,-1.451 2.544,-1.187 2.544,-1.187 l -0.628,0.63 -0.981,-1.134 0.899,-0.9 c 0,0 0.189,-0.176 0.081,-0.526 L 1.411,-5.363 c -0.04,-0.196 -0.213,-0.343 -0.419,-0.343 -0.236,0 -0.428,0.192 -0.428,0.429 0,0.037 0.004,0.073 0.014,0.107 l 0.414,1.843 -1.021,0.994 -0.879,-0.98 c 0,0 -0.143,-0.176 -0.52,-0.163 L -3.21,-3.479 c -0.199,-0.003 -0.38,0.133 -0.425,0.335 -0.053,0.23 0.09,0.456 0.321,0.507 0.036,0.009 0.072,0.012 0.107,0.011 l 1.533,-0.005 2.267,2.628 z" />
      </g>
    </g>
  </g>
</svg>
