<?xml version="1.0" encoding="UTF-8" standalone="no"?>
<!-- Created with Inkscape (http://www.inkscape.org/) -->

<svg
   xmlns:dc="http://purl.org/dc/elements/1.1/"
   xmlns:cc="http://creativecommons.org/ns#"
   xmlns:rdf="http://www.w3.org/1999/02/22-rdf-syntax-ns#"
   xmlns:svg="http://www.w3.org/2000/svg"
   xmlns="http://www.w3.org/2000/svg"
   xmlns:sodipodi="http://sodipodi.sourceforge.net/DTD/sodipodi-0.dtd"
   xmlns:inkscape="http://www.inkscape.org/namespaces/inkscape"
   width="16px"
   height="16px"
   viewBox="0 0 16 16"
   version="1.1"
   id="SVGRoot"
   inkscape:version="0.92.1 r15371"
   sodipodi:docname="Downhill ski trail.svg">
  <sodipodi:namedview
     id="base"
     pagecolor="#ffffff"
     bordercolor="#666666"
     borderopacity="1.0"
     inkscape:pageopacity="0.0"
     inkscape:pageshadow="2"
     inkscape:zoom="16"
     inkscape:cx="8"
     inkscape:cy="8"
     inkscape:document-units="px"
     inkscape:current-layer="layer1"
     showgrid="false"
     inkscape:window-width="681"
     inkscape:window-height="696"
     inkscape:window-x="676"
     inkscape:window-y="0"
     inkscape:window-maximized="0"
     inkscape:grid-bbox="true" />
  <defs
     id="defs20207" />
  <metadata
     id="metadata20210">
    <rdf:RDF>
      <cc:Work
         rdf:about="">
        <dc:format>image/svg+xml</dc:format>
        <dc:type
           rdf:resource="http://purl.org/dc/dcmitype/StillImage" />
        <dc:title></dc:title>
      </cc:Work>
    </rdf:RDF>
  </metadata>
  <g
     id="layer1"
     inkscape:groupmode="layer"
     inkscape:label="Layer 1">
    <g
       id="g30030"
       transform="matrix(1.3333333,0,0,-1.3333333,13.014667,14.59)">
      <path
         d="M 0,0 C 0.652,0 1.181,0.529 1.181,1.182 V 8.703 C 1.181,9.356 0.652,9.885 0,9.885 h -7.522 c -0.652,0 -1.181,-0.529 -1.181,-1.182 V 1.182 C -8.703,0.529 -8.174,0 -7.522,0 Z"
         style="fill:#231f20;fill-opacity:1;fill-rule:nonzero;stroke:none"
         id="path30032"
         inkscape:connector-curvature="0" />
    </g>
    <g
       id="g30034"
       transform="matrix(1.3333333,0,0,-1.3333333,2.9848002,1.6771995)">
      <path
         d="m 0,0 c -0.541,0 -0.98,-0.44 -0.98,-0.982 v -7.521 c 0,-0.541 0.439,-0.981 0.98,-0.981 h 7.522 c 0.541,0 0.981,0.44 0.981,0.981 v 7.521 C 8.503,-0.44 8.063,0 7.522,0 Z"
         style="fill:#ffffff;fill-opacity:1;fill-rule:nonzero;stroke:none"
         id="path30036"
         inkscape:connector-curvature="0" />
    </g>
    <g
       id="g30038"
       transform="matrix(1.3333333,0,0,-1.3333333,12.3272,6.8373395)">
      <path
         d="m 0,0 c 0.366,0 0.662,0.297 0.662,0.662 0,0.365 -0.296,0.66 -0.662,0.66 -0.364,0 -0.661,-0.295 -0.661,-0.66 C -0.661,0.297 -0.364,0 0,0"
         style="fill:#231f20;fill-opacity:1;fill-rule:nonzero;stroke:none"
         id="path30040"
         inkscape:connector-curvature="0" />
    </g>
    <g
       id="g30042"
       transform="matrix(1.3333333,0,0,-1.3333333,11.892267,13.1916)">
      <path
         d="M 0,0 C 0.319,-0.189 0.731,-0.086 0.922,0.234 L 0.69,0.373 C 0.577,0.182 0.329,0.121 0.14,0.234 l -6.966,4.09 -0.137,-0.233 z"
         style="fill:#231f20;fill-opacity:1;fill-rule:nonzero;stroke:none"
         id="path30044"
         inkscape:connector-curvature="0" />
    </g>
    <g
       id="g30046"
       transform="matrix(1.3333333,0,0,-1.3333333,8.5302662,3.4623995)">
      <path
         d="m 0,0 c -0.402,0.271 -0.946,0.164 -1.218,-0.24 -0.149,-0.221 -0.19,-0.5 -0.117,-0.727 l 0.463,-1.515 -1.397,-0.446 c -0.174,-0.07 -0.309,-0.234 -0.333,-0.435 -0.036,-0.295 0.184,-0.49 0.48,-0.526 0.067,-0.007 0.112,0.012 0.175,0.028 l 1.906,0.631 c 0.14,0.05 0.293,0.189 0.308,0.31 0.01,0.088 0.039,0.162 0.02,0.215 l -0.29,1.037 1.147,-0.682 0.138,-0.994 c 0.012,-0.174 0.091,-0.299 0.225,-0.373 l 1.498,-0.875 c 0.164,-0.09 0.371,-0.029 0.461,0.137 0.091,0.164 0.029,0.373 -0.135,0.463 L 2.146,-3.301 2.01,-1.529 C 1.989,-1.317 1.874,-1.127 1.706,-1.01 Z"
         style="fill:#231f20;fill-opacity:1;fill-rule:nonzero;stroke:none"
         id="path30048"
         inkscape:connector-curvature="0" />
    </g>
  </g>
</svg>
