<?xml version="1.0" encoding="UTF-8" standalone="no"?>
<!-- Created with Inkscape (http://www.inkscape.org/) -->

<svg
   xmlns:dc="http://purl.org/dc/elements/1.1/"
   xmlns:cc="http://creativecommons.org/ns#"
   xmlns:rdf="http://www.w3.org/1999/02/22-rdf-syntax-ns#"
   xmlns:svg="http://www.w3.org/2000/svg"
   xmlns="http://www.w3.org/2000/svg"
   xmlns:sodipodi="http://sodipodi.sourceforge.net/DTD/sodipodi-0.dtd"
   xmlns:inkscape="http://www.inkscape.org/namespaces/inkscape"
   width="16px"
   height="16px"
   viewBox="0 0 16 16"
   version="1.1"
   id="SVGRoot"
   inkscape:version="0.92.1 r15371"
   sodipodi:docname="First aid.svg">
  <sodipodi:namedview
     id="base"
     pagecolor="#ffffff"
     bordercolor="#666666"
     borderopacity="1.0"
     inkscape:pageopacity="0.0"
     inkscape:pageshadow="2"
     inkscape:zoom="16"
     inkscape:cx="6.359375"
     inkscape:cy="4.313125"
     inkscape:document-units="px"
     inkscape:current-layer="layer1"
     showgrid="false"
     inkscape:window-width="681"
     inkscape:window-height="696"
     inkscape:window-x="676"
     inkscape:window-y="0"
     inkscape:window-maximized="0"
     inkscape:grid-bbox="true" />
  <defs
     id="defs20207">
    <pattern
       y="0"
       x="0"
       height="6"
       width="6"
       patternUnits="userSpaceOnUse"
       id="EMFhbasepattern" />
  </defs>
  <metadata
     id="metadata20210">
    <rdf:RDF>
      <cc:Work
         rdf:about="">
        <dc:format>image/svg+xml</dc:format>
        <dc:type
           rdf:resource="http://purl.org/dc/dcmitype/StillImage" />
        <dc:title></dc:title>
      </cc:Work>
    </rdf:RDF>
  </metadata>
  <g
     id="layer1"
     inkscape:groupmode="layer"
     inkscape:label="Layer 1">
    <g
       transform="matrix(1.0666666,0,0,1.0666666,2.0129754,-211.88338)"
       style="overflow:visible"
       id="g6849">
      <path
         d="m 9.243,211.024 c 0.652,0 1.18,-0.529 1.18,-1.182 v -7.521 c 0,-0.652 -0.527,-1.182 -1.18,-1.182 H 1.721 c -0.652,0 -1.182,0.529 -1.182,1.182 v 7.521 c 0,0.652 0.529,1.182 1.182,1.182 z"
         id="path6851"
         inkscape:connector-curvature="0" />
      <path
         d="m 1.721,201.34 c -0.542,0 -0.981,0.44 -0.981,0.981 v 7.521 c 0,0.541 0.44,0.981 0.981,0.981 h 7.521 c 0.54,0 0.979,-0.44 0.979,-0.981 v -7.521 c 0,-0.541 -0.439,-0.981 -0.979,-0.981 z"
         id="path6853"
         inkscape:connector-curvature="0"
         style="fill:#ffffff" />
      <polygon
         points="6.426,203.038 4.401,203.038 4.403,205.062 2.375,205.062 2.375,207.089 4.403,207.089 4.401,209.112 6.426,209.112 6.424,207.089 8.452,207.089 8.452,205.062 6.424,205.062 "
         id="polygon6855" />
    </g>
  </g>
</svg>
