<?xml version="1.0" encoding="UTF-8" standalone="no"?>
<!-- Created with Inkscape (http://www.inkscape.org/) -->

<svg
   xmlns:dc="http://purl.org/dc/elements/1.1/"
   xmlns:cc="http://creativecommons.org/ns#"
   xmlns:rdf="http://www.w3.org/1999/02/22-rdf-syntax-ns#"
   xmlns:svg="http://www.w3.org/2000/svg"
   xmlns="http://www.w3.org/2000/svg"
   xmlns:sodipodi="http://sodipodi.sourceforge.net/DTD/sodipodi-0.dtd"
   xmlns:inkscape="http://www.inkscape.org/namespaces/inkscape"
   width="16px"
   height="16px"
   viewBox="0 0 16 16"
   version="1.1"
   id="SVGRoot"
   inkscape:version="0.92.1 r15371"
   sodipodi:docname="Fishing custom.svg">
  <sodipodi:namedview
     id="base"
     pagecolor="#ffffff"
     bordercolor="#666666"
     borderopacity="1.0"
     inkscape:pageopacity="0.0"
     inkscape:pageshadow="2"
     inkscape:zoom="16"
     inkscape:cx="-13.3125"
     inkscape:cy="8"
     inkscape:document-units="px"
     inkscape:current-layer="layer1"
     showgrid="false"
     inkscape:window-width="1366"
     inkscape:window-height="705"
     inkscape:window-x="-8"
     inkscape:window-y="-8"
     inkscape:window-maximized="1"
     inkscape:grid-bbox="true" />
  <defs
     id="defs20207" />
  <metadata
     id="metadata20210">
    <rdf:RDF>
      <cc:Work
         rdf:about="">
        <dc:format>image/svg+xml</dc:format>
        <dc:type
           rdf:resource="http://purl.org/dc/dcmitype/StillImage" />
        <dc:title />
      </cc:Work>
    </rdf:RDF>
  </metadata>
  <g
     id="layer1"
     inkscape:groupmode="layer"
     inkscape:label="Layer 1">
    <g
       id="g30066"
       transform="matrix(1.3333333,0,0,-1.3333333,13.014,14.588667)">
      <path
         d="M 0,0 C 0.652,0 1.182,0.528 1.182,1.181 V 8.702 C 1.182,9.354 0.652,9.883 0,9.883 h -7.521 c -0.653,0 -1.182,-0.529 -1.182,-1.181 V 1.181 C -8.703,0.528 -8.174,0 -7.521,0 Z"
         style="fill:#231f20;fill-opacity:1;fill-rule:nonzero;stroke:none"
         id="path30068"
         inkscape:connector-curvature="0" />
    </g>
    <g
       id="g30070"
       transform="matrix(1.3333333,0,0,-1.3333333,2.985334,1.6778665)">
      <path
         d="m 0,0 c -0.542,0 -0.981,-0.44 -0.981,-0.981 v -7.521 c 0,-0.541 0.439,-0.981 0.981,-0.981 h 7.521 c 0.542,0 0.982,0.44 0.982,0.981 v 7.521 C 8.503,-0.44 8.063,0 7.521,0 Z"
         style="fill:#ffffff;fill-opacity:1;fill-rule:nonzero;stroke:none"
         id="path30072"
         inkscape:connector-curvature="0" />
    </g>
    <path
       style="stroke-width:0.0179137"
       fill="param(fill)"
       fill-opacity="param(fill-opacity)"
       stroke="param(outline)"
       stroke-opacity="param(outline-opacity)"
       d="m 12.243565,8.4280647 c 0.105864,-0.3504036 0.214379,-0.7782836 0.356716,-1.1154929 0.08133,-0.1546396 0.09628,-0.3112313 0.03072,-0.3129042 -0.01089,-2.788e-4 -0.05658,0.017931 -0.103455,0.041298 -0.04687,0.02339 -0.168976,0.083878 -0.26888,0.1326003 -0.0999,0.048722 -0.22155,0.1249165 -0.270505,0.1709975 C 11.696511,7.5508995 11.38061,7.6509888 11.025805,7.6347777 10.629248,7.5490412 10.115378,7.4818155 9.7191429,7.18987 9.1100966,6.8363957 9.0576605,6.8087371 8.8047463,6.7123887 8.6672356,6.6599992 8.5492085,6.6104949 8.5428653,6.6030515 c -0.00631,-0.00743 0.027986,-0.051905 0.07597,-0.099458 C 8.6668034,6.4560453 8.7021365,6.392545 8.6969632,6.3634381 8.6917689,6.3343151 8.5465374,6.2544877 8.3747326,6.1837301 8.1745764,6.1012846 7.9842025,5.9775797 7.8445192,5.840584 7.7321125,5.7303521 7.6158461,5.6484104 7.5756354,5.6498238 c -0.0026,8.91e-5 -0.00504,7.767e-4 -0.00697,0.00192 C 7.5369649,5.6652678 7.3684229,5.866221 7.1941683,6.098988 L 6.8767944,6.5218091 6.647245,6.5404365 C 5.5973898,6.6777324 4.7415332,7.1419808 3.9536095,7.8885703 3.7902685,8.0749041 3.17476,8.6936024 3.2127112,8.8435484 c 0.013036,0.015026 0.1593877,-0.00387 0.3206074,0.018627 0.3021434,0.042096 0.7651437,0.1058596 0.7624571,0.1738986 -0.00147,0.035357 -0.2611947,0.069252 -0.7360569,0.1343508 -0.4070837,0.055833 -0.4033931,0.1483114 0.011878,0.3065028 0.4970546,0.1893848 1.1503985,0.3074702 2.2065315,0.224503 0.012027,1.548e-4 0.023981,-2.03e-5 0.035971,-2.03e-5 0.2729715,0.2867036 0.6252056,0.5500257 0.8998632,0.5692537 0.7209874,0.0505 0.4960872,-0.3299179 0.4653791,-0.8128126 C 7.4522788,9.3773844 7.7242646,9.2902457 8.0019044,9.2187062 8.0538204,9.2159962 8.206508,9.1690702 8.3402939,9.113443 9.1463523,8.8647827 9.8092506,8.6207189 10.468693,8.6941216 c 0.609309,0.033692 1.01508,0.4804942 1.495806,0.8025915 0.01987,3.881e-4 0.142457,0.086073 0.27157,0.1901829 0.351338,0.2832949 0.44064,0.2431115 0.302833,-0.1349277 -0.113214,-0.3105764 -0.299244,-1.0179939 -0.295315,-1.123683 z m -7.870199,0.037798 c -0.087817,0 -0.1589611,-0.076773 -0.1589611,-0.171575 0,-0.094804 0.071126,-0.1715712 0.1589611,-0.1715712 0.087832,0 0.1589605,0.076768 0.1589605,0.1715712 0,0.094802 -0.07114,0.171575 -0.1589605,0.171575 z"
       id="path4497"
       inkscape:connector-curvature="0" />
  </g>
</svg>
