<?xml version="1.0" encoding="UTF-8" standalone="no"?>
<!-- Created with Inkscape (http://www.inkscape.org/) -->

<svg
   xmlns:dc="http://purl.org/dc/elements/1.1/"
   xmlns:cc="http://creativecommons.org/ns#"
   xmlns:rdf="http://www.w3.org/1999/02/22-rdf-syntax-ns#"
   xmlns:svg="http://www.w3.org/2000/svg"
   xmlns="http://www.w3.org/2000/svg"
   xmlns:sodipodi="http://sodipodi.sourceforge.net/DTD/sodipodi-0.dtd"
   xmlns:inkscape="http://www.inkscape.org/namespaces/inkscape"
   width="16px"
   height="16px"
   viewBox="0 0 16 16"
   version="1.1"
   id="SVGRoot"
   inkscape:version="0.92.1 r15371"
   sodipodi:docname="Fish hatchery.svg">
  <sodipodi:namedview
     id="base"
     pagecolor="#ffffff"
     bordercolor="#666666"
     borderopacity="1.0"
     inkscape:pageopacity="0.0"
     inkscape:pageshadow="2"
     inkscape:zoom="16"
     inkscape:cx="8"
     inkscape:cy="8"
     inkscape:document-units="px"
     inkscape:current-layer="layer1"
     showgrid="false"
     inkscape:window-width="681"
     inkscape:window-height="696"
     inkscape:window-x="676"
     inkscape:window-y="0"
     inkscape:window-maximized="0"
     inkscape:grid-bbox="true" />
  <defs
     id="defs20207" />
  <metadata
     id="metadata20210">
    <rdf:RDF>
      <cc:Work
         rdf:about="">
        <dc:format>image/svg+xml</dc:format>
        <dc:type
           rdf:resource="http://purl.org/dc/dcmitype/StillImage" />
        <dc:title></dc:title>
      </cc:Work>
    </rdf:RDF>
  </metadata>
  <g
     id="layer1"
     inkscape:groupmode="layer"
     inkscape:label="Layer 1">
    <g
       id="g11783"
       transform="matrix(1.3333333,0,0,-1.3333333,13.077167,14.838667)">
      <path
         d="M 0,0 C 0.652,0 1.18,0.527 1.18,1.18 V 8.701 C 1.18,9.354 0.652,9.883 0,9.883 h -7.521 c -0.652,0 -1.181,-0.529 -1.181,-1.182 V 1.18 C -8.702,0.527 -8.173,0 -7.521,0 Z"
         style="fill:#231f20;fill-opacity:1;fill-rule:nonzero;stroke:none"
         id="path11785"
         inkscape:connector-curvature="0" />
    </g>
    <g
       id="g11787"
       transform="matrix(1.3333333,0,0,-1.3333333,3.0498269,1.9285265)">
      <path
         d="m 0,0 c -0.541,0 -0.981,-0.441 -0.981,-0.982 v -7.521 c 0,-0.54 0.44,-0.98 0.981,-0.98 h 7.521 c 0.54,0 0.979,0.44 0.979,0.98 v 7.521 C 8.5,-0.441 8.061,0 7.521,0 Z"
         style="fill:#ffffff;fill-opacity:1;fill-rule:nonzero;stroke:none"
         id="path11789"
         inkscape:connector-curvature="0" />
    </g>
    <g
       id="g11791"
       transform="matrix(1.3333333,0,0,-1.3333333,4.5940969,6.2566665)">
      <path
         d="M 0,0 C 0.145,0 0.268,0.12 0.268,0.266 0.268,0.411 0.145,0.531 0,0.531 -0.145,0.531 -0.268,0.411 -0.268,0.266 -0.268,0.12 -0.145,0 0,0 m -1.361,-0.392 v 0 c -0.004,0.004 -0.008,0.012 -0.008,0.02 0,0.015 0.014,0.027 0.029,0.027 h 0.848 c 0.041,0 0.074,0.033 0.074,0.074 0,0.032 -0.014,0.053 -0.045,0.071 L -1.23,0.165 c -0.014,0.008 -0.024,0.023 -0.024,0.043 0,0.014 0.004,0.025 0.014,0.035 0,0 2.013,1.779 6.471,0.055 l 1.225,0.597 c 0.012,0.006 0.025,0.01 0.039,0.01 0.053,0 0.096,-0.043 0.096,-0.096 0,-0.017 -0.006,-0.033 -0.014,-0.048 L 5.855,-0.138 6.577,-1.034 c 0.008,-0.016 0.014,-0.032 0.014,-0.051 0,-0.051 -0.043,-0.094 -0.096,-0.094 -0.014,0 -0.027,0.004 -0.039,0.01 l -1.225,0.598 c 0,0 -4.261,-1.694 -6.592,0.179"
         style="fill:#231f20;fill-opacity:1;fill-rule:nonzero;stroke:none"
         id="path11793"
         inkscape:connector-curvature="0" />
    </g>
    <g
       id="g11795"
       transform="matrix(1.3333333,0,0,-1.3333333,4.1826269,9.6369265)">
      <path
         d="M 0,0 C 0.085,0 0.158,0.068 0.158,0.155 0.158,0.24 0.085,0.311 0,0.311 -0.083,0.311 -0.156,0.24 -0.156,0.155 -0.156,0.068 -0.083,0 0,0 m -0.604,-0.089 v 0 c -0.001,0.002 -0.003,0.006 -0.003,0.008 0,0.008 0.005,0.012 0.013,0.012 h 0.338 c 0.016,0 0.029,0.013 0.029,0.029 0,0.014 -0.005,0.022 -0.017,0.027 l -0.307,0.147 c -0.006,0.004 -0.01,0.01 -0.01,0.017 0,0.006 0.002,0.012 0.006,0.014 0,0 0.805,0.713 2.587,0.021 l 0.49,0.241 c 0.004,0.002 0.01,0.004 0.016,0.004 0.022,0 0.037,-0.018 0.037,-0.037 0,-0.008 -0.002,-0.016 -0.004,-0.02 L 2.282,0.015 2.571,-0.345 c 0.002,-0.006 0.004,-0.013 0.004,-0.019 0,-0.022 -0.015,-0.039 -0.037,-0.039 -0.006,0 -0.012,0.002 -0.016,0.004 l -0.49,0.24 c 0,0 -1.702,-0.678 -2.636,0.07"
         style="fill:#231f20;fill-opacity:1;fill-rule:nonzero;stroke:none"
         id="path11797"
         inkscape:connector-curvature="0" />
    </g>
    <g
       id="g11799"
       transform="matrix(1.3333333,0,0,-1.3333333,9.5068969,9.6369265)">
      <path
         d="M 0,0 C 0.083,0 0.154,0.068 0.154,0.155 0.154,0.24 0.083,0.311 0,0.311 -0.089,0.311 -0.154,0.24 -0.154,0.155 -0.154,0.068 -0.089,0 0,0 m -0.604,-0.089 v 0 c -0.003,0.002 -0.003,0.006 -0.003,0.008 0,0.008 0.005,0.012 0.011,0.012 h 0.338 c 0.018,0 0.031,0.013 0.031,0.029 0,0.014 -0.005,0.022 -0.019,0.027 l -0.307,0.147 c -0.006,0.004 -0.009,0.01 -0.009,0.017 0,0.006 0.001,0.012 0.005,0.014 0,0 0.807,0.713 2.59,0.021 l 0.488,0.241 c 0.006,0.002 0.012,0.004 0.018,0.004 0.02,0 0.037,-0.018 0.037,-0.037 0,-0.008 -0.002,-0.016 -0.006,-0.02 L 2.281,0.015 2.57,-0.345 c 0.004,-0.006 0.006,-0.013 0.006,-0.019 0,-0.022 -0.017,-0.039 -0.037,-0.039 -0.006,0 -0.012,0.002 -0.018,0.004 l -0.488,0.24 c 0,0 -1.705,-0.678 -2.637,0.07"
         style="fill:#231f20;fill-opacity:1;fill-rule:nonzero;stroke:none"
         id="path11801"
         inkscape:connector-curvature="0" />
    </g>
    <g
       id="g11803"
       transform="matrix(1.3333333,0,0,-1.3333333,6.8635669,11.626527)">
      <path
         d="M 0,0 C 0.085,0 0.155,0.068 0.155,0.155 0.155,0.239 0.085,0.311 0,0.311 -0.087,0.311 -0.157,0.239 -0.157,0.155 -0.157,0.068 -0.087,0 0,0 m -0.605,-0.089 v 0 c -0.002,0.002 -0.002,0.004 -0.002,0.008 0,0.006 0.003,0.012 0.011,0.012 h 0.338 c 0.018,0 0.031,0.013 0.031,0.029 0,0.012 -0.005,0.021 -0.019,0.027 l -0.307,0.147 c -0.006,0.004 -0.009,0.01 -0.009,0.017 0,0.006 0.001,0.01 0.005,0.014 0,0 0.807,0.713 2.59,0.022 l 0.488,0.24 c 0.006,0.002 0.012,0.004 0.016,0.004 0.022,0 0.039,-0.018 0.039,-0.039 0,-0.006 -0.002,-0.014 -0.006,-0.02 L 2.281,0.013 2.57,-0.347 c 0.004,-0.006 0.006,-0.011 0.006,-0.019 0,-0.02 -0.017,-0.037 -0.039,-0.037 -0.004,0 -0.01,0.002 -0.016,0.004 l -0.488,0.238 c 0,0 -1.705,-0.678 -2.638,0.072"
         style="fill:#231f20;fill-opacity:1;fill-rule:nonzero;stroke:none"
         id="path11805"
         inkscape:connector-curvature="0" />
    </g>
  </g>
</svg>
