<?xml version="1.0" encoding="UTF-8" standalone="no"?>
<!-- Created with Inkscape (http://www.inkscape.org/) -->

<svg
   xmlns:dc="http://purl.org/dc/elements/1.1/"
   xmlns:cc="http://creativecommons.org/ns#"
   xmlns:rdf="http://www.w3.org/1999/02/22-rdf-syntax-ns#"
   xmlns:svg="http://www.w3.org/2000/svg"
   xmlns="http://www.w3.org/2000/svg"
   xmlns:sodipodi="http://sodipodi.sourceforge.net/DTD/sodipodi-0.dtd"
   xmlns:inkscape="http://www.inkscape.org/namespaces/inkscape"
   width="16px"
   height="16px"
   viewBox="0 0 16 16"
   version="1.1"
   id="SVGRoot"
   inkscape:version="0.92.1 r15371"
   sodipodi:docname="Fishing custom.svg">
  <sodipodi:namedview
     id="base"
     pagecolor="#ffffff"
     bordercolor="#666666"
     borderopacity="1.0"
     inkscape:pageopacity="0.0"
     inkscape:pageshadow="2"
     inkscape:zoom="16"
     inkscape:cx="8"
     inkscape:cy="8"
     inkscape:document-units="px"
     inkscape:current-layer="layer1"
     showgrid="false"
     inkscape:window-width="1366"
     inkscape:window-height="705"
     inkscape:window-x="-8"
     inkscape:window-y="-8"
     inkscape:window-maximized="1"
     inkscape:grid-bbox="true" />
  <defs
     id="defs20207" />
  <metadata
     id="metadata20210">
    <rdf:RDF>
      <cc:Work
         rdf:about="">
        <dc:format>image/svg+xml</dc:format>
        <dc:type
           rdf:resource="http://purl.org/dc/dcmitype/StillImage" />
        <dc:title />
      </cc:Work>
    </rdf:RDF>
  </metadata>
  <g
     id="layer1"
     inkscape:groupmode="layer"
     inkscape:label="Layer 1">
    <g
       id="g30066"
       transform="matrix(1.3333333,0,0,-1.3333333,13.014,14.588667)">
      <path
         d="M 0,0 C 0.652,0 1.182,0.528 1.182,1.181 V 8.702 C 1.182,9.354 0.652,9.883 0,9.883 h -7.521 c -0.653,0 -1.182,-0.529 -1.182,-1.181 V 1.181 C -8.703,0.528 -8.174,0 -7.521,0 Z"
         style="fill:#231f20;fill-opacity:1;fill-rule:nonzero;stroke:none"
         id="path30068"
         inkscape:connector-curvature="0" />
    </g>
    <g
       id="g30070"
       transform="matrix(1.3333333,0,0,-1.3333333,2.985334,1.6778665)">
      <path
         d="m 0,0 c -0.542,0 -0.981,-0.44 -0.981,-0.981 v -7.521 c 0,-0.541 0.439,-0.981 0.981,-0.981 h 7.521 c 0.542,0 0.982,0.44 0.982,0.981 v 7.521 C 8.503,-0.44 8.063,0 7.521,0 Z"
         style="fill:#ffffff;fill-opacity:1;fill-rule:nonzero;stroke:none"
         id="path30072"
         inkscape:connector-curvature="0" />
    </g>
    <path
       style="stroke-width:0.02035647"
       fill="param(fill)"
       fill-opacity="param(fill-opacity)"
       stroke="param(outline)"
       stroke-opacity="param(outline-opacity)"
       d="m 12.830204,8.4915523 c 0.120306,-0.3981858 0.243613,-0.8844131 0.405359,-1.2676055 0.09243,-0.1757268 0.109414,-0.353672 0.03491,-0.355573 -0.01234,-3.168e-4 -0.0643,0.020376 -0.117568,0.04693 -0.05326,0.02658 -0.192018,0.095316 -0.305545,0.1506822 C 12.733833,7.121352 12.595598,7.2079366 12.539967,7.2603014 12.208556,7.4947742 11.849577,7.608512 11.44639,7.5900904 10.995753,7.492662 10.41181,7.4162692 9.961543,7.084513 9.2694449,6.6828376 9.2098585,6.6514073 8.922456,6.5419206 8.7661938,6.482387 8.6320721,6.4261321 8.6248639,6.4176737 c -0.00717,-0.00844 0.031803,-0.058983 0.08633,-0.1130205 0.054509,-0.054032 0.09466,-0.1261918 0.088781,-0.159268 C 8.7940726,6.1122915 8.6290367,6.0215785 8.4338041,5.9411721 8.2063538,5.8474841 7.9900198,5.7069104 7.8312888,5.5512334 7.7035539,5.4259699 7.5714329,5.3328543 7.5257391,5.3344605 c -0.00295,1.012e-4 -0.00573,8.826e-4 -0.00793,0.00219 -0.036019,0.015363 -0.2275438,0.2437184 -0.4255604,0.5082264 L 6.7316016,6.3253529 6.4707499,6.3465203 C 5.2777327,6.5025384 4.3051683,7.0300934 3.4098004,7.8784906 3.2241857,8.0902335 2.5247442,8.7932997 2.5678706,8.963693 2.5826846,8.980768 2.748993,8.959293 2.9321972,8.984861 3.275542,9.032697 3.8016787,9.105156 3.7986257,9.182473 3.7969457,9.222652 3.5018136,9.261168 2.9621974,9.3351444 2.4996023,9.3985904 2.5037962,9.50368 2.9756954,9.683443 c 0.5648348,0.21521 1.3072711,0.349398 2.5074222,0.255117 0.013668,1.76e-4 0.027251,-2.3e-5 0.040876,-2.3e-5 0.3101946,0.325799 0.7104606,0.625028 1.0225716,0.646878 0.8193039,0.05739 0.5637354,-0.374906 0.5288399,-0.92365 0.3101558,-0.09144 0.6192306,-0.190461 0.9347304,-0.2717559 0.058996,-0.00308 0.2325041,-0.056405 0.3845336,-0.1196172 0.9159753,-0.2825687 1.6692689,-0.5599138 2.4186359,-0.4765017 0.692396,0.038286 1.1535,0.5460162 1.69978,0.9120358 0.02257,4.41e-4 0.161882,0.09781 0.308601,0.216117 0.399249,0.321926 0.500727,0.276263 0.344129,-0.153327 C 13.037162,9.4157879 12.825764,8.6119044 12.83023,8.4918031 Z m -8.9434074,0.042952 c -0.099792,0 -0.1806377,-0.087242 -0.1806377,-0.1949716 0,-0.1077307 0.080825,-0.1949672 0.1806377,-0.1949672 0.099809,0 0.1806368,0.087236 0.1806368,0.1949672 0,0.1077307 -0.080841,0.1949716 -0.1806368,0.1949716 z"
       id="path4497"
       inkscape:connector-curvature="0" />
  </g>
</svg>
