<?xml version="1.0" encoding="UTF-8" standalone="no"?>
<!-- Created with Inkscape (http://www.inkscape.org/) -->

<svg
   xmlns:dc="http://purl.org/dc/elements/1.1/"
   xmlns:cc="http://creativecommons.org/ns#"
   xmlns:rdf="http://www.w3.org/1999/02/22-rdf-syntax-ns#"
   xmlns:svg="http://www.w3.org/2000/svg"
   xmlns="http://www.w3.org/2000/svg"
   xmlns:sodipodi="http://sodipodi.sourceforge.net/DTD/sodipodi-0.dtd"
   xmlns:inkscape="http://www.inkscape.org/namespaces/inkscape"
   width="16px"
   height="16px"
   viewBox="0 0 16 16"
   version="1.1"
   id="SVGRoot"
   inkscape:version="0.92.1 r15371"
   sodipodi:docname="Hand boat launch.svg">
  <sodipodi:namedview
     id="base"
     pagecolor="#ffffff"
     bordercolor="#666666"
     borderopacity="1.0"
     inkscape:pageopacity="0.0"
     inkscape:pageshadow="2"
     inkscape:zoom="16"
     inkscape:cx="8"
     inkscape:cy="8"
     inkscape:document-units="px"
     inkscape:current-layer="layer1"
     showgrid="false"
     inkscape:window-width="681"
     inkscape:window-height="696"
     inkscape:window-x="676"
     inkscape:window-y="0"
     inkscape:window-maximized="0"
     inkscape:grid-bbox="true" />
  <defs
     id="defs20207" />
  <metadata
     id="metadata20210">
    <rdf:RDF>
      <cc:Work
         rdf:about="">
        <dc:format>image/svg+xml</dc:format>
        <dc:type
           rdf:resource="http://purl.org/dc/dcmitype/StillImage" />
        <dc:title></dc:title>
      </cc:Work>
    </rdf:RDF>
  </metadata>
  <g
     id="layer1"
     inkscape:groupmode="layer"
     inkscape:label="Layer 1">
    <g
       id="g13415"
       transform="matrix(1.3333333,0,0,-1.3333333,13.016,14.592)">
      <path
         d="M 0,0 C 0.652,0 1.182,0.529 1.182,1.182 V 8.706 C 1.182,9.358 0.652,9.888 0,9.888 h -7.524 c -0.655,0 -1.182,-0.53 -1.182,-1.182 V 1.182 C -8.706,0.529 -8.179,0 -7.524,0 Z"
         style="fill:#231f20;fill-opacity:1;fill-rule:nonzero;stroke:none"
         id="path13417"
         inkscape:connector-curvature="0" />
    </g>
    <g
       id="g13419"
       transform="matrix(1.3333333,0,0,-1.3333333,2.9834696,1.6753295)">
      <path
         d="m 0,0 c -0.541,0 -0.981,-0.44 -0.981,-0.981 v -7.525 c 0,-0.541 0.44,-0.981 0.981,-0.981 h 7.524 c 0.541,0 0.982,0.44 0.982,0.981 v 7.525 C 8.506,-0.44 8.065,0 7.524,0 Z"
         style="fill:#ffffff;fill-opacity:1;fill-rule:nonzero;stroke:none"
         id="path13421"
         inkscape:connector-curvature="0" />
    </g>
    <g
       id="g13423"
       transform="matrix(1.3333333,0,0,-1.3333333,6.8831996,4.5477295)">
      <path
         d="M 0,0 C 0.271,0.025 0.469,0.268 0.443,0.536 0.416,0.808 0.176,1.007 -0.096,0.979 -0.367,0.954 -0.564,0.712 -0.539,0.44 -0.512,0.172 -0.271,-0.027 0,0"
         style="fill:#231f20;fill-opacity:1;fill-rule:nonzero;stroke:none"
         id="path13425"
         inkscape:connector-curvature="0" />
    </g>
    <g
       id="g13427"
       transform="matrix(1.3333333,0,0,-1.3333333,8.1905296,6.5737295)">
      <path
         d="m 0,0 -1.266,1.404 c -0.017,0.02 -0.05,0.051 -0.074,0.065 -0.166,0.136 -0.408,0.164 -0.603,0.045 L -3.112,0.799 C -3.267,0.705 -3.356,0.543 -3.364,0.375 c -0.004,-0.033 -0.002,-0.066 0.006,-0.1 0,-0.002 0.002,-0.004 0.002,-0.005 0.004,-0.022 0.005,-0.043 0.015,-0.063 V 0.205 C -3.329,0.162 -3.311,0.119 -3.288,0.08 -3.282,0.072 -3.276,0.066 -3.27,0.059 l 0.283,-0.6 -0.612,-0.769 c -0.105,-0.132 -0.084,-0.326 0.051,-0.433 0.133,-0.106 0.326,-0.084 0.432,0.051 l 0.73,0.917 c 0.01,0.013 0.014,0.027 0.022,0.041 0.012,0.019 0.023,0.037 0.029,0.058 0.006,0.02 0.008,0.039 0.01,0.059 0.002,0.019 0.006,0.039 0.004,0.058 -0.002,0.022 -0.01,0.043 -0.016,0.065 v 0.002 c 0.166,-0.123 0.323,-0.241 0.4,-0.297 -0.004,-0.245 -0.022,-1.175 -0.022,-1.177 0,-0.168 0.133,-0.305 0.303,-0.308 0.17,-0.002 0.31,0.132 0.314,0.302 l 0.024,1.331 c 0.002,0.1 -0.043,0.194 -0.125,0.254 l -0.724,0.537 0.892,0.549 0.918,-1.021 c 0.088,-0.1 0.24,-0.108 0.339,-0.018 C 0.082,-0.25 0.09,-0.098 0,0"
         style="fill:#231f20;fill-opacity:1;fill-rule:nonzero;stroke:none"
         id="path13429"
         inkscape:connector-curvature="0" />
    </g>
    <g
       id="g13431"
       transform="matrix(1.3333333,0,0,-1.3333333,2.8845296,13.23266)">
      <path
         d="M 0,0 C 0.172,0 0.336,0.037 0.484,0.103 0.635,0.174 0.805,0.215 0.98,0.215 1.158,0.215 1.328,0.174 1.479,0.103 1.625,0.037 1.791,0 1.962,0 2.134,0 2.298,0.037 2.444,0.103 2.595,0.174 2.765,0.215 2.942,0.215 3.12,0.215 3.29,0.174 3.44,0.103 3.587,0.037 3.753,0 3.925,0 4.097,0 4.261,0.037 4.407,0.103 4.558,0.174 4.728,0.215 4.905,0.215 5.083,0.215 5.253,0.174 5.403,0.103 5.55,0.037 5.716,0 5.888,0 6.058,0 6.224,0.037 6.37,0.103 6.52,0.174 6.69,0.215 6.868,0.215 7.046,0.215 7.216,0.174 7.366,0.103 7.513,0.037 7.679,0 7.851,0 V 0.725 C 7.679,0.725 7.513,0.762 7.366,0.828 7.216,0.897 7.046,0.939 6.868,0.939 6.69,0.939 6.52,0.897 6.37,0.828 6.224,0.762 6.058,0.725 5.888,0.725 5.716,0.725 5.55,0.762 5.403,0.828 5.253,0.897 5.083,0.939 4.905,0.939 4.728,0.939 4.558,0.897 4.407,0.828 4.261,0.762 4.097,0.725 3.925,0.725 3.753,0.725 3.587,0.762 3.44,0.828 3.29,0.897 3.12,0.939 2.942,0.939 2.765,0.939 2.595,0.897 2.444,0.828 2.298,0.762 2.134,0.725 1.962,0.725 1.791,0.725 1.625,0.762 1.479,0.828 1.328,0.897 1.158,0.939 0.98,0.939 0.805,0.939 0.635,0.897 0.484,0.828 0.336,0.762 0.172,0.725 0,0.725 Z"
         style="fill:#231f20;fill-opacity:1;fill-rule:nonzero;stroke:none"
         id="path13433"
         inkscape:connector-curvature="0" />
    </g>
    <g
       id="g13435"
       transform="matrix(1.3333333,0,0,-1.3333333,2.8845296,11.46573)">
      <path
         d="M 0,0 C 0.129,0 0.256,0.029 0.375,0.082 0.564,0.17 0.773,0.217 0.98,0.217 1.189,0.217 1.395,0.172 1.584,0.084 1.703,0.029 1.834,0 1.962,0 2.091,0 2.218,0.029 2.337,0.082 2.526,0.17 2.735,0.217 2.942,0.217 3.149,0.217 3.358,0.17 3.546,0.084 3.665,0.029 3.796,0 3.925,0 4.054,0 4.181,0.029 4.3,0.082 4.423,0.139 4.556,0.178 4.688,0.197 L 4.028,0.674 3.075,0.699 2.405,1.162 1.145,1.65 -0.029,1.805 -0.021,0 Z"
         style="fill:#231f20;fill-opacity:1;fill-rule:nonzero;stroke:none"
         id="path13437"
         inkscape:connector-curvature="0" />
    </g>
    <g
       id="g13439"
       transform="matrix(1.3333333,0,0,-1.3333333,10.61507,8.4734595)">
      <path
         d="M 0,0 C 0,0.062 0.049,0.111 0.111,0.111 0.172,0.111 0.223,0.062 0.223,0 0.223,-0.061 0.172,-0.111 0.111,-0.111 0.049,-0.111 0,-0.061 0,0 m 1.895,-1.051 -1.737,0.826 c 0.108,0.022 0.19,0.112 0.19,0.225 0,0.131 -0.106,0.236 -0.237,0.236 -0.131,0 -0.236,-0.105 -0.236,-0.236 0,-0.037 0.012,-0.072 0.027,-0.104 l -1.754,0.833 c -0.283,0.135 -0.615,0.02 -0.757,-0.254 l 4.783,-2.274 c 0.123,0.283 0.002,0.615 -0.279,0.748"
         style="fill:#231f20;fill-opacity:1;fill-rule:nonzero;stroke:none"
         id="path13441"
         inkscape:connector-curvature="0" />
    </g>
    <g
       id="g13443"
       transform="matrix(1.3333333,0,0,-1.3333333,7.0602696,8.0671995)">
      <path
         d="m 0,0 c -0.041,-0.248 0.08,-0.502 0.318,-0.615 l 3.746,-1.781 c 0.239,-0.114 0.514,-0.047 0.678,0.14 z"
         style="fill:#231f20;fill-opacity:1;fill-rule:nonzero;stroke:none"
         id="path13445"
         inkscape:connector-curvature="0" />
    </g>
  </g>
</svg>
