<?xml version="1.0" encoding="UTF-8" standalone="no"?>
<!-- Created with Inkscape (http://www.inkscape.org/) -->

<svg
   xmlns:dc="http://purl.org/dc/elements/1.1/"
   xmlns:cc="http://creativecommons.org/ns#"
   xmlns:rdf="http://www.w3.org/1999/02/22-rdf-syntax-ns#"
   xmlns:svg="http://www.w3.org/2000/svg"
   xmlns="http://www.w3.org/2000/svg"
   xmlns:sodipodi="http://sodipodi.sourceforge.net/DTD/sodipodi-0.dtd"
   xmlns:inkscape="http://www.inkscape.org/namespaces/inkscape"
   width="16px"
   height="16px"
   viewBox="0 0 16 16"
   version="1.1"
   id="SVGRoot"
   inkscape:version="0.92.1 r15371"
   sodipodi:docname="Horseback riding.svg">
  <sodipodi:namedview
     id="base"
     pagecolor="#ffffff"
     bordercolor="#666666"
     borderopacity="1.0"
     inkscape:pageopacity="0.0"
     inkscape:pageshadow="2"
     inkscape:zoom="22.627417"
     inkscape:cx="6.359375"
     inkscape:cy="4.313125"
     inkscape:document-units="px"
     inkscape:current-layer="layer1"
     showgrid="false"
     inkscape:window-width="681"
     inkscape:window-height="696"
     inkscape:window-x="676"
     inkscape:window-y="0"
     inkscape:window-maximized="0"
     inkscape:grid-bbox="true" />
  <defs
     id="defs20207">
    <pattern
       y="0"
       x="0"
       height="6"
       width="6"
       patternUnits="userSpaceOnUse"
       id="EMFhbasepattern" />
  </defs>
  <metadata
     id="metadata20210">
    <rdf:RDF>
      <cc:Work
         rdf:about="">
        <dc:format>image/svg+xml</dc:format>
        <dc:type
           rdf:resource="http://purl.org/dc/dcmitype/StillImage" />
        <dc:title></dc:title>
      </cc:Work>
    </rdf:RDF>
  </metadata>
  <g
     id="layer1"
     inkscape:groupmode="layer"
     inkscape:label="Layer 1">
    <g
       transform="matrix(1.0666666,0,0,1.0666666,2.2358008,-293.18671)"
       style="overflow:visible"
       id="g6905">
      <path
         d="m 9.246,287.222 c 0.652,0 1.182,-0.527 1.182,-1.18 v -7.522 c 0,-0.652 -0.529,-1.181 -1.182,-1.181 H 1.724 c -0.652,0 -1.18,0.528 -1.18,1.181 v 7.522 c 0,0.652 0.527,1.18 1.18,1.18 z"
         id="path6907"
         inkscape:connector-curvature="0" />
      <path
         d="m 1.724,277.539 c -0.54,0 -0.979,0.44 -0.979,0.98 v 7.522 c 0,0.54 0.439,0.979 0.979,0.979 h 7.521 c 0.542,0 0.981,-0.439 0.981,-0.979 v -7.522 c 0,-0.541 -0.44,-0.98 -0.981,-0.98 z"
         id="path6909"
         inkscape:connector-curvature="0"
         style="fill:#ffffff" />
      <circle
         cx="4.7049999"
         cy="278.72699"
         r="0.56699997"
         id="circle6911" />
      <path
         d="m 8.921,280.929 -0.602,-0.115 -0.35,0.695 c 0.057,0.014 0.115,0.02 0.176,0.02 0.374,-10e-4 0.687,-0.255 0.776,-0.6 z m -7.388,1.174 c 0,-0.461 0.373,-0.836 0.834,-0.836 h 1.76 v -1.264 c 0,-0.314 0.254,-0.568 0.568,-0.568 0.314,0 0.568,0.254 0.568,0.568 v 0.195 l 0.838,0.215 c 0.146,0.033 0.24,0.18 0.207,0.326 -0.033,0.148 -0.18,0.24 -0.328,0.207 l -0.717,-0.168 v 0.488 h 0.844 l 2.309,-2.389 -0.068,0.621 1.137,0.756 c 0.188,0.107 0.256,0.35 0.148,0.537 -0.084,0.15 -0.252,0.223 -0.41,0.193 l -0.092,-0.017 c -0.109,0.442 -0.51,0.769 -0.984,0.769 -0.094,0 -0.186,-0.014 -0.271,-0.037 l -0.861,1.76 v 2.414 c 0,0.207 -0.17,0.375 -0.377,0.375 -0.207,0 -0.375,-0.168 -0.375,-0.375 v -2.469 h -1.9 l -0.34,0.582 0.711,1.695 c 0.104,0.182 0.039,0.41 -0.141,0.512 -0.182,0.104 -0.41,0.039 -0.514,-0.142 l -0.83,-1.956 v -0.623 l -0.371,0.584 v 1.816 c 0,0.207 -0.168,0.375 -0.375,0.375 -0.207,0 -0.377,-0.168 -0.377,-0.375 v -2.098 l 0.311,-0.486 v -1.646 l -0.309,0.473 v 1.37 H 1.533 Z"
         id="path6913"
         inkscape:connector-curvature="0" />
    </g>
  </g>
</svg>
