<?xml version="1.0" encoding="UTF-8" standalone="no"?>
<!-- Created with Inkscape (http://www.inkscape.org/) -->

<svg
   xmlns:dc="http://purl.org/dc/elements/1.1/"
   xmlns:cc="http://creativecommons.org/ns#"
   xmlns:rdf="http://www.w3.org/1999/02/22-rdf-syntax-ns#"
   xmlns:svg="http://www.w3.org/2000/svg"
   xmlns="http://www.w3.org/2000/svg"
   xmlns:sodipodi="http://sodipodi.sourceforge.net/DTD/sodipodi-0.dtd"
   xmlns:inkscape="http://www.inkscape.org/namespaces/inkscape"
   width="16px"
   height="16px"
   viewBox="0 0 16 16"
   version="1.1"
   id="SVGRoot"
   inkscape:version="0.92.1 r15371"
   sodipodi:docname="Hospital.svg">
  <sodipodi:namedview
     id="base"
     pagecolor="#ffffff"
     bordercolor="#666666"
     borderopacity="1.0"
     inkscape:pageopacity="0.0"
     inkscape:pageshadow="2"
     inkscape:zoom="16"
     inkscape:cx="6.359375"
     inkscape:cy="4.313125"
     inkscape:document-units="px"
     inkscape:current-layer="layer1"
     showgrid="false"
     inkscape:window-width="681"
     inkscape:window-height="696"
     inkscape:window-x="676"
     inkscape:window-y="0"
     inkscape:window-maximized="0"
     inkscape:grid-bbox="true" />
  <defs
     id="defs20207">
    <pattern
       y="0"
       x="0"
       height="6"
       width="6"
       patternUnits="userSpaceOnUse"
       id="EMFhbasepattern" />
  </defs>
  <metadata
     id="metadata20210">
    <rdf:RDF>
      <cc:Work
         rdf:about="">
        <dc:format>image/svg+xml</dc:format>
        <dc:type
           rdf:resource="http://purl.org/dc/dcmitype/StillImage" />
        <dc:title></dc:title>
      </cc:Work>
    </rdf:RDF>
  </metadata>
  <g
     id="layer1"
     inkscape:groupmode="layer"
     inkscape:label="Layer 1">
    <g
       transform="matrix(1.0666666,0,0,1.0666666,2.282867,-306.72008)"
       style="overflow:visible"
       id="g6985">
      <path
         d="m 1.705,290.259 c -0.541,0 -0.98,0.44 -0.98,0.98 v 7.522 c 0,0.542 0.44,0.981 0.98,0.981 h 7.521 c 0.541,0 0.98,-0.44 0.98,-0.981 v -7.522 c 0,-0.541 -0.44,-0.98 -0.98,-0.98 z"
         id="path6987"
         inkscape:connector-curvature="0"
         style="fill:#ffffff" />
      <path
         d="m 9.246,299.945 c 0.653,0 1.184,-0.529 1.184,-1.184 v -7.539 c 0,-0.652 -0.53,-1.184 -1.184,-1.184 H 1.708 c -0.654,0 -1.184,0.531 -1.184,1.184 v 7.539 c 0,0.654 0.529,1.184 1.184,1.184 z"
         id="path6989"
         inkscape:connector-curvature="0"
         style="fill:#0089d0" />
      <path
         d="m 1.708,290.239 c -0.542,0 -0.983,0.441 -0.983,0.983 v 7.539 c 0,0.542 0.441,0.983 0.983,0.983 h 7.538 c 0.542,0 0.983,-0.441 0.983,-0.983 v -7.539 c 0,-0.542 -0.441,-0.983 -0.983,-0.983 z"
         id="path6991"
         inkscape:connector-curvature="0"
         style="fill:#ffffff" />
      <polygon
         points="4.159,298.078 4.159,295.333 6.812,295.333 6.812,298.078 8.141,298.078 8.141,291.908 6.812,291.908 6.812,294.007 4.159,294.007 4.159,291.908 2.831,291.908 2.831,298.078 "
         id="polygon6993"
         style="fill:#0089d0" />
    </g>
  </g>
</svg>
