<?xml version="1.0" encoding="UTF-8" standalone="no"?>
<!-- Created with Inkscape (http://www.inkscape.org/) -->

<svg
   xmlns:dc="http://purl.org/dc/elements/1.1/"
   xmlns:cc="http://creativecommons.org/ns#"
   xmlns:rdf="http://www.w3.org/1999/02/22-rdf-syntax-ns#"
   xmlns:svg="http://www.w3.org/2000/svg"
   xmlns="http://www.w3.org/2000/svg"
   xmlns:sodipodi="http://sodipodi.sourceforge.net/DTD/sodipodi-0.dtd"
   xmlns:inkscape="http://www.inkscape.org/namespaces/inkscape"
   width="16px"
   height="16px"
   viewBox="0 0 16 16"
   version="1.1"
   id="SVGRoot"
   inkscape:version="0.92.1 r15371"
   sodipodi:docname="Ice skating.svg">
  <sodipodi:namedview
     id="base"
     pagecolor="#ffffff"
     bordercolor="#666666"
     borderopacity="1.0"
     inkscape:pageopacity="0.0"
     inkscape:pageshadow="2"
     inkscape:zoom="16"
     inkscape:cx="8"
     inkscape:cy="8"
     inkscape:document-units="px"
     inkscape:current-layer="layer1"
     showgrid="false"
     inkscape:window-width="681"
     inkscape:window-height="696"
     inkscape:window-x="676"
     inkscape:window-y="0"
     inkscape:window-maximized="0"
     inkscape:grid-bbox="true" />
  <defs
     id="defs20207">
    <pattern
       y="0"
       x="0"
       height="6"
       width="6"
       patternUnits="userSpaceOnUse"
       id="EMFhbasepattern" />
  </defs>
  <metadata
     id="metadata20210">
    <rdf:RDF>
      <cc:Work
         rdf:about="">
        <dc:format>image/svg+xml</dc:format>
        <dc:type
           rdf:resource="http://purl.org/dc/dcmitype/StillImage" />
        <dc:title></dc:title>
      </cc:Work>
    </rdf:RDF>
  </metadata>
  <g
     id="layer1"
     inkscape:groupmode="layer"
     inkscape:label="Layer 1">
    <path
       id="path90"
       d="m 12.937463,14.724951 c 0.879994,0 1.599988,-0.719994 1.599988,-1.599988 V 3.125037 c 0,-0.879993 -0.719994,-1.599988 -1.599988,-1.599988 H 2.9375371 c -0.8799934,0 -1.5999881,0.719995 -1.5999881,1.599988 v 9.999926 c 0,0.879994 0.7199947,1.599988 1.5999881,1.599988 z"
       style="fill:#231f20;fill-opacity:1;fill-rule:nonzero;stroke:none"
       inkscape:connector-curvature="0" />
    <path
       id="path92"
       d="m 2.9375371,1.765047 c -0.7199946,0 -1.3599899,0.639995 -1.3599899,1.35999 v 9.999926 c 0,0.719995 0.6399953,1.35999 1.3599899,1.35999 h 9.9999259 c 0.719995,0 1.279991,-0.639995 1.279991,-1.35999 V 3.125037 c 0,-0.719995 -0.559996,-1.35999 -1.279991,-1.35999 z"
       style="fill:#ffffff;fill-opacity:1;fill-rule:nonzero;stroke:none"
       inkscape:connector-curvature="0" />
    <path
       id="path94"
       d="m 10.297483,2.485042 c -0.5599962,0 -0.9599933,0.479996 -0.9599933,0.959993 0,0.559996 0.3999971,0.959993 0.9599933,0.959993 0.559995,0 0.959993,-0.399997 0.959993,-0.959993 0,-0.479997 -0.399998,-0.959993 -0.959993,-0.959993 z"
       style="fill:#231f20;fill-opacity:1;fill-rule:nonzero;stroke:none"
       inkscape:connector-curvature="0" />
    <path
       id="path96"
       d="m 3.0175366,9.124993 c -0.08,-0.08 -0.2399983,-0.159999 -0.3999971,-0.08 -0.079999,0.08 -0.1599988,0.239998 -0.079999,0.399997 0.079999,0.159998 0.2399982,0.159998 0.399997,0.08 0.1599989,-0.08 0.1599989,-0.239999 0.079999,-0.399997 z"
       style="fill:#231f20;fill-opacity:1;fill-rule:nonzero;stroke:none"
       inkscape:connector-curvature="0" />
    <path
       id="path98"
       d="m 3.2575348,9.924987 c -0.079999,-0.08 -0.3199977,-0.159999 -0.3999971,-0.08 -0.1599988,0.08 -0.1599988,0.239999 -0.079999,0.399997 0.079999,0.159999 0.2399983,0.159999 0.3199977,0.08 0.1599988,-0.08 0.2399982,-0.239998 0.1599984,-0.399997 z"
       style="fill:#231f20;fill-opacity:1;fill-rule:nonzero;stroke:none"
       inkscape:connector-curvature="0" />
    <path
       id="path100"
       d="m 3.4175336,10.724981 c -0.079999,-0.159999 -0.2399982,-0.159999 -0.399997,-0.08 -0.1599989,0.08 -0.1599989,0.239999 -0.08,0.399997 0.08,0.08 0.2399983,0.159999 0.3999971,0.08 0.1599988,-0.08 0.1599988,-0.239998 0.08,-0.399996 z"
       style="fill:#231f20;fill-opacity:1;fill-rule:nonzero;stroke:none"
       inkscape:connector-curvature="0" />
    <path
       id="path102"
       d="m 3.5775324,11.524975 c -0.079999,-0.159999 -0.2399982,-0.159999 -0.3199976,-0.08 -0.1599988,0.08 -0.2399982,0.239999 -0.1599988,0.399998 0.079999,0.08 0.3199976,0.159998 0.399997,0.08 0.1599988,-0.08 0.2399982,-0.239998 0.079999,-0.399997 z"
       style="fill:#231f20;fill-opacity:1;fill-rule:nonzero;stroke:none"
       inkscape:connector-curvature="0" />
    <path
       id="path104"
       d="m 8.217498,13.124963 c -0.1599988,0.08 -0.2399982,0.239998 -0.1599988,0.319998 0,0.159999 0.2399982,0.239998 0.3199977,0.239998 0.1599988,-0.08 0.2399982,-0.239998 0.2399982,-0.399997 C 8.5374957,13.124963 8.3774969,13.044964 8.217498,13.124963 Z"
       style="fill:#231f20;fill-opacity:1;fill-rule:nonzero;stroke:none"
       inkscape:connector-curvature="0" />
    <path
       id="path106"
       d="m 9.0174921,13.124963 c -0.1599988,0.08 -0.2399982,0.239998 -0.1599988,0.319998 0.079999,0.159999 0.2399982,0.239998 0.399997,0.239998 0.079999,-0.08 0.1599988,-0.239998 0.1599988,-0.399997 -0.079999,-0.159999 -0.2399982,-0.239998 -0.399997,-0.159999 z"
       style="fill:#231f20;fill-opacity:1;fill-rule:nonzero;stroke:none"
       inkscape:connector-curvature="0" />
    <path
       id="path108"
       d="m 9.8174862,13.124963 c -0.079999,0.08 -0.1599988,0.239998 -0.1599988,0.319998 0.079999,0.159999 0.2399982,0.239998 0.3999966,0.239998 0.08,-0.08 0.239999,-0.239998 0.159999,-0.399997 -0.08,-0.159999 -0.239998,-0.239998 -0.3999968,-0.159999 z"
       style="fill:#231f20;fill-opacity:1;fill-rule:nonzero;stroke:none"
       inkscape:connector-curvature="0" />
    <path
       id="path110"
       d="m 10.69748,13.124963 c -0.159999,0.08 -0.239999,0.239998 -0.239999,0.399997 0.08,0.08 0.239999,0.159999 0.399997,0.159999 0.159999,-0.08 0.239999,-0.239998 0.159999,-0.399997 -0.08,-0.159999 -0.239998,-0.239998 -0.319997,-0.159999 z"
       style="fill:#231f20;fill-opacity:1;fill-rule:nonzero;stroke:none"
       inkscape:connector-curvature="0" />
    <path
       id="path112"
       d="M 12.617465,6.80501 H 10.937478 L 10.137484,5.045023 c 0,0 0,-0.08 0,-0.08 0,0 0,0 0,0 l -0.08,-0.08 v 0 c -0.08,-0.239999 -0.3999976,-0.479997 -0.7999947,-0.479997 0,0 -0.079999,0 -0.1599988,0 L 4.8575229,5.365019 c -0.2399982,0.08 -0.399997,0.319997 -0.3199976,0.559995 0,0.319998 0.3199976,0.479997 0.5599958,0.399997 L 7.8975004,5.605017 5.7375164,9.20499 H 4.2175277 v 0 H 3.497533 l 0.4799964,1.999985 c 0,0 0,0.08 0,0.08 0.08,0.08 0.2399983,0.159999 0.3999971,0.08 0,-0.08 0.079999,-0.08 0.079999,-0.159999 l 0.319998,-0.959992 v 0 c 0,0 1.3599899,0 1.4399894,0 0.2399982,0 0.4799964,-0.08 0.6399952,-0.319997 l 0.6399953,-1.119992 1.4399893,1.439989 -0.6399953,2.479982 h 2.1599836 c 0.159999,0 0.239999,-0.159999 0.239999,-0.239998 0,-0.159999 -0.08,-0.239998 -0.159999,-0.239998 L 9.6574874,11.684974 10.057484,10.004986 c 0,0 0.159999,-0.399997 -0.2399978,-0.719995 L 8.6974945,8.085 c 0,0 0.5599958,-1.039992 1.0399923,-1.679987 l 0.3999972,1.039992 c 0.08,0.08 0.159999,0.159999 0.239998,0.239998 0,0 0,0 0,0 0.08,0 0.159999,0.08 0.239998,0.08 h 1.999985 c 0.239999,0 0.479997,-0.239998 0.479997,-0.479996 0,-0.319998 -0.239998,-0.479997 -0.479997,-0.479996 z"
       style="fill:#231f20;fill-opacity:1;fill-rule:nonzero;stroke:none"
       inkscape:connector-curvature="0" />
  </g>
</svg>
