<?xml version="1.0" encoding="UTF-8" standalone="no"?>
<!-- Created with Inkscape (http://www.inkscape.org/) -->

<svg
   xmlns:dc="http://purl.org/dc/elements/1.1/"
   xmlns:cc="http://creativecommons.org/ns#"
   xmlns:rdf="http://www.w3.org/1999/02/22-rdf-syntax-ns#"
   xmlns:svg="http://www.w3.org/2000/svg"
   xmlns="http://www.w3.org/2000/svg"
   xmlns:sodipodi="http://sodipodi.sourceforge.net/DTD/sodipodi-0.dtd"
   xmlns:inkscape="http://www.inkscape.org/namespaces/inkscape"
   width="16px"
   height="16px"
   viewBox="0 0 16 16"
   version="1.1"
   id="SVGRoot"
   inkscape:version="0.92.1 r15371"
   sodipodi:docname="Lookout tower.svg">
  <sodipodi:namedview
     id="base"
     pagecolor="#ffffff"
     bordercolor="#666666"
     borderopacity="1.0"
     inkscape:pageopacity="0.0"
     inkscape:pageshadow="2"
     inkscape:zoom="16"
     inkscape:cx="8"
     inkscape:cy="8"
     inkscape:document-units="px"
     inkscape:current-layer="layer1"
     showgrid="false"
     inkscape:window-width="716"
     inkscape:window-height="696"
     inkscape:window-x="676"
     inkscape:window-y="0"
     inkscape:window-maximized="0"
     inkscape:grid-bbox="true" />
  <defs
     id="defs20207" />
  <metadata
     id="metadata20210">
    <rdf:RDF>
      <cc:Work
         rdf:about="">
        <dc:format>image/svg+xml</dc:format>
        <dc:type
           rdf:resource="http://purl.org/dc/dcmitype/StillImage" />
        <dc:title />
      </cc:Work>
    </rdf:RDF>
  </metadata>
  <g
     id="layer1"
     inkscape:groupmode="layer"
     inkscape:label="Layer 1">
    <g
       id="g13089"
       transform="matrix(1.3333333,0,0,-1.3333333,13.014,14.588667)">
      <path
         d="M 0,0 C 0.652,0 1.182,0.527 1.182,1.18 V 8.701 C 1.182,9.353 0.652,9.883 0,9.883 h -7.521 c -0.653,0 -1.182,-0.53 -1.182,-1.182 V 1.18 C -8.703,0.527 -8.174,0 -7.521,0 Z"
         style="fill:#231f20;fill-opacity:1;fill-rule:nonzero;stroke:none"
         id="path13091"
         inkscape:connector-curvature="0" />
    </g>
    <g
       id="g13093"
       transform="matrix(1.3333333,0,0,-1.3333333,2.9854666,1.6785365)">
      <path
         d="m 0,0 c -0.541,0 -0.981,-0.44 -0.981,-0.981 v -7.522 c 0,-0.54 0.44,-0.979 0.981,-0.979 h 7.521 c 0.542,0 0.982,0.439 0.982,0.979 v 7.522 C 8.503,-0.44 8.063,0 7.521,0 Z"
         style="fill:#ffffff;fill-opacity:1;fill-rule:nonzero;stroke:none"
         id="path13095"
         inkscape:connector-curvature="0" />
    </g>
    <path
       d="m 6.6746667,5.9257362 h 2.5941332 v -1.0208 H 6.6746667 Z m 2.3136,2.3893332 -0.6261334,0.7605334 1.0869334,1.3248002 z M 8.8218667,7.5609362 8.6224,6.6489362 H 7.3221334 L 7.1216,7.5588028 7.9717334,8.6009362 Z M 6.4933334,10.400403 7.5802667,9.0756028 6.9530667,8.3150694 Z m -0.2901334,1.3088 -0.1098666,0.501333 -0.7189333,-10e-4 1.2309333,-5.5584001 -0.7104,-0.0064 v -2.023493 l 2.0768,-0.9312 2.0778666,0.9312 V 6.6446695 L 9.3391999,6.6510695 10.568,12.20947 9.8512,12.21051 9.7413336,11.71131 7.9717334,9.5545097 Z"
       style="fill:#231f20;fill-opacity:1;fill-rule:nonzero;stroke:none;stroke-width:1.0666666"
       id="path13097"
       inkscape:connector-curvature="0" />
  </g>
</svg>
