<?xml version="1.0" encoding="UTF-8" standalone="no"?>
<!-- Created with Inkscape (http://www.inkscape.org/) -->

<svg
   xmlns:dc="http://purl.org/dc/elements/1.1/"
   xmlns:cc="http://creativecommons.org/ns#"
   xmlns:rdf="http://www.w3.org/1999/02/22-rdf-syntax-ns#"
   xmlns:svg="http://www.w3.org/2000/svg"
   xmlns="http://www.w3.org/2000/svg"
   xmlns:sodipodi="http://sodipodi.sourceforge.net/DTD/sodipodi-0.dtd"
   xmlns:inkscape="http://www.inkscape.org/namespaces/inkscape"
   width="16px"
   height="16px"
   viewBox="0 0 16 16"
   version="1.1"
   id="SVGRoot"
   inkscape:version="0.92.1 r15371"
   sodipodi:docname="Marina.svg">
  <sodipodi:namedview
     id="base"
     pagecolor="#ffffff"
     bordercolor="#666666"
     borderopacity="1.0"
     inkscape:pageopacity="0.0"
     inkscape:pageshadow="2"
     inkscape:zoom="16"
     inkscape:cx="8"
     inkscape:cy="8"
     inkscape:document-units="px"
     inkscape:current-layer="layer1"
     showgrid="false"
     inkscape:window-width="681"
     inkscape:window-height="696"
     inkscape:window-x="676"
     inkscape:window-y="0"
     inkscape:window-maximized="0"
     inkscape:grid-bbox="true" />
  <defs
     id="defs20207" />
  <metadata
     id="metadata20210">
    <rdf:RDF>
      <cc:Work
         rdf:about="">
        <dc:format>image/svg+xml</dc:format>
        <dc:type
           rdf:resource="http://purl.org/dc/dcmitype/StillImage" />
        <dc:title></dc:title>
      </cc:Work>
    </rdf:RDF>
  </metadata>
  <g
     id="layer1"
     inkscape:groupmode="layer"
     inkscape:label="Layer 1">
    <g
       id="g30082"
       transform="matrix(1.3333333,0,0,-1.3333333,13.014,1.4100002)">
      <path
         d="m 0,0 h -7.521 c -0.653,0 -1.182,-0.529 -1.182,-1.182 v -7.523 c 0,-0.652 0.529,-1.18 1.182,-1.18 H 0 c 0.652,0 1.182,0.528 1.182,1.18 v 7.523 C 1.182,-0.529 0.652,0 0,0 m -0.455,-6.863 c -0.033,0 -0.065,0.004 -0.094,0.013 l -0.258,0.086 c -0.41,-1.248 -1.584,-2.15 -2.968,-2.15 -1.385,0 -2.559,0.902 -2.969,2.148 L -7.002,-6.85 c -0.029,-0.009 -0.06,-0.013 -0.094,-0.013 -0.175,0 -0.318,0.142 -0.318,0.318 0,0.026 0.002,0.051 0.008,0.074 l 0.238,1.485 c 0.025,0.138 0.148,0.244 0.295,0.244 0.086,0 0.166,-0.037 0.221,-0.098 l 1.097,-1.029 c 0.02,-0.016 0.035,-0.033 0.051,-0.055 0.106,-0.141 0.074,-0.34 -0.066,-0.445 -0.028,-0.02 -0.057,-0.033 -0.086,-0.045 l -0.278,-0.092 c 0.272,-0.763 0.946,-1.34 1.76,-1.486 l -0.002,4.881 c -0.388,0.166 -0.668,0.552 -0.668,1.002 0,0.601 0.489,1.088 1.088,1.088 0.602,0 1.088,-0.487 1.088,-1.088 0,-0.45 -0.27,-0.836 -0.66,-1.002 L -3.33,-7.984 c 0.797,0.158 1.445,0.728 1.711,1.478 l -0.276,0.092 c -0.029,0.012 -0.058,0.025 -0.085,0.045 -0.141,0.105 -0.17,0.304 -0.067,0.445 0.016,0.022 0.033,0.039 0.051,0.055 l 1.098,1.029 c 0.056,0.061 0.134,0.098 0.222,0.098 0.145,0 0.266,-0.106 0.293,-0.244 l 0.238,-1.485 c 0.006,-0.023 0.008,-0.048 0.008,-0.074 0,-0.176 -0.142,-0.318 -0.318,-0.318"
         style="fill:#231f20;fill-opacity:1;fill-rule:nonzero;stroke:none"
         id="path30084"
         inkscape:connector-curvature="0" />
    </g>
    <g
       id="g30086"
       transform="matrix(1.3333333,0,0,-1.3333333,2.9853336,1.6782702)">
      <path
         d="m 0,0 c -0.542,0 -0.981,-0.439 -0.981,-0.981 v -7.523 c 0,-0.539 0.439,-0.978 0.981,-0.978 h 7.521 c 0.542,0 0.982,0.439 0.982,0.978 v 7.523 C 8.503,-0.439 8.063,0 7.521,0 Z"
         style="fill:#ffffff;fill-opacity:1;fill-rule:nonzero;stroke:none"
         id="path30088"
         inkscape:connector-curvature="0" />
    </g>
    <g
       id="g30090"
       transform="matrix(1.3333333,0,0,-1.3333333,12.821334,10.0376)">
      <path
         d="m 0,0 -0.238,1.484 c -0.028,0.139 -0.149,0.245 -0.293,0.245 -0.088,0 -0.166,-0.038 -0.223,-0.098 L -1.852,0.602 C -1.869,0.586 -1.887,0.568 -1.902,0.547 -2.006,0.406 -1.977,0.207 -1.836,0.102 -1.809,0.082 -1.779,0.068 -1.75,0.057 l 0.275,-0.092 c -0.265,-0.75 -0.914,-1.32 -1.711,-1.479 l 0.002,4.873 c 0.391,0.166 0.661,0.553 0.661,1.002 0,0.602 -0.487,1.088 -1.088,1.088 -0.6,0 -1.088,-0.486 -1.088,-1.088 0,-0.449 0.279,-0.836 0.668,-1.002 l 0.002,-4.88 c -0.815,0.146 -1.489,0.722 -1.76,1.486 l 0.277,0.092 c 0.03,0.011 0.059,0.025 0.086,0.045 0.141,0.105 0.172,0.304 0.067,0.445 -0.016,0.021 -0.032,0.039 -0.051,0.055 l -1.098,1.029 c -0.054,0.06 -0.135,0.098 -0.221,0.098 -0.146,0 -0.269,-0.106 -0.294,-0.245 L -7.262,0 c -0.006,-0.023 -0.008,-0.049 -0.008,-0.074 0,-0.176 0.143,-0.319 0.319,-0.319 0.033,0 0.064,0.004 0.094,0.014 l 0.257,0.084 c 0.411,-1.246 1.584,-2.148 2.969,-2.148 1.385,0 2.559,0.902 2.969,2.15 l 0.258,-0.086 c 0.029,-0.01 0.06,-0.014 0.093,-0.014 0.176,0 0.319,0.143 0.319,0.319 C 0.008,-0.049 0.006,-0.023 0,0 m -3.611,3.914 c -0.245,0 -0.446,0.201 -0.446,0.447 0,0.248 0.201,0.448 0.446,0.448 0.248,0 0.446,-0.2 0.446,-0.448 0,-0.246 -0.198,-0.447 -0.446,-0.447"
         style="fill:#231f20;fill-opacity:1;fill-rule:nonzero;stroke:none"
         id="path30092"
         inkscape:connector-curvature="0" />
    </g>
  </g>
</svg>
