<?xml version="1.0" encoding="UTF-8" standalone="no"?>
<!-- Created with Inkscape (http://www.inkscape.org/) -->

<svg
   xmlns:dc="http://purl.org/dc/elements/1.1/"
   xmlns:cc="http://creativecommons.org/ns#"
   xmlns:rdf="http://www.w3.org/1999/02/22-rdf-syntax-ns#"
   xmlns:svg="http://www.w3.org/2000/svg"
   xmlns="http://www.w3.org/2000/svg"
   xmlns:sodipodi="http://sodipodi.sourceforge.net/DTD/sodipodi-0.dtd"
   xmlns:inkscape="http://www.inkscape.org/namespaces/inkscape"
   width="16px"
   height="16px"
   viewBox="0 0 16 16"
   version="1.1"
   id="SVGRoot"
   inkscape:version="0.92.1 r15371"
   sodipodi:docname="Mens Room.svg">
  <sodipodi:namedview
     id="base"
     pagecolor="#ffffff"
     bordercolor="#666666"
     borderopacity="1.0"
     inkscape:pageopacity="0.0"
     inkscape:pageshadow="2"
     inkscape:zoom="16"
     inkscape:cx="8"
     inkscape:cy="8"
     inkscape:document-units="px"
     inkscape:current-layer="layer1"
     showgrid="false"
     inkscape:window-width="1366"
     inkscape:window-height="705"
     inkscape:window-x="-8"
     inkscape:window-y="-8"
     inkscape:window-maximized="1"
     inkscape:grid-bbox="true" />
  <defs
     id="defs20207" />
  <metadata
     id="metadata20210">
    <rdf:RDF>
      <cc:Work
         rdf:about="">
        <dc:format>image/svg+xml</dc:format>
        <dc:type
           rdf:resource="http://purl.org/dc/dcmitype/StillImage" />
        <dc:title></dc:title>
      </cc:Work>
    </rdf:RDF>
  </metadata>
  <g
     id="layer1"
     inkscape:groupmode="layer"
     inkscape:label="Layer 1">
    <g
       id="g13763"
       transform="matrix(1.3333333,0,0,-1.3333333,13.138333,14.651167)">
      <path
         d="M 0,0 C 0.652,0 1.182,0.528 1.182,1.18 V 8.702 C 1.182,9.354 0.652,9.883 0,9.883 h -7.521 c -0.653,0 -1.181,-0.529 -1.181,-1.181 V 1.18 C -8.702,0.528 -8.174,0 -7.521,0 Z"
         style="fill:#231f20;fill-opacity:1;fill-rule:nonzero;stroke:none"
         id="path13765"
         inkscape:connector-curvature="0" />
    </g>
    <g
       id="g13767"
       transform="matrix(1.3333333,0,0,-1.3333333,3.109668,1.7410365)">
      <path
         d="m 0,0 c -0.541,0 -0.98,-0.44 -0.98,-0.98 v -7.523 c 0,-0.54 0.439,-0.979 0.98,-0.979 h 7.521 c 0.542,0 0.982,0.439 0.982,0.979 V -0.98 C 8.503,-0.44 8.063,0 7.521,0 Z"
         style="fill:#ffffff;fill-opacity:1;fill-rule:nonzero;stroke:none"
         id="path13769"
         inkscape:connector-curvature="0" />
    </g>
    <g
       id="g13771"
       transform="matrix(1.3333333,0,0,-1.3333333,8.0992676,4.4610365)">
      <path
         d="M 0,0 C 0.364,0 0.662,0.295 0.662,0.662 0.662,1.027 0.364,1.324 0,1.324 -0.365,1.324 -0.662,1.027 -0.662,0.662 -0.662,0.295 -0.365,0 0,0"
         style="fill:#231f20;fill-opacity:1;fill-rule:nonzero;stroke:none"
         id="path13773"
         inkscape:connector-curvature="0" />
    </g>
    <g
       id="g13775"
       transform="matrix(1.3333333,0,0,-1.3333333,6.9000676,13.032637)">
      <path
         d="m 0,0 c 0,-0.205 0.167,-0.372 0.372,-0.372 0.205,0 0.372,0.167 0.372,0.372 V 3.118 H 1.056 V 0 c 0,-0.205 0.165,-0.372 0.37,-0.372 0.205,0 0.372,0.167 0.372,0.372 L 1.801,5.375 H 2.109 V 3.393 c 0,-0.399 0.52,-0.399 0.518,0 v 2.026 c 0,0.439 -0.341,0.869 -0.856,0.869 L 0.012,6.291 c -0.469,0 -0.846,-0.385 -0.846,-0.86 V 3.393 c 0,-0.394 0.523,-0.394 0.523,0 v 1.982 h 0.314 z"
         style="fill:#231f20;fill-opacity:1;fill-rule:nonzero;stroke:none"
         id="path13777"
         inkscape:connector-curvature="0" />
    </g>
  </g>
</svg>
