<?xml version="1.0" encoding="UTF-8" standalone="no"?>
<!-- Created with Inkscape (http://www.inkscape.org/) -->

<svg
   xmlns:dc="http://purl.org/dc/elements/1.1/"
   xmlns:cc="http://creativecommons.org/ns#"
   xmlns:rdf="http://www.w3.org/1999/02/22-rdf-syntax-ns#"
   xmlns:svg="http://www.w3.org/2000/svg"
   xmlns="http://www.w3.org/2000/svg"
   xmlns:sodipodi="http://sodipodi.sourceforge.net/DTD/sodipodi-0.dtd"
   xmlns:inkscape="http://www.inkscape.org/namespaces/inkscape"
   width="16px"
   height="16px"
   viewBox="0 0 16 16"
   version="1.1"
   id="SVGRoot"
   inkscape:version="0.92.1 r15371"
   sodipodi:docname="Ranger station.svg">
  <sodipodi:namedview
     id="base"
     pagecolor="#ffffff"
     bordercolor="#666666"
     borderopacity="1.0"
     inkscape:pageopacity="0.0"
     inkscape:pageshadow="2"
     inkscape:zoom="16"
     inkscape:cx="8"
     inkscape:cy="8"
     inkscape:document-units="px"
     inkscape:current-layer="layer1"
     showgrid="false"
     inkscape:window-width="681"
     inkscape:window-height="696"
     inkscape:window-x="676"
     inkscape:window-y="0"
     inkscape:window-maximized="0"
     inkscape:grid-bbox="true" />
  <defs
     id="defs20207" />
  <metadata
     id="metadata20210">
    <rdf:RDF>
      <cc:Work
         rdf:about="">
        <dc:format>image/svg+xml</dc:format>
        <dc:type
           rdf:resource="http://purl.org/dc/dcmitype/StillImage" />
        <dc:title></dc:title>
      </cc:Work>
    </rdf:RDF>
  </metadata>
  <g
     id="layer1"
     inkscape:groupmode="layer"
     inkscape:label="Layer 1">
    <g
       id="g30158"
       transform="matrix(1.3333333,0,0,-1.3333333,2.9826668,14.594)">
      <path
         d="m 0,0 c -0.652,0 -1.182,0.529 -1.182,1.184 v 7.525 c 0,0.654 0.53,1.182 1.182,1.182 h 7.526 c 0.653,0 1.182,-0.528 1.182,-1.182 V 1.184 C 8.708,0.529 8.179,0 7.526,0 Z"
         style="fill:#231f20;fill-opacity:1;fill-rule:nonzero;stroke:none"
         id="path30160"
         inkscape:connector-curvature="0" />
    </g>
    <g
       id="g30162"
       transform="matrix(1.3333333,0,0,-1.3333333,2.9826668,1.6721295)">
      <path
         d="m 0,0 c -0.542,0 -0.981,-0.441 -0.981,-0.982 v -7.526 c 0,-0.541 0.439,-0.982 0.981,-0.982 h 7.526 c 0.542,0 0.982,0.441 0.982,0.982 v 7.526 C 8.508,-0.441 8.068,0 7.526,0 Z"
         style="fill:#ffffff;fill-opacity:1;fill-rule:nonzero;stroke:none"
         id="path30164"
         inkscape:connector-curvature="0" />
    </g>
    <g
       id="g30166"
       transform="matrix(1.3333333,0,0,-1.3333333,8.9631998,6.9298695)">
      <path
         d="m 0,0 v 1.697 h 0.587 c 0.244,0 0.286,-0.16 0.316,-0.191 C 0.994,1.418 1.056,1.365 1.185,1.365 h 0.65 v 1.442 h -0.65 c -0.129,0 -0.191,0.052 -0.282,0.142 -0.03,0.028 -0.072,0.19 -0.316,0.19 H -0.31 v -2.94 l -0.41,0.268 -3.612,-2.332 h 0.847 v -2.819 h 2.05 v 2.239 h 1.425 v -2.188 h 2.052 v 2.768 h 0.844 z"
         style="fill:#231f20;fill-opacity:1;fill-rule:nonzero;stroke:none"
         id="path30168"
         inkscape:connector-curvature="0" />
    </g>
  </g>
</svg>
