<?xml version="1.0" encoding="UTF-8" standalone="no"?>
<!-- Created with Inkscape (http://www.inkscape.org/) -->

<svg
   xmlns:dc="http://purl.org/dc/elements/1.1/"
   xmlns:cc="http://creativecommons.org/ns#"
   xmlns:rdf="http://www.w3.org/1999/02/22-rdf-syntax-ns#"
   xmlns:svg="http://www.w3.org/2000/svg"
   xmlns="http://www.w3.org/2000/svg"
   xmlns:sodipodi="http://sodipodi.sourceforge.net/DTD/sodipodi-0.dtd"
   xmlns:inkscape="http://www.inkscape.org/namespaces/inkscape"
   width="16px"
   height="16px"
   viewBox="0 0 16 16"
   version="1.1"
   id="SVGRoot"
   inkscape:version="0.92.1 r15371"
   sodipodi:docname="Restrooms.svg">
  <sodipodi:namedview
     id="base"
     pagecolor="#ffffff"
     bordercolor="#666666"
     borderopacity="1.0"
     inkscape:pageopacity="0.0"
     inkscape:pageshadow="2"
     inkscape:zoom="16"
     inkscape:cx="8"
     inkscape:cy="8"
     inkscape:document-units="px"
     inkscape:current-layer="layer1"
     showgrid="false"
     inkscape:window-width="681"
     inkscape:window-height="696"
     inkscape:window-x="676"
     inkscape:window-y="0"
     inkscape:window-maximized="0"
     inkscape:grid-bbox="true" />
  <defs
     id="defs20207" />
  <metadata
     id="metadata20210">
    <rdf:RDF>
      <cc:Work
         rdf:about="">
        <dc:format>image/svg+xml</dc:format>
        <dc:type
           rdf:resource="http://purl.org/dc/dcmitype/StillImage" />
        <dc:title></dc:title>
      </cc:Work>
    </rdf:RDF>
  </metadata>
  <g
     id="layer1"
     inkscape:groupmode="layer"
     inkscape:label="Layer 1">
    <g
       id="g30408"
       transform="matrix(1.3333333,0,0,-1.3333333,13.014667,14.588667)">
      <path
         d="M 0,0 C 0.652,0 1.181,0.527 1.181,1.18 V 8.701 C 1.181,9.354 0.652,9.883 0,9.883 h -7.521 c -0.653,0 -1.182,-0.529 -1.182,-1.182 V 1.18 C -8.703,0.527 -8.174,0 -7.521,0 Z"
         style="fill:#231f20;fill-opacity:1;fill-rule:nonzero;stroke:none"
         id="path30410"
         inkscape:connector-curvature="0" />
    </g>
    <g
       id="g30412"
       transform="matrix(1.3333333,0,0,-1.3333333,2.9860002,1.6772065)">
      <path
         d="m 0,0 c -0.541,0 -0.981,-0.441 -0.981,-0.982 v -7.522 c 0,-0.539 0.44,-0.978 0.981,-0.978 h 7.521 c 0.541,0 0.981,0.439 0.981,0.978 v 7.522 C 8.502,-0.441 8.062,0 7.521,0 Z"
         style="fill:#ffffff;fill-opacity:1;fill-rule:nonzero;stroke:none"
         id="path30414"
         inkscape:connector-curvature="0" />
    </g>
    <path
       d="m 8.420533,12.278937 h -0.7 V 3.4842703 h 0.7 z"
       style="fill:#231f20;fill-opacity:1;fill-rule:nonzero;stroke:none;stroke-width:1.33333325"
       id="path30416"
       inkscape:connector-curvature="0" />
    <g
       id="g30418"
       transform="matrix(1.3333333,0,0,-1.3333333,5.2294662,5.0938665)">
      <path
         d="M 0,0 C 0.375,0 0.644,-0.309 0.7,-0.477 L 1.159,-1.988 C 1.251,-2.313 0.838,-2.447 0.739,-2.131 L 0.326,-0.744 H 0.088 L 0.78,-3.209 H 0.12 v -1.924 c 0,-0.328 -0.493,-0.326 -0.493,0 v 1.936 h -0.251 v -1.932 c 0,-0.332 -0.495,-0.332 -0.495,0 v 1.92 h -0.662 l 0.685,2.465 h -0.227 l -0.414,-1.391 c -0.098,-0.303 -0.515,-0.179 -0.42,0.147 l 0.46,1.511 C -1.648,-0.305 -1.431,0 -1.054,0 Z"
         style="fill:#231f20;fill-opacity:1;fill-rule:nonzero;stroke:none"
         id="path30420"
         inkscape:connector-curvature="0" />
    </g>
    <g
       id="g30422"
       transform="matrix(1.3333333,0,0,-1.3333333,4.5641332,4.9428065)">
      <path
         d="M 0,0 C 0.296,0 0.536,0.24 0.536,0.535 0.536,0.832 0.296,1.072 0,1.072 -0.296,1.072 -0.535,0.832 -0.535,0.535 -0.535,0.24 -0.296,0 0,0"
         style="fill:#231f20;fill-opacity:1;fill-rule:nonzero;stroke:none"
         id="path30424"
         inkscape:connector-curvature="0" />
    </g>
    <g
       id="g30426"
       transform="matrix(1.3333333,0,0,-1.3333333,11.504267,4.9297365)">
      <path
         d="M 0,0 C 0.296,0 0.536,0.238 0.536,0.535 0.536,0.83 0.296,1.07 0,1.07 -0.295,1.07 -0.535,0.83 -0.535,0.535 -0.535,0.238 -0.295,0 0,0"
         style="fill:#231f20;fill-opacity:1;fill-rule:nonzero;stroke:none"
         id="path30428"
         inkscape:connector-curvature="0" />
    </g>
    <g
       id="g30430"
       transform="matrix(1.3333333,0,0,-1.3333333,10.536799,11.856937)">
      <path
         d="m 0,0 c 0,-0.166 0.134,-0.301 0.3,-0.301 0.166,0 0.301,0.135 0.301,0.301 V 2.52 H 0.853 V 0 c 0,-0.166 0.133,-0.301 0.299,-0.301 0.166,0 0.3,0.135 0.3,0.301 l 0.002,4.344 h 0.25 V 2.742 c 0,-0.322 0.42,-0.322 0.419,0 v 1.637 c 0,0.355 -0.276,0.703 -0.692,0.703 L 0.01,5.084 c -0.38,0 -0.685,-0.311 -0.685,-0.695 V 2.742 c 0,-0.318 0.422,-0.318 0.422,0 v 1.602 h 0.254 z"
         style="fill:#231f20;fill-opacity:1;fill-rule:nonzero;stroke:none"
         id="path30432"
         inkscape:connector-curvature="0" />
    </g>
  </g>
</svg>
