<?xml version="1.0" encoding="UTF-8" standalone="no"?>
<!-- Created with Inkscape (http://www.inkscape.org/) -->

<svg
   xmlns:dc="http://purl.org/dc/elements/1.1/"
   xmlns:cc="http://creativecommons.org/ns#"
   xmlns:rdf="http://www.w3.org/1999/02/22-rdf-syntax-ns#"
   xmlns:svg="http://www.w3.org/2000/svg"
   xmlns="http://www.w3.org/2000/svg"
   xmlns:sodipodi="http://sodipodi.sourceforge.net/DTD/sodipodi-0.dtd"
   xmlns:inkscape="http://www.inkscape.org/namespaces/inkscape"
   width="16px"
   height="16px"
   viewBox="0 0 16 16"
   version="1.1"
   id="SVGRoot"
   inkscape:version="0.92.1 r15371"
   sodipodi:docname="Rock climbing.svg">
  <sodipodi:namedview
     id="base"
     pagecolor="#ffffff"
     bordercolor="#666666"
     borderopacity="1.0"
     inkscape:pageopacity="0.0"
     inkscape:pageshadow="2"
     inkscape:zoom="16"
     inkscape:cx="8"
     inkscape:cy="8"
     inkscape:document-units="px"
     inkscape:current-layer="layer1"
     showgrid="false"
     inkscape:window-width="681"
     inkscape:window-height="696"
     inkscape:window-x="676"
     inkscape:window-y="0"
     inkscape:window-maximized="0"
     inkscape:grid-bbox="true" />
  <defs
     id="defs20207" />
  <metadata
     id="metadata20210">
    <rdf:RDF>
      <cc:Work
         rdf:about="">
        <dc:format>image/svg+xml</dc:format>
        <dc:type
           rdf:resource="http://purl.org/dc/dcmitype/StillImage" />
        <dc:title></dc:title>
      </cc:Work>
    </rdf:RDF>
  </metadata>
  <g
     id="layer1"
     inkscape:groupmode="layer"
     inkscape:label="Layer 1">
    <g
       id="g12535"
       transform="matrix(1.3333333,0,0,-1.3333333,13.014667,14.588667)">
      <path
         d="m 0,0 c 0.652,0 1.18,0.529 1.18,1.182 v 7.521 c 0,0.652 -0.528,1.18 -1.18,1.18 h -7.52 c -0.653,0 -1.182,-0.528 -1.182,-1.18 V 1.182 C -8.702,0.529 -8.173,0 -7.52,0 Z"
         style="fill:#231f20;fill-opacity:1;fill-rule:nonzero;stroke:none"
         id="path12537"
         inkscape:connector-curvature="0" />
    </g>
    <g
       id="g12539"
       transform="matrix(1.3333333,0,0,-1.3333333,2.9873269,1.6785365)">
      <path
         d="m 0,0 c -0.541,0 -0.981,-0.439 -0.981,-0.979 v -7.522 c 0,-0.541 0.44,-0.981 0.981,-0.981 h 7.52 c 0.541,0 0.98,0.44 0.98,0.981 v 7.522 C 8.5,-0.439 8.061,0 7.52,0 Z"
         style="fill:#ffffff;fill-opacity:1;fill-rule:nonzero;stroke:none"
         id="path12541"
         inkscape:connector-curvature="0" />
    </g>
    <g
       id="g12543"
       transform="matrix(1.3333333,0,0,-1.3333333,7.9963969,9.8829365)">
      <path
         d="m 0,0 c -0.084,-0.031 -0.178,-0.049 -0.273,-0.049 -0.104,0 -0.205,0.012 -0.299,0.039 l -1.063,-2.441 c -0.096,-0.225 -0.364,-0.301 -0.596,-0.17 -0.233,0.131 -0.342,0.418 -0.243,0.642 l 1.302,2.987 h 1.66 v 0.279 l 0.84,0.391 C 1.549,1.785 1.834,1.602 1.893,1.369 L 2.305,-0.283 C 2.363,-0.518 2.221,-0.754 1.986,-0.812 1.752,-0.871 1.514,-0.729 1.455,-0.494 L 1.193,0.559 Z"
         style="fill:#231f20;fill-opacity:1;fill-rule:nonzero;stroke:none"
         id="path12545"
         inkscape:connector-curvature="0" />
    </g>
    <g
       id="g12547"
       transform="matrix(1.3333333,0,0,-1.3333333,9.0173269,7.6017365)">
      <path
         d="M 0,0 C 1.818,0.902 2.523,3.992 2.523,4.25 H 2.273 C 2.18,3.606 1.398,1.027 0,0.279 Z"
         style="fill:#231f20;fill-opacity:1;fill-rule:nonzero;stroke:none"
         id="path12549"
         inkscape:connector-curvature="0" />
    </g>
    <g
       id="g12551"
       transform="matrix(1.3333333,0,0,-1.3333333,4.5419969,6.7006665)">
      <path
         d="m 0,0 c 0.096,-0.148 0.287,-0.215 0.457,-0.145 l 0.962,0.377 v -1.334 h 1.66 V 0.443 L 4.567,2.824 C 4.677,2.998 4.626,3.228 4.45,3.34 4.276,3.449 4.046,3.398 3.948,3.228 L 2.685,1.205 1.923,1.203 C 1.874,1.203 1.825,1.195 1.776,1.176 L 0.461,0.66 -0.217,1.687 C -0.328,1.859 -0.559,1.91 -0.732,1.799 -0.906,1.687 -0.957,1.455 -0.846,1.281 Z"
         style="fill:#231f20;fill-opacity:1;fill-rule:nonzero;stroke:none"
         id="path12553"
         inkscape:connector-curvature="0" />
    </g>
    <g
       id="g12555"
       transform="matrix(1.3333333,0,0,-1.3333333,7.3897269,4.9141365)">
      <path
         d="M 0,0 C 0.365,0 0.662,0.295 0.662,0.66 0.662,1.025 0.365,1.322 0,1.322 -0.365,1.322 -0.662,1.025 -0.662,0.66 -0.662,0.295 -0.365,0 0,0"
         style="fill:#231f20;fill-opacity:1;fill-rule:nonzero;stroke:none"
         id="path12557"
         inkscape:connector-curvature="0" />
    </g>
    <g
       id="g12559"
       transform="matrix(1.3333333,0,0,-1.3333333,8.6474669,13.919337)">
      <path
         d="M 0,0 V 2.979 L -0.279,2.848 V 0 Z"
         style="fill:#231f20;fill-opacity:1;fill-rule:nonzero;stroke:none"
         id="path12561"
         inkscape:connector-curvature="0" />
    </g>
  </g>
</svg>
