<?xml version="1.0" encoding="UTF-8" standalone="no"?>
<!-- Created with Inkscape (http://www.inkscape.org/) -->

<svg
   xmlns:dc="http://purl.org/dc/elements/1.1/"
   xmlns:cc="http://creativecommons.org/ns#"
   xmlns:rdf="http://www.w3.org/1999/02/22-rdf-syntax-ns#"
   xmlns:svg="http://www.w3.org/2000/svg"
   xmlns="http://www.w3.org/2000/svg"
   xmlns:sodipodi="http://sodipodi.sourceforge.net/DTD/sodipodi-0.dtd"
   xmlns:inkscape="http://www.inkscape.org/namespaces/inkscape"
   width="16px"
   height="16px"
   viewBox="0 0 16 16"
   version="1.1"
   id="SVGRoot"
   inkscape:version="0.92.1 r15371"
   sodipodi:docname="Snowmobile trail.svg">
  <sodipodi:namedview
     id="base"
     pagecolor="#ffffff"
     bordercolor="#666666"
     borderopacity="1.0"
     inkscape:pageopacity="0.0"
     inkscape:pageshadow="2"
     inkscape:zoom="16"
     inkscape:cx="8"
     inkscape:cy="8"
     inkscape:document-units="px"
     inkscape:current-layer="layer1"
     showgrid="false"
     inkscape:window-width="681"
     inkscape:window-height="696"
     inkscape:window-x="676"
     inkscape:window-y="0"
     inkscape:window-maximized="0"
     inkscape:grid-bbox="true" />
  <defs
     id="defs20207" />
  <metadata
     id="metadata20210">
    <rdf:RDF>
      <cc:Work
         rdf:about="">
        <dc:format>image/svg+xml</dc:format>
        <dc:type
           rdf:resource="http://purl.org/dc/dcmitype/StillImage" />
        <dc:title></dc:title>
      </cc:Work>
    </rdf:RDF>
  </metadata>
  <g
     id="layer1"
     inkscape:groupmode="layer"
     inkscape:label="Layer 1">
    <g
       id="g30546"
       transform="matrix(1.3333333,0,0,-1.3333333,13.014667,14.59)">
      <path
         d="M 0,0 C 0.652,0 1.181,0.529 1.181,1.182 V 8.703 C 1.181,9.355 0.652,9.885 0,9.885 h -7.521 c -0.653,0 -1.182,-0.53 -1.182,-1.182 V 1.182 C -8.703,0.529 -8.174,0 -7.521,0 Z"
         style="fill:#231f20;fill-opacity:1;fill-rule:nonzero;stroke:none"
         id="path30548"
         inkscape:connector-curvature="0" />
    </g>
    <g
       id="g30550"
       transform="matrix(1.3333333,0,0,-1.3333333,2.9860002,1.6758695)">
      <path
         d="m 0,0 c -0.541,0 -0.981,-0.441 -0.981,-0.982 v -7.522 c 0,-0.541 0.44,-0.98 0.981,-0.98 h 7.521 c 0.541,0 0.981,0.439 0.981,0.98 v 7.522 C 8.502,-0.441 8.062,0 7.521,0 Z"
         style="fill:#ffffff;fill-opacity:1;fill-rule:nonzero;stroke:none"
         id="path30552"
         inkscape:connector-curvature="0" />
    </g>
    <g
       id="g30554"
       transform="matrix(1.3333333,0,0,-1.3333333,6.9846662,4.7410695)">
      <path
         d="m 0,0 c 0.365,0 0.661,0.295 0.661,0.662 0,0.363 -0.296,0.66 -0.661,0.66 -0.365,0 -0.661,-0.297 -0.661,-0.66 C -0.661,0.295 -0.365,0 0,0"
         style="fill:#231f20;fill-opacity:1;fill-rule:nonzero;stroke:none"
         id="path30556"
         inkscape:connector-curvature="0" />
    </g>
    <g
       id="g30558"
       transform="matrix(1.3333333,0,0,-1.3333333,8.0223992,11.8608)">
      <path
         d="m 0,0 h 3.145 c 0,0 0.203,-0.014 0.607,0.31 L 4.441,0.836 V 0.242 L 3.738,-0.283 c 0,0 -0.209,-0.17 -0.56,-0.209 h -3.442 z"
         style="fill:#231f20;fill-opacity:1;fill-rule:nonzero;stroke:none"
         id="path30560"
         inkscape:connector-curvature="0" />
    </g>
    <g
       id="g30562"
       transform="matrix(1.3333333,0,0,-1.3333333,2.1813333,12.51707)">
      <path
         d="M 0,0 H 3.146 L 3.408,0.492 H 3.382 0.236 L -0.026,0 Z"
         style="fill:#231f20;fill-opacity:1;fill-rule:nonzero;stroke:none"
         id="path30564"
         inkscape:connector-curvature="0" />
    </g>
    <g
       id="g30566"
       transform="matrix(1.3333333,0,0,-1.3333333,7.4378662,5.8139995)">
      <path
         d="M 0,0 C 0,0.365 -0.296,0.662 -0.662,0.662 -1.027,0.662 -1.324,0.365 -1.324,0 v -1.619 c 0,-0.205 0.1,-0.397 0.248,-0.518 h -1.482 l -0.8,-1.453 c -0.018,-0.033 -0.026,-0.07 -0.026,-0.109 0,-0.133 0.109,-0.242 0.241,-0.242 h 5.462 c 0,0 0.235,-0.038 0.588,0.24 l 1.417,1.043 -0.535,0.935 c 0,0 -0.12,0.227 -0.574,0.295 l -1.069,0.18 -0.575,0.959 -0.007,0.01 C 1.481,-0.184 1.337,-0.174 1.241,-0.256 L 1.24,-0.258 C 1.173,-0.32 1.147,-0.422 1.185,-0.512 L 1.611,-1.223 V -1.229 L 1.077,-2.137 0,-1.727 v 0.403 h 0.851 c 0.041,-0.002 0.084,0.004 0.125,0.021 0.161,0.061 0.241,0.243 0.179,0.403 -0.047,0.125 -0.164,0.199 -0.288,0.201 L -0.001,-0.697 0,0"
         style="fill:#231f20;fill-opacity:1;fill-rule:nonzero;stroke:none"
         id="path30568"
         inkscape:connector-curvature="0" />
    </g>
  </g>
</svg>
