<?xml version="1.0" encoding="UTF-8" standalone="no"?>
<!-- Created with Inkscape (http://www.inkscape.org/) -->

<svg
   xmlns:dc="http://purl.org/dc/elements/1.1/"
   xmlns:cc="http://creativecommons.org/ns#"
   xmlns:rdf="http://www.w3.org/1999/02/22-rdf-syntax-ns#"
   xmlns:svg="http://www.w3.org/2000/svg"
   xmlns="http://www.w3.org/2000/svg"
   xmlns:sodipodi="http://sodipodi.sourceforge.net/DTD/sodipodi-0.dtd"
   xmlns:inkscape="http://www.inkscape.org/namespaces/inkscape"
   width="16px"
   height="16px"
   viewBox="0 0 16 16"
   version="1.1"
   id="SVGRoot"
   inkscape:version="0.92.1 r15371"
   sodipodi:docname="Snowboarding.svg">
  <sodipodi:namedview
     id="base"
     pagecolor="#ffffff"
     bordercolor="#666666"
     borderopacity="1.0"
     inkscape:pageopacity="0.0"
     inkscape:pageshadow="2"
     inkscape:zoom="16"
     inkscape:cx="8"
     inkscape:cy="8"
     inkscape:document-units="px"
     inkscape:current-layer="layer1"
     showgrid="false"
     inkscape:window-width="681"
     inkscape:window-height="696"
     inkscape:window-x="676"
     inkscape:window-y="0"
     inkscape:window-maximized="0"
     inkscape:grid-bbox="true" />
  <defs
     id="defs20207" />
  <metadata
     id="metadata20210">
    <rdf:RDF>
      <cc:Work
         rdf:about="">
        <dc:format>image/svg+xml</dc:format>
        <dc:type
           rdf:resource="http://purl.org/dc/dcmitype/StillImage" />
        <dc:title></dc:title>
      </cc:Work>
    </rdf:RDF>
  </metadata>
  <g
     id="layer1"
     inkscape:groupmode="layer"
     inkscape:label="Layer 1">
    <g
       id="g5992"
       transform="matrix(1.3333333,0,0,-1.3333333,13.014667,14.594)">
      <path
         d="M 0,0 C 0.654,0 1.184,0.529 1.184,1.182 V 8.709 C 1.184,9.361 0.654,9.891 0,9.891 h -7.524 c -0.653,0 -1.182,-0.53 -1.182,-1.182 V 1.182 C -8.706,0.529 -8.177,0 -7.524,0 Z"
         style="fill:#231f20;fill-opacity:1;fill-rule:nonzero;stroke:none"
         id="path5994"
         inkscape:connector-curvature="0" />
    </g>
    <g
       id="g5996"
       transform="matrix(1.3333333,0,0,-1.3333333,2.9821262,1.6733395)">
      <path
         d="m 0,0 c -0.541,0 -0.981,-0.441 -0.981,-0.982 v -7.527 c 0,-0.541 0.44,-0.981 0.981,-0.981 h 7.524 c 0.542,0 0.984,0.44 0.984,0.981 v 7.527 C 8.508,-0.441 8.066,0 7.524,0 Z"
         style="fill:#ffffff;fill-opacity:1;fill-rule:nonzero;stroke:none"
         id="path5998"
         inkscape:connector-curvature="0" />
    </g>
    <g
       id="g6000"
       transform="matrix(1.3333333,0,0,-1.3333333,10.829726,4.7163995)">
      <path
         d="M 0,0 C 0.365,0 0.662,0.297 0.662,0.662 0.662,1.027 0.365,1.324 0,1.324 -0.365,1.324 -0.662,1.027 -0.662,0.662 -0.662,0.297 -0.365,0 0,0"
         style="fill:#231f20;fill-opacity:1;fill-rule:nonzero;stroke:none"
         id="path6002"
         inkscape:connector-curvature="0" />
    </g>
    <g
       id="g6004"
       transform="matrix(1.3333333,0,0,-1.3333333,8.6709262,7.0939995)">
      <path
         d="M 0,0 1.406,0.693 2.713,-0.51 c 0.058,-0.056 0.137,-0.092 0.225,-0.092 0.175,0.002 0.316,0.145 0.314,0.321 0,0.094 -0.043,0.177 -0.107,0.234 L 1.279,1.668 C 1.217,1.729 1.145,1.777 1.064,1.812 L -0.389,2.33 -1.049,3.287 C -1.1,3.355 -1.178,3.404 -1.27,3.416 -1.443,3.436 -1.6,3.311 -1.621,3.137 -1.629,3.063 -1.611,2.992 -1.574,2.934 L -0.9,1.959 C -0.869,1.918 -0.83,1.887 -0.783,1.865 L -0.002,1.557 -1.287,0.9 C -1.465,0.797 -1.594,0.619 -1.629,0.408 l 0.008,-1.174 -1.187,-0.535 c -0.134,-0.062 -0.23,-0.197 -0.236,-0.355 -0.01,-0.227 0.166,-0.418 0.393,-0.428 0.07,-0.002 0.138,0.014 0.197,0.043 L -1,-1.385 c 0.104,0.057 0.182,0.156 0.207,0.276 l -0.004,0.73 1.01,-0.9 -0.186,-1.541 c 0,-0.008 -0.002,-0.018 -0.002,-0.028 -0.009,-0.226 0.166,-0.418 0.393,-0.427 0.213,-0.01 0.396,0.146 0.424,0.353 l 0.217,1.756 c 0.002,0.008 0.002,0.016 0.002,0.023 0.005,0.123 -0.043,0.237 -0.127,0.315 z"
         style="fill:#231f20;fill-opacity:1;fill-rule:nonzero;stroke:none"
         id="path6006"
         inkscape:connector-curvature="0" />
    </g>
    <g
       id="g6008"
       transform="matrix(1.3333333,0,0,-1.3333333,2.8154662,8.6069395)">
      <path
         d="m 0,0 c -0.218,-0.073 -0.335,-0.31 -0.262,-0.527 0.121,-0.361 0.395,-0.645 0.748,-0.78 L 6.043,-3.42 c 0.355,-0.136 0.748,-0.105 1.075,0.083 0.199,0.114 0.268,0.368 0.153,0.567 -0.114,0.2 -0.368,0.268 -0.567,0.154 -0.11,-0.064 -0.244,-0.073 -0.365,-0.027 -0.001,0 -5.557,2.114 -5.557,2.114 -0.12,0.046 -0.214,0.143 -0.255,0.267 C 0.454,-0.044 0.218,0.073 0,0"
         style="fill:#231f20;fill-opacity:1;fill-rule:nonzero;stroke:none"
         id="path6010"
         inkscape:connector-curvature="0" />
    </g>
  </g>
</svg>
