<?xml version="1.0" encoding="UTF-8" standalone="no"?>
<!-- Created with Inkscape (http://www.inkscape.org/) -->

<svg
   xmlns:dc="http://purl.org/dc/elements/1.1/"
   xmlns:cc="http://creativecommons.org/ns#"
   xmlns:rdf="http://www.w3.org/1999/02/22-rdf-syntax-ns#"
   xmlns:svg="http://www.w3.org/2000/svg"
   xmlns="http://www.w3.org/2000/svg"
   xmlns:sodipodi="http://sodipodi.sourceforge.net/DTD/sodipodi-0.dtd"
   xmlns:inkscape="http://www.inkscape.org/namespaces/inkscape"
   width="16px"
   height="16px"
   viewBox="0 0 16 16"
   version="1.1"
   id="SVGRoot"
   inkscape:version="0.92.1 r15371"
   sodipodi:docname="Spelunking.svg">
  <sodipodi:namedview
     id="base"
     pagecolor="#ffffff"
     bordercolor="#666666"
     borderopacity="1.0"
     inkscape:pageopacity="0.0"
     inkscape:pageshadow="2"
     inkscape:zoom="16"
     inkscape:cx="8"
     inkscape:cy="8"
     inkscape:document-units="px"
     inkscape:current-layer="layer1"
     showgrid="false"
     inkscape:window-width="681"
     inkscape:window-height="696"
     inkscape:window-x="676"
     inkscape:window-y="0"
     inkscape:window-maximized="0"
     inkscape:grid-bbox="true" />
  <defs
     id="defs20207" />
  <metadata
     id="metadata20210">
    <rdf:RDF>
      <cc:Work
         rdf:about="">
        <dc:format>image/svg+xml</dc:format>
        <dc:type
           rdf:resource="http://purl.org/dc/dcmitype/StillImage" />
        <dc:title></dc:title>
      </cc:Work>
    </rdf:RDF>
  </metadata>
  <g
     id="layer1"
     inkscape:groupmode="layer"
     inkscape:label="Layer 1">
    <g
       id="g12611"
       transform="matrix(1.3333333,0,0,-1.3333333,13.077167,14.776167)">
      <path
         d="m 0,0 c 0.65,0 1.18,0.529 1.18,1.182 v 7.521 c 0,0.652 -0.53,1.18 -1.18,1.18 h -7.522 c -0.653,0 -1.18,-0.528 -1.18,-1.18 V 1.182 C -8.702,0.529 -8.175,0 -7.522,0 Z"
         style="fill:#231f20;fill-opacity:1;fill-rule:nonzero;stroke:none"
         id="path12613"
         inkscape:connector-curvature="0" />
    </g>
    <g
       id="g12615"
       transform="matrix(1.3333333,0,0,-1.3333333,3.047167,1.8660265)">
      <path
         d="m 0,0 c -0.54,0 -0.979,-0.44 -0.979,-0.979 v -7.522 c 0,-0.541 0.439,-0.981 0.979,-0.981 h 7.522 c 0.541,0 0.98,0.44 0.98,0.981 v 7.522 C 8.502,-0.44 8.063,0 7.522,0 Z"
         style="fill:#ffffff;fill-opacity:1;fill-rule:nonzero;stroke:none"
         id="path12617"
         inkscape:connector-curvature="0" />
    </g>
    <g
       id="g12619"
       transform="matrix(1.3333333,0,0,-1.3333333,10.061567,4.3204265)">
      <path
         d="m 0,0 c 0,-0.367 -0.297,-0.664 -0.662,-0.664 -0.225,0 -0.424,0.113 -0.543,0.283 h 0.209 c 0.139,0 0.26,0.082 0.316,0.199 l 0.09,0.194 c 0.006,0.011 0.018,0.021 0.033,0.021 H 0 Z"
         style="fill:#231f20;fill-opacity:1;fill-rule:nonzero;stroke:none"
         id="path12621"
         inkscape:connector-curvature="0" />
    </g>
    <g
       id="g12623"
       transform="matrix(1.3333333,0,0,-1.3333333,10.230767,4.0496265)">
      <path
         d="m 0,0 c -0.09,0.352 -0.41,0.611 -0.789,0.611 -0.451,0 -0.815,-0.365 -0.815,-0.814 0,-0.074 0.01,-0.147 0.028,-0.213 h 0.453 c 0.072,0 0.137,0.043 0.166,0.104 l 0.088,0.193 C -0.838,-0.049 -0.766,0 -0.684,0 Z"
         style="fill:#231f20;fill-opacity:1;fill-rule:nonzero;stroke:none"
         id="path12625"
         inkscape:connector-curvature="0" />
    </g>
    <g
       id="g12627"
       transform="matrix(1.3333333,0,0,-1.3333333,7.1031669,4.8361665)">
      <path
         d="M 0,0 C 0.082,0.067 0.094,0.186 0.027,0.266 L -0.33,0.705 C -0.396,0.787 -0.516,0.799 -0.596,0.732 L -2.124,-0.51 c -0.08,-0.066 -0.094,-0.185 -0.027,-0.267 l 0.357,-0.44 c 0.067,-0.08 0.186,-0.091 0.268,-0.027 z"
         style="fill:#231f20;fill-opacity:1;fill-rule:nonzero;stroke:none"
         id="path12629"
         inkscape:connector-curvature="0" />
    </g>
    <g
       id="g12631"
       transform="matrix(1.3333333,0,0,-1.3333333,5.0914269,7.1798965)">
      <path
         d="M 0,0 C -0.086,-0.066 -0.16,-0.15 -0.217,-0.25 -0.271,-0.346 -0.305,-0.447 -0.32,-0.549 l -0.436,-1.877 -1.201,-1.156 c -0.033,-0.031 -0.062,-0.066 -0.084,-0.107 -0.127,-0.221 -0.051,-0.502 0.172,-0.629 0.178,-0.102 0.396,-0.071 0.539,0.06 l 1.336,1.291 c 0.019,0.024 0.037,0.049 0.053,0.076 0.019,0.036 0.035,0.071 0.045,0.108 l 0.271,1.189 0.894,-0.89 -0.002,-1.502 c 0,-0.16 0.084,-0.315 0.232,-0.401 0.221,-0.125 0.502,-0.048 0.629,0.172 0.043,0.08 0.063,0.164 0.059,0.248 l 0.002,1.67 C 2.192,-2.178 2.15,-2.06 2.067,-1.971 l -0.962,0.952 1.107,0.908 0.256,-0.709 c 0.021,-0.047 0.055,-0.09 0.096,-0.123 l 1.058,-0.803 c 0.143,-0.088 0.334,-0.064 0.453,0.062 0.137,0.147 0.129,0.377 -0.017,0.514 -0.004,0.004 -0.01,0.008 -0.014,0.012 L 3.116,-0.449 2.687,0.811 C 2.618,0.977 2.497,1.121 2.329,1.217 2.044,1.379 1.702,1.356 1.448,1.184 Z"
         style="fill:#231f20;fill-opacity:1;fill-rule:nonzero;stroke:none"
         id="path12633"
         inkscape:connector-curvature="0" />
    </g>
    <g
       id="g12635"
       transform="matrix(1.3333333,0,0,-1.3333333,10.566767,4.0600265)">
      <path
         d="m 0,0 c -0.029,0.027 -0.049,0.068 -0.049,0.111 0,0.086 0.069,0.155 0.153,0.155 L 2.396,0.264 C 2.629,0.262 2.771,-0.395 2.615,-0.91 2.469,-1.389 2.033,-2.006 1.828,-1.797 Z"
         style="fill:#231f20;fill-opacity:1;fill-rule:nonzero;stroke:none"
         id="path12637"
         inkscape:connector-curvature="0" />
    </g>
  </g>
</svg>
