<?xml version="1.0" encoding="UTF-8" standalone="no"?>
<!-- Created with Inkscape (http://www.inkscape.org/) -->

<svg
   xmlns:dc="http://purl.org/dc/elements/1.1/"
   xmlns:cc="http://creativecommons.org/ns#"
   xmlns:rdf="http://www.w3.org/1999/02/22-rdf-syntax-ns#"
   xmlns:svg="http://www.w3.org/2000/svg"
   xmlns="http://www.w3.org/2000/svg"
   xmlns:sodipodi="http://sodipodi.sourceforge.net/DTD/sodipodi-0.dtd"
   xmlns:inkscape="http://www.inkscape.org/namespaces/inkscape"
   width="16px"
   height="16px"
   viewBox="0 0 16 16"
   version="1.1"
   id="SVGRoot"
   inkscape:version="0.92.1 r15371"
   sodipodi:docname="Train2.svg">
  <sodipodi:namedview
     id="base"
     pagecolor="#ffffff"
     bordercolor="#666666"
     borderopacity="1.0"
     inkscape:pageopacity="0.0"
     inkscape:pageshadow="2"
     inkscape:zoom="16"
     inkscape:cx="2.3832824"
     inkscape:cy="8"
     inkscape:document-units="px"
     inkscape:current-layer="layer1"
     showgrid="false"
     inkscape:window-width="1366"
     inkscape:window-height="705"
     inkscape:window-x="-8"
     inkscape:window-y="-8"
     inkscape:window-maximized="1"
     inkscape:grid-bbox="true" />
  <defs
     id="defs20207" />
  <metadata
     id="metadata20210">
    <rdf:RDF>
      <cc:Work
         rdf:about="">
        <dc:format>image/svg+xml</dc:format>
        <dc:type
           rdf:resource="http://purl.org/dc/dcmitype/StillImage" />
        <dc:title></dc:title>
      </cc:Work>
    </rdf:RDF>
  </metadata>
  <g
     id="layer1"
     inkscape:groupmode="layer"
     inkscape:label="Layer 1">
    <g
       id="g29910"
       transform="matrix(1.3333333,0,0,-1.3333333,13.012667,14.589333)">
      <path
         d="M 0,0 C 0.652,0 1.182,0.529 1.182,1.182 V 8.703 C 1.182,9.355 0.652,9.884 0,9.884 h -7.521 c -0.653,0 -1.18,-0.529 -1.18,-1.181 V 1.182 C -8.701,0.529 -8.174,0 -7.521,0 Z"
         style="fill:#231f20;fill-opacity:1;fill-rule:nonzero;stroke:none"
         id="path29912"
         inkscape:connector-curvature="0" />
    </g>
    <g
       id="g29914"
       transform="matrix(1.3333333,0,0,-1.3333333,2.9840005,1.6778635)">
      <path
         d="m 0,0 c -0.54,0 -0.98,-0.44 -0.98,-0.981 v -7.521 c 0,-0.542 0.44,-0.981 0.98,-0.981 h 7.521 c 0.542,0 0.982,0.439 0.982,0.981 v 7.521 C 8.503,-0.44 8.063,0 7.521,0 Z"
         style="fill:#ffffff;fill-opacity:1;fill-rule:nonzero;stroke:none"
         id="path29916"
         inkscape:connector-curvature="0" />
    </g>
    <path
       inkscape:connector-curvature="0"
       fill="param(fill)"
       fill-opacity="param(fill-opacity)"
       stroke="param(outline)"
       stroke-opacity="param(outline-opacity)"
       d="m 3.3540586,6.4497762 h 0.7288929 c 0.053505,0 0.096855,0.043372 0.096855,0.096855 V 8.6143527 H 5.1125596 V 5.2740713 H 4.1492203 c -0.053505,0 -0.096855,-0.043372 -0.096855,-0.096855 V 4.5366939 c 0,-0.053483 0.043353,-0.096855 0.096855,-0.096855 H 6.092908 c 0.053505,0 0.096855,0.043371 0.096855,0.096855 V 6.3172784 H 7.621166 C 7.68848,5.920773 7.9223854,5.4726437 8.3908737,5.4010485 c 0.080312,-0.019913 0.1643434,-0.030006 0.2498859,-0.030006 0.413281,0 0.8849461,0.2499249 0.9867601,0.7276144 0.00166,0.00751 0.00237,0.015206 0.00213,0.022877 -0.00242,0.087305 0.012997,0.1486726 0.04581,0.1824169 0.04349,0.044708 0.1314325,0.056622 0.2756692,0.036358 0.0045,-6.437e-4 0.009,-9.54e-4 0.013482,-9.54e-4 H 10.766973 V 4.6471259 c 0,-0.053482 0.04337,-0.096855 0.09685,-0.096855 h 0.993931 c 0.05348,0 0.09685,0.043372 0.09685,0.096855 v 1.648048 h 0.433233 c 0.02125,0 0.04192,0.00699 0.05882,0.019895 0.348098,0.2659642 0.50971,0.6210351 0.524026,1.15122 9.7e-5,0.00345 0,0.00688 -2.71e-4,0.010305 -0.0277,0.34709 -0.164577,0.7041955 -0.348272,0.9389915 h 0.273712 c 0.05349,0 0.09686,0.043354 0.09686,0.096855 v 0.7951417 c 0,0.053504 -0.04337,0.096855 -0.09686,0.096855 H 12.28551 c 0.188636,0.1778067 0.307148,0.4346845 0.307186,0.7204279 3.8e-5,0.536732 -0.417968,0.971882 -0.933664,0.971942 -0.515675,5.8e-5 -0.93378,-0.435016 -0.933819,-0.971748 v -1.94e-4 c 1.9e-5,-0.2857434 0.118551,-0.5426409 0.307186,-0.7204278 H 9.5911178 c 0.1755013,0.1766634 0.284793,0.4241472 0.2848317,0.6983448 3.87e-5,0.53675 -0.4179683,0.971922 -0.9336638,0.971959 -0.5156762,4e-5 -0.9337608,-0.435014 -0.9338193,-0.971766 v -1.93e-4 C 8.0085048,9.8286041 8.1177962,9.5810997 8.2932786,9.4044371 H 7.0060735 C 7.1690813,9.5793777 7.2695974,9.8177375 7.2696163,10.08068 7.2696554,10.617431 6.8516675,11.0526 6.3359521,11.052639 5.8202764,11.05268 5.4021913,10.617625 5.4021337,10.080873 V 10.08068 C 5.4021535,9.8177564 5.5026691,9.5793777 5.6656771,9.4044371 H 5.0191306 v 0.5878716 c 0,0.053505 -0.043353,0.096855 -0.096855,0.096855 H 4.6972798 c 0.082773,0.114502 0.1318788,0.25686 0.1318977,0.411188 1.89e-5,0.378162 -0.2944782,0.684765 -0.6578208,0.684804 -0.3633219,4e-5 -0.6578784,-0.306489 -0.6579171,-0.684649 v -1.55e-4 c 2.43e-5,-0.154327 0.049113,-0.296666 0.1319022,-0.411186 H 3.3540793 c -0.053505,0 -0.096854,-0.04335 -0.096854,-0.096856 V 6.5466313 c 0,-0.053482 0.043353,-0.096855 0.096854,-0.096855 z"
       id="path8"
       style="stroke-width:0.01937102" />
  </g>
</svg>
