<?xml version="1.0" encoding="UTF-8" standalone="no"?>
<!-- Created with Inkscape (http://www.inkscape.org/) -->

<svg
   xmlns:dc="http://purl.org/dc/elements/1.1/"
   xmlns:cc="http://creativecommons.org/ns#"
   xmlns:rdf="http://www.w3.org/1999/02/22-rdf-syntax-ns#"
   xmlns:svg="http://www.w3.org/2000/svg"
   xmlns="http://www.w3.org/2000/svg"
   xmlns:sodipodi="http://sodipodi.sourceforge.net/DTD/sodipodi-0.dtd"
   xmlns:inkscape="http://www.inkscape.org/namespaces/inkscape"
   width="16px"
   height="16px"
   viewBox="0 0 16 16"
   version="1.1"
   id="SVGRoot"
   inkscape:version="0.92.1 r15371"
   sodipodi:docname="Trailhead.svg">
  <sodipodi:namedview
     id="base"
     pagecolor="#ffffff"
     bordercolor="#666666"
     borderopacity="1.0"
     inkscape:pageopacity="0.0"
     inkscape:pageshadow="2"
     inkscape:zoom="16"
     inkscape:cx="8"
     inkscape:cy="8"
     inkscape:document-units="px"
     inkscape:current-layer="layer1"
     showgrid="false"
     inkscape:window-width="681"
     inkscape:window-height="696"
     inkscape:window-x="676"
     inkscape:window-y="0"
     inkscape:window-maximized="0"
     inkscape:grid-bbox="true" />
  <defs
     id="defs20207" />
  <metadata
     id="metadata20210">
    <rdf:RDF>
      <cc:Work
         rdf:about="">
        <dc:format>image/svg+xml</dc:format>
        <dc:type
           rdf:resource="http://purl.org/dc/dcmitype/StillImage" />
        <dc:title></dc:title>
      </cc:Work>
    </rdf:RDF>
  </metadata>
  <g
     id="layer1"
     inkscape:groupmode="layer"
     inkscape:label="Layer 1">
    <g
       id="g29990"
       transform="matrix(1.3333333,0,0,-1.3333333,13.015333,14.588667)">
      <path
         d="m 0,0 c 0.65,0 1.18,0.527 1.18,1.18 v 7.523 c 0,0.653 -0.53,1.18 -1.18,1.18 h -7.521 c -0.653,0 -1.182,-0.527 -1.182,-1.18 V 1.18 C -8.703,0.527 -8.174,0 -7.521,0 Z"
         style="fill:#231f20;fill-opacity:1;fill-rule:nonzero;stroke:none"
         id="path29992"
         inkscape:connector-curvature="0" />
    </g>
    <g
       id="g29994"
       transform="matrix(1.3333333,0,0,-1.3333333,2.9866669,1.6771965)">
      <path
         d="m 0,0 c -0.542,0 -0.981,-0.439 -0.981,-0.98 v -7.524 c 0,-0.539 0.439,-0.978 0.981,-0.978 h 7.521 c 0.541,0 0.98,0.439 0.98,0.978 V -0.98 C 8.501,-0.439 8.062,0 7.521,0 Z"
         style="fill:#ffffff;fill-opacity:1;fill-rule:nonzero;stroke:none"
         id="path29996"
         inkscape:connector-curvature="0" />
    </g>
    <g
       id="g29998"
       transform="matrix(1.3333333,0,0,-1.3333333,8.1481329,4.1562665)">
      <path
         d="m 0,0 c 0.365,0 0.66,0.297 0.66,0.662 0,0.365 -0.295,0.66 -0.66,0.66 -0.365,0 -0.662,-0.295 -0.662,-0.66 C -0.662,0.297 -0.365,0 0,0"
         style="fill:#231f20;fill-opacity:1;fill-rule:nonzero;stroke:none"
         id="path30000"
         inkscape:connector-curvature="0" />
    </g>
    <g
       id="g30002"
       transform="matrix(1.3333333,0,0,-1.3333333,6.6586669,4.3021365)">
      <path
         d="m 0,0 c 0.025,0.102 -0.039,0.203 -0.139,0.229 l -0.55,0.132 C -0.793,0.385 -0.895,0.324 -0.918,0.223 l -0.463,-1.916 c -0.025,-0.102 0.037,-0.203 0.139,-0.229 l 0.553,-0.133 c 0.099,-0.025 0.203,0.037 0.226,0.139 z"
         style="fill:#231f20;fill-opacity:1;fill-rule:nonzero;stroke:none"
         id="path30004"
         inkscape:connector-curvature="0" />
    </g>
    <g
       id="g30006"
       transform="matrix(1.3333333,0,0,-1.3333333,10.047867,13.388137)">
      <path
         d="m 0,0 c 0,-0.004 -0.002,-0.008 -0.002,-0.01 0,-0.084 0.068,-0.152 0.152,-0.152 0.077,0 0.141,0.059 0.151,0.133 L 1.41,5.988 V 6 C 1.41,6.082 1.344,6.15 1.26,6.15 1.184,6.15 1.125,6.092 1.109,6.018 Z"
         style="fill:#231f20;fill-opacity:1;fill-rule:nonzero;stroke:none"
         id="path30008"
         inkscape:connector-curvature="0" />
    </g>
    <g
       id="g30010"
       transform="matrix(1.3333333,0,0,-1.3333333,5.1273339,12.861997)">
      <path
         d="m 0,0 c -0.006,-0.031 -0.008,-0.062 -0.008,-0.094 0,-0.258 0.207,-0.465 0.465,-0.465 0.211,0 0.389,0.141 0.445,0.332 L 1.701,3.08 2.463,-0.207 c 0.049,-0.203 0.232,-0.352 0.449,-0.352 0.258,0 0.465,0.207 0.465,0.465 0,0.035 -0.004,0.069 -0.01,0.102 L 2.322,4.375 2.41,4.76 2.479,4.457 C 2.541,4.26 2.721,4.24 2.721,4.24 L 3.797,3.967 C 3.818,3.963 3.84,3.961 3.861,3.961 c 0.176,0 0.319,0.141 0.319,0.316 0,0.151 -0.104,0.278 -0.244,0.311 L 3.004,4.822 2.748,5.861 C 2.627,6.441 2.072,6.428 2.072,6.428 1.533,6.441 1.398,5.875 1.398,5.875 Z"
         style="fill:#231f20;fill-opacity:1;fill-rule:nonzero;stroke:none"
         id="path30012"
         inkscape:connector-curvature="0" />
    </g>
  </g>
</svg>
