<?xml version="1.0" encoding="UTF-8" standalone="no"?>
<!-- Created with Inkscape (http://www.inkscape.org/) -->

<svg
   xmlns:dc="http://purl.org/dc/elements/1.1/"
   xmlns:cc="http://creativecommons.org/ns#"
   xmlns:rdf="http://www.w3.org/1999/02/22-rdf-syntax-ns#"
   xmlns:svg="http://www.w3.org/2000/svg"
   xmlns="http://www.w3.org/2000/svg"
   xmlns:sodipodi="http://sodipodi.sourceforge.net/DTD/sodipodi-0.dtd"
   xmlns:inkscape="http://www.inkscape.org/namespaces/inkscape"
   width="16px"
   height="16px"
   viewBox="0 0 16 16"
   version="1.1"
   id="SVGRoot"
   inkscape:version="0.92.1 r15371"
   sodipodi:docname="Train.svg">
  <sodipodi:namedview
     id="base"
     pagecolor="#ffffff"
     bordercolor="#666666"
     borderopacity="1.0"
     inkscape:pageopacity="0.0"
     inkscape:pageshadow="2"
     inkscape:zoom="16"
     inkscape:cx="-0.87316946"
     inkscape:cy="8"
     inkscape:document-units="px"
     inkscape:current-layer="layer1"
     showgrid="false"
     inkscape:window-width="1366"
     inkscape:window-height="705"
     inkscape:window-x="-8"
     inkscape:window-y="-8"
     inkscape:window-maximized="1"
     inkscape:grid-bbox="true" />
  <defs
     id="defs20207" />
  <metadata
     id="metadata20210">
    <rdf:RDF>
      <cc:Work
         rdf:about="">
        <dc:format>image/svg+xml</dc:format>
        <dc:type
           rdf:resource="http://purl.org/dc/dcmitype/StillImage" />
        <dc:title></dc:title>
      </cc:Work>
    </rdf:RDF>
  </metadata>
  <g
     id="layer1"
     inkscape:groupmode="layer"
     inkscape:label="Layer 1">
    <g
       id="g29910"
       transform="matrix(1.3333333,0,0,-1.3333333,13.012667,14.589333)">
      <path
         d="M 0,0 C 0.652,0 1.182,0.529 1.182,1.182 V 8.703 C 1.182,9.355 0.652,9.884 0,9.884 h -7.521 c -0.653,0 -1.18,-0.529 -1.18,-1.181 V 1.182 C -8.701,0.529 -8.174,0 -7.521,0 Z"
         style="fill:#231f20;fill-opacity:1;fill-rule:nonzero;stroke:none"
         id="path29912"
         inkscape:connector-curvature="0" />
    </g>
    <g
       id="g29914"
       transform="matrix(1.3333333,0,0,-1.3333333,2.9840005,1.6778635)">
      <path
         d="m 0,0 c -0.54,0 -0.98,-0.44 -0.98,-0.981 v -7.521 c 0,-0.542 0.44,-0.981 0.98,-0.981 h 7.521 c 0.542,0 0.982,0.439 0.982,0.981 v 7.521 C 8.503,-0.44 8.063,0 7.521,0 Z"
         style="fill:#ffffff;fill-opacity:1;fill-rule:nonzero;stroke:none"
         id="path29916"
         inkscape:connector-curvature="0" />
    </g>
    <path
       inkscape:connector-curvature="0"
       fill="param(fill)"
       fill-opacity="param(fill-opacity)"
       stroke="param(outline)"
       stroke-opacity="param(outline-opacity)"
       d="m 9.904913,10.461905 c 0.51657,-0.08323 1.030879,-0.6217826 1.030879,-1.2783926 V 4.3829563 c 0,-0.6777513 -0.570533,-1.2997888 -1.3451315,-1.2997888 l -1.6505656,-0.00125 -1.6631588,0.00125 c -0.7746172,0 -1.344513,0.6220557 -1.344513,1.2997888 v 4.8005561 c 0,0.656592 0.5137081,1.1951406 1.0302593,1.2783926 l -1.5491608,2.323779 h 0.8942279 l 1.107733,-1.624121 h 1.5170672 0.00124 0.00124 1.5170492 l 1.1077331,1.624121 H 11.45404 Z M 7.0609763,3.5768827 c 0,-0.1178428 0.1025513,-0.2166405 0.2204124,-0.2166405 h 0.651161 0.00124 0.00124 0.6511611 c 0.117861,0 0.2204131,0.09878 0.2204131,0.2166405 v 0.3816315 c 0,0.1178429 -0.096939,0.2191374 -0.2204131,0.2191374 h -0.6511611 -0.00124 -0.00124 -0.651161 c -0.1234561,0 -0.2204124,-0.1012945 -0.2204124,-0.2191374 z M 6.2486144,9.7616272 c -0.3256071,0 -0.5894505,-0.2638615 -0.5894505,-0.5894325 0,-0.325626 0.2638434,-0.5894694 0.5894505,-0.5894694 0.3256079,0 0.5900708,0.2638434 0.5900708,0.5894694 0,0.3255892 -0.2644812,0.5894325 -0.5900708,0.5894325 z M 7.9338073,6.6431296 H 7.932568 6.3216602 c -0.3704042,0 -0.6734684,-0.2547672 -0.6700596,-0.6700603 V 5.1090585 c 0,-0.35916 0.232314,-0.6725571 0.6700596,-0.6725571 h 1.6109078 0.00256 1.6108888 c 0.4377472,0 0.6700612,0.3133971 0.6700612,0.6725571 v 0.8640108 c 0.0034,0.4152931 -0.299656,0.6700603 -0.6700612,0.6700603 H 7.9351195 Z m 1.0819089,2.5290651 c 0,-0.325626 0.2638433,-0.5894694 0.5894334,-0.5894694 0.3256074,0 0.5894504,0.2638434 0.5894504,0.5894694 0,0.325571 -0.263843,0.5894325 -0.5894504,0.5894325 -0.3255901,0 -0.5894334,-0.2638433 -0.5894334,-0.5894325 z"
       id="path8"
       style="stroke-width:0.018225" />
  </g>
</svg>
