<?xml version="1.0" encoding="UTF-8" standalone="no"?>
<!-- Created with Inkscape (http://www.inkscape.org/) -->

<svg
   xmlns:dc="http://purl.org/dc/elements/1.1/"
   xmlns:cc="http://creativecommons.org/ns#"
   xmlns:rdf="http://www.w3.org/1999/02/22-rdf-syntax-ns#"
   xmlns:svg="http://www.w3.org/2000/svg"
   xmlns="http://www.w3.org/2000/svg"
   xmlns:sodipodi="http://sodipodi.sourceforge.net/DTD/sodipodi-0.dtd"
   xmlns:inkscape="http://www.inkscape.org/namespaces/inkscape"
   width="16px"
   height="16px"
   viewBox="0 0 16 16"
   version="1.1"
   id="SVGRoot"
   inkscape:version="0.92.1 r15371"
   sodipodi:docname="Train2.svg">
  <sodipodi:namedview
     id="base"
     pagecolor="#ffffff"
     bordercolor="#666666"
     borderopacity="1.0"
     inkscape:pageopacity="0.0"
     inkscape:pageshadow="2"
     inkscape:zoom="16"
     inkscape:cx="-8.2729676"
     inkscape:cy="8"
     inkscape:document-units="px"
     inkscape:current-layer="layer1"
     showgrid="false"
     inkscape:window-width="1366"
     inkscape:window-height="705"
     inkscape:window-x="-8"
     inkscape:window-y="-8"
     inkscape:window-maximized="1"
     inkscape:grid-bbox="true" />
  <defs
     id="defs20207" />
  <metadata
     id="metadata20210">
    <rdf:RDF>
      <cc:Work
         rdf:about="">
        <dc:format>image/svg+xml</dc:format>
        <dc:type
           rdf:resource="http://purl.org/dc/dcmitype/StillImage" />
        <dc:title />
      </cc:Work>
    </rdf:RDF>
  </metadata>
  <g
     id="layer1"
     inkscape:groupmode="layer"
     inkscape:label="Layer 1">
    <g
       id="g29910"
       transform="matrix(1.3333333,0,0,-1.3333333,13.012667,14.589333)">
      <path
         d="M 0,0 C 0.652,0 1.182,0.529 1.182,1.182 V 8.703 C 1.182,9.355 0.652,9.884 0,9.884 h -7.521 c -0.653,0 -1.18,-0.529 -1.18,-1.181 V 1.182 C -8.701,0.529 -8.174,0 -7.521,0 Z"
         style="fill:#231f20;fill-opacity:1;fill-rule:nonzero;stroke:none"
         id="path29912"
         inkscape:connector-curvature="0" />
    </g>
    <g
       id="g29914"
       transform="matrix(1.3333333,0,0,-1.3333333,2.9840005,1.6778635)">
      <path
         d="m 0,0 c -0.54,0 -0.98,-0.44 -0.98,-0.981 v -7.521 c 0,-0.542 0.44,-0.981 0.98,-0.981 h 7.521 c 0.542,0 0.982,0.439 0.982,0.981 v 7.521 C 8.503,-0.44 8.063,0 7.521,0 Z"
         style="fill:#ffffff;fill-opacity:1;fill-rule:nonzero;stroke:none"
         id="path29916"
         inkscape:connector-curvature="0" />
    </g>
    <path
       inkscape:connector-curvature="0"
       fill="param(fill)"
       fill-opacity="param(fill-opacity)"
       stroke="param(outline)"
       stroke-opacity="param(outline-opacity)"
       d="m 4.3082406,6.7223204 h 0.5831143 c 0.042804,0 0.077484,0.034698 0.077484,0.077484 V 8.4539816 H 5.7150414 V 5.7817565 H 4.94437 c -0.042804,0 -0.077484,-0.034698 -0.077484,-0.077484 V 5.1918546 c 0,-0.042786 0.034682,-0.077484 0.077484,-0.077484 h 1.5549501 c 0.042804,0 0.077484,0.034697 0.077484,0.077484 V 6.6163222 H 7.7219265 C 7.7757777,6.2991179 7.962902,5.9406144 8.3376927,5.8833383 c 0.06425,-0.01593 0.1314747,-0.024005 0.1999087,-0.024005 0.3306248,0 0.7079569,0.1999399 0.7894081,0.5820915 0.00133,0.00601 0.0019,0.012165 0.0017,0.018302 -0.00194,0.069844 0.010398,0.1189381 0.036648,0.1459335 0.034792,0.035766 0.105146,0.045298 0.2205353,0.029086 0.0036,-5.15e-4 0.0072,-7.632e-4 0.010786,-7.632e-4 H 10.238572 V 5.2802002 c 0,-0.042786 0.0347,-0.077484 0.07748,-0.077484 h 0.795145 c 0.04278,0 0.07748,0.034698 0.07748,0.077484 v 1.3184384 h 0.346586 c 0.017,0 0.03354,0.00559 0.04706,0.015916 0.278479,0.2127713 0.407768,0.4968281 0.419221,0.920976 7.8e-5,0.00276 0,0.0055 -2.17e-4,0.00824 -0.02216,0.277672 -0.131661,0.5633564 -0.278617,0.7511932 h 0.218969 c 0.04279,0 0.07749,0.034683 0.07749,0.077484 v 0.6361133 c 0,0.042803 -0.0347,0.077484 -0.07749,0.077484 h -0.488273 c 0.150909,0.1422454 0.245718,0.3477476 0.245749,0.5763424 3e-5,0.4293855 -0.334375,0.7775055 -0.746932,0.7775535 -0.41254,4.6e-5 -0.747024,-0.348013 -0.747055,-0.7773983 v -1.552e-4 c 1.5e-5,-0.2285948 0.09484,-0.4341128 0.245749,-0.5763423 H 9.297888 c 0.140401,0.1413307 0.2278344,0.3393178 0.2278653,0.5586759 3.1e-5,0.4293999 -0.3343746,0.7775379 -0.746931,0.7775669 -0.412541,3.2e-5 -0.7470086,-0.348011 -0.7470554,-0.7774125 v -1.544e-4 c 3.07e-5,-0.2193424 0.087464,-0.4173459 0.2278497,-0.558676 H 7.2298525 C 7.3602588,9.2260016 7.4406717,9.4166895 7.4406868,9.6270435 7.4407181,10.056444 7.1063277,10.404579 6.6937554,10.404611 6.2812148,10.404643 5.9467468,10.056599 5.9467007,9.6271979 V 9.6270435 C 5.9467165,9.4167046 6.027129,9.2260016 6.1575354,9.0860491 H 5.6402982 v 0.4702973 c 0,0.042804 -0.034682,0.077484 -0.077484,0.077484 H 5.3828176 c 0.066218,0.091602 0.105503,0.205488 0.1055181,0.3289504 1.51e-5,0.3025292 -0.2355825,0.5478122 -0.5262566,0.5478432 -0.2906575,3.2e-5 -0.5263027,-0.245191 -0.5263337,-0.5477192 v -1.24e-4 C 4.4357648,9.8393192 4.4750358,9.725448 4.5412672,9.633832 h -0.23301 c -0.042804,0 -0.077483,-0.03468 -0.077483,-0.077485 V 6.7998045 c 0,-0.042786 0.034682,-0.077484 0.077483,-0.077484 z"
       id="path8"
       style="stroke-width:0.01549682" />
  </g>
</svg>
