<?xml version="1.0" encoding="UTF-8" standalone="no"?>
<!-- Created with Inkscape (http://www.inkscape.org/) -->

<svg
   xmlns:dc="http://purl.org/dc/elements/1.1/"
   xmlns:cc="http://creativecommons.org/ns#"
   xmlns:rdf="http://www.w3.org/1999/02/22-rdf-syntax-ns#"
   xmlns:svg="http://www.w3.org/2000/svg"
   xmlns="http://www.w3.org/2000/svg"
   xmlns:sodipodi="http://sodipodi.sourceforge.net/DTD/sodipodi-0.dtd"
   xmlns:inkscape="http://www.inkscape.org/namespaces/inkscape"
   width="16px"
   height="16px"
   viewBox="0 0 16 16"
   version="1.1"
   id="SVGRoot"
   inkscape:version="0.92.1 r15371"
   sodipodi:docname="Train.svg">
  <sodipodi:namedview
     id="base"
     pagecolor="#ffffff"
     bordercolor="#666666"
     borderopacity="1.0"
     inkscape:pageopacity="0.0"
     inkscape:pageshadow="2"
     inkscape:zoom="16"
     inkscape:cx="-11.529419"
     inkscape:cy="8"
     inkscape:document-units="px"
     inkscape:current-layer="layer1"
     showgrid="false"
     inkscape:window-width="1366"
     inkscape:window-height="705"
     inkscape:window-x="-8"
     inkscape:window-y="-8"
     inkscape:window-maximized="1"
     inkscape:grid-bbox="true" />
  <defs
     id="defs20207" />
  <metadata
     id="metadata20210">
    <rdf:RDF>
      <cc:Work
         rdf:about="">
        <dc:format>image/svg+xml</dc:format>
        <dc:type
           rdf:resource="http://purl.org/dc/dcmitype/StillImage" />
        <dc:title />
      </cc:Work>
    </rdf:RDF>
  </metadata>
  <g
     id="layer1"
     inkscape:groupmode="layer"
     inkscape:label="Layer 1">
    <g
       id="g29910"
       transform="matrix(1.3333333,0,0,-1.3333333,13.012667,14.589333)">
      <path
         d="M 0,0 C 0.652,0 1.182,0.529 1.182,1.182 V 8.703 C 1.182,9.355 0.652,9.884 0,9.884 h -7.521 c -0.653,0 -1.18,-0.529 -1.18,-1.181 V 1.182 C -8.701,0.529 -8.174,0 -7.521,0 Z"
         style="fill:#231f20;fill-opacity:1;fill-rule:nonzero;stroke:none"
         id="path29912"
         inkscape:connector-curvature="0" />
    </g>
    <g
       id="g29914"
       transform="matrix(1.3333333,0,0,-1.3333333,2.9840005,1.6778635)">
      <path
         d="m 0,0 c -0.54,0 -0.98,-0.44 -0.98,-0.981 v -7.521 c 0,-0.542 0.44,-0.981 0.98,-0.981 h 7.521 c 0.542,0 0.982,0.439 0.982,0.981 v 7.521 C 8.503,-0.44 8.063,0 7.521,0 Z"
         style="fill:#ffffff;fill-opacity:1;fill-rule:nonzero;stroke:none"
         id="path29916"
         inkscape:connector-curvature="0" />
    </g>
    <path
       inkscape:connector-curvature="0"
       fill="param(fill)"
       fill-opacity="param(fill-opacity)"
       stroke="param(outline)"
       stroke-opacity="param(outline-opacity)"
       d="M 9.5106866,9.9562841 C 9.9239426,9.8897002 10.33539,9.4588581 10.33539,8.9335701 V 5.0931252 c 0,-0.5422011 -0.4564266,-1.0398311 -1.0761054,-1.0398311 l -1.3204525,-10e-4 -1.3305271,10e-4 c -0.6196937,0 -1.0756104,0.4976446 -1.0756104,1.0398311 v 3.8404449 c 0,0.5252736 0.4109665,0.9561125 0.8242075,1.022714 L 5.1175734,11.815307 h 0.7153824 l 0.8861864,-1.299296 h 1.2136537 9.92e-4 9.92e-4 1.2136394 l 0.8861867,1.299296 h 0.715382 z M 7.2355372,4.4482663 c 0,-0.094274 0.082041,-0.1733124 0.1763299,-0.1733124 h 0.5209288 9.92e-4 9.92e-4 0.5209289 c 0.094289,0 0.1763305,0.079024 0.1763305,0.1733124 v 0.3053052 c 0,0.094274 -0.077551,0.1753099 -0.1763305,0.1753099 h -0.5209289 -9.92e-4 -9.92e-4 -0.5209288 c -0.098765,0 -0.1763299,-0.081036 -0.1763299,-0.1753099 z M 6.5856477,9.3960619 c -0.2604857,0 -0.4715604,-0.2110892 -0.4715604,-0.471546 0,-0.2605008 0.2110747,-0.4715755 0.4715604,-0.4715755 0.2604863,0 0.4720566,0.2110747 0.4720566,0.4715755 0,0.2604714 -0.2115849,0.471546 -0.4720566,0.471546 z M 7.933802,6.9012638 H 7.9328106 6.6440843 c -0.2963233,0 -0.5387747,-0.2038137 -0.5360477,-0.5360482 V 5.6740069 c 0,-0.287328 0.1858512,-0.5380456 0.5360477,-0.5380456 h 1.2887263 0.00205 1.288711 c 0.3501978,0 0.536049,0.2507176 0.536049,0.5380456 v 0.6912087 c 0.00272,0.3322345 -0.2397248,0.5360482 -0.536049,0.5360482 H 7.9348518 Z m 0.8655271,2.0232521 c 0,-0.2605008 0.2110747,-0.4715755 0.4715467,-0.4715755 0.260486,0 0.4715604,0.2110747 0.4715604,0.4715755 0,0.2604568 -0.2110744,0.471546 -0.4715604,0.471546 -0.260472,0 -0.4715467,-0.2110746 -0.4715467,-0.471546 z"
       id="path8"
       style="stroke-width:0.01458" />
  </g>
</svg>
