<?xml version="1.0" encoding="UTF-8" standalone="no"?>
<!-- Created with Inkscape (http://www.inkscape.org/) -->

<svg
   xmlns:dc="http://purl.org/dc/elements/1.1/"
   xmlns:cc="http://creativecommons.org/ns#"
   xmlns:rdf="http://www.w3.org/1999/02/22-rdf-syntax-ns#"
   xmlns:svg="http://www.w3.org/2000/svg"
   xmlns="http://www.w3.org/2000/svg"
   xmlns:sodipodi="http://sodipodi.sourceforge.net/DTD/sodipodi-0.dtd"
   xmlns:inkscape="http://www.inkscape.org/namespaces/inkscape"
   width="16px"
   height="16px"
   viewBox="0 0 16 16"
   version="1.1"
   id="SVGRoot"
   inkscape:version="0.92.1 r15371"
   sodipodi:docname="Viewing area.svg">
  <sodipodi:namedview
     id="base"
     pagecolor="#ffffff"
     bordercolor="#666666"
     borderopacity="1.0"
     inkscape:pageopacity="0.0"
     inkscape:pageshadow="2"
     inkscape:zoom="16"
     inkscape:cx="8"
     inkscape:cy="8"
     inkscape:document-units="px"
     inkscape:current-layer="layer1"
     showgrid="false"
     inkscape:window-width="681"
     inkscape:window-height="696"
     inkscape:window-x="676"
     inkscape:window-y="0"
     inkscape:window-maximized="0"
     inkscape:grid-bbox="true" />
  <defs
     id="defs20207" />
  <metadata
     id="metadata20210">
    <rdf:RDF>
      <cc:Work
         rdf:about="">
        <dc:format>image/svg+xml</dc:format>
        <dc:type
           rdf:resource="http://purl.org/dc/dcmitype/StillImage" />
        <dc:title></dc:title>
      </cc:Work>
    </rdf:RDF>
  </metadata>
  <g
     id="layer1"
     inkscape:groupmode="layer"
     inkscape:label="Layer 1">
    <g
       id="g12205"
       transform="matrix(1.3333333,0,0,-1.3333333,13.014,14.588667)">
      <path
         d="M 0,0 C 0.652,0 1.182,0.527 1.182,1.18 V 8.701 C 1.182,9.354 0.652,9.883 0,9.883 h -7.521 c -0.653,0 -1.182,-0.529 -1.182,-1.182 V 1.18 C -8.703,0.527 -8.174,0 -7.521,0 Z"
         style="fill:#231f20;fill-opacity:1;fill-rule:nonzero;stroke:none"
         id="path12207"
         inkscape:connector-curvature="0" />
    </g>
    <g
       id="g12209"
       transform="matrix(1.3333333,0,0,-1.3333333,2.9854666,1.6785365)">
      <path
         d="m 0,0 c -0.541,0 -0.981,-0.44 -0.981,-0.981 v -7.522 c 0,-0.54 0.44,-0.979 0.981,-0.979 h 7.521 c 0.542,0 0.982,0.439 0.982,0.979 v 7.522 C 8.503,-0.44 8.063,0 7.521,0 Z"
         style="fill:#ffffff;fill-opacity:1;fill-rule:nonzero;stroke:none"
         id="path12211"
         inkscape:connector-curvature="0" />
    </g>
    <g
       id="g12213"
       transform="matrix(1.3333333,0,0,-1.3333333,3.1989336,3.5808065)">
      <path
         d="M 0,0 H 2.865 V -0.277 H 2.588 V -0.584 L 0,-0.809 Z"
         style="fill:#231f20;fill-opacity:1;fill-rule:nonzero;stroke:none"
         id="path12215"
         inkscape:connector-curvature="0" />
    </g>
    <g
       id="g12217"
       transform="matrix(1.3333333,0,0,-1.3333333,8.6234666,4.6849365)">
      <path
         d="M 0,0 C 0.365,0 0.66,0.295 0.66,0.66 0.66,1.025 0.365,1.322 0,1.322 -0.365,1.322 -0.662,1.025 -0.662,0.66 -0.662,0.295 -0.365,0 0,0"
         style="fill:#231f20;fill-opacity:1;fill-rule:nonzero;stroke:none"
         id="path12219"
         inkscape:connector-curvature="0" />
    </g>
    <g
       id="g12221"
       transform="matrix(1.3333333,0,0,-1.3333333,9.2901336,4.6354665)">
      <path
         d="m 0,0 c 0.189,0.187 0.494,0.187 0.684,0 l 1.429,-1.428 c 0.055,-0.054 0.088,-0.131 0.088,-0.213 v -4.285 c 0,-0.295 -0.238,-0.533 -0.533,-0.533 -0.295,0 -0.537,0.238 -0.537,0.533 v 3.535 l -1.332,1.334 -0.533,-0.533 c -0.061,-0.072 -0.151,-0.119 -0.254,-0.119 -0.096,0 -0.182,0.041 -0.242,0.107 l -0.918,0.92 c -0.118,0.139 -0.108,0.35 0.031,0.467 0.138,0.117 0.346,0.098 0.463,-0.041 l 0.697,-0.701 z"
         style="fill:#231f20;fill-opacity:1;fill-rule:nonzero;stroke:none"
         id="path12223"
         inkscape:connector-curvature="0" />
    </g>
    <g
       id="g12225"
       transform="matrix(1.3333333,0,0,-1.3333333,5.5843996,4.9064065)">
      <path
         d="m 0,0 c -0.014,0.065 -0.07,0.111 -0.137,0.111 -0.068,0 -0.125,-0.049 -0.136,-0.115 l -0.223,-1.275 v -4.944 h 1.887 v 0.702 H 0.232 l -0.007,4.242 z"
         style="fill:#231f20;fill-opacity:1;fill-rule:nonzero;stroke:none"
         id="path12227"
         inkscape:connector-curvature="0" />
    </g>
  </g>
</svg>
