<?xml version="1.0" encoding="UTF-8" standalone="no"?>
<!-- Created with Inkscape (http://www.inkscape.org/) -->

<svg
   xmlns:dc="http://purl.org/dc/elements/1.1/"
   xmlns:cc="http://creativecommons.org/ns#"
   xmlns:rdf="http://www.w3.org/1999/02/22-rdf-syntax-ns#"
   xmlns:svg="http://www.w3.org/2000/svg"
   xmlns="http://www.w3.org/2000/svg"
   xmlns:sodipodi="http://sodipodi.sourceforge.net/DTD/sodipodi-0.dtd"
   xmlns:inkscape="http://www.inkscape.org/namespaces/inkscape"
   width="16px"
   height="16px"
   viewBox="0 0 16 16"
   version="1.1"
   id="SVGRoot"
   inkscape:version="0.92.1 r15371"
   sodipodi:docname="Waterfall.svg">
  <sodipodi:namedview
     id="base"
     pagecolor="#ffffff"
     bordercolor="#666666"
     borderopacity="1.0"
     inkscape:pageopacity="0.0"
     inkscape:pageshadow="2"
     inkscape:zoom="16"
     inkscape:cx="8"
     inkscape:cy="8"
     inkscape:document-units="px"
     inkscape:current-layer="layer1"
     showgrid="false"
     inkscape:window-width="681"
     inkscape:window-height="696"
     inkscape:window-x="676"
     inkscape:window-y="0"
     inkscape:window-maximized="0"
     inkscape:grid-bbox="true" />
  <defs
     id="defs20207" />
  <metadata
     id="metadata20210">
    <rdf:RDF>
      <cc:Work
         rdf:about="">
        <dc:format>image/svg+xml</dc:format>
        <dc:type
           rdf:resource="http://purl.org/dc/dcmitype/StillImage" />
        <dc:title></dc:title>
      </cc:Work>
    </rdf:RDF>
  </metadata>
  <g
     id="layer1"
     inkscape:groupmode="layer"
     inkscape:label="Layer 1">
    <g
       id="g15415"
       transform="matrix(1.3333333,0,0,-1.3333333,2.9820001,14.592667)">
      <path
         d="m 0,0 c -0.652,0 -1.182,0.529 -1.182,1.184 v 7.523 c 0,0.652 0.53,1.182 1.182,1.182 h 7.527 c 0.653,0 1.182,-0.53 1.182,-1.182 V 1.184 C 8.709,0.529 8.18,0 7.527,0 Z"
         style="fill:#231f20;fill-opacity:1;fill-rule:nonzero;stroke:none"
         id="path15417"
         inkscape:connector-curvature="0" />
    </g>
    <g
       id="g15419"
       transform="matrix(1.3333333,0,0,-1.3333333,2.9820001,1.6734665)">
      <path
         d="m 0,0 c -0.541,0 -0.98,-0.441 -0.98,-0.982 v -7.524 c 0,-0.541 0.439,-0.982 0.98,-0.982 h 7.527 c 0.541,0 0.983,0.441 0.983,0.982 v 7.524 C 8.51,-0.441 8.068,0 7.527,0 Z"
         style="fill:#ffffff;fill-opacity:1;fill-rule:nonzero;stroke:none"
         id="path15421"
         inkscape:connector-curvature="0" />
    </g>
    <g
       id="g15423"
       transform="matrix(1.3333333,0,0,-1.3333333,5.1116001,4.3225365)">
      <path
         d="m 0,0 c 0.467,-0.464 0.693,-1.469 0.693,-3.071 0,-0.022 -0.002,-0.539 0.044,-1.089 0.029,-0.349 0.07,-0.611 0.118,-0.807 0.09,0.021 0.184,0.032 0.28,0.032 0.079,0 0.156,-0.008 0.232,-0.023 -0.103,0.348 -0.178,1.117 -0.174,1.885 0,1.616 -0.223,2.664 -0.699,3.268 0.138,-0.059 0.265,-0.134 0.381,-0.233 0.202,-0.171 0.817,-0.692 0.882,-3.042 0.03,-1.11 0.14,-1.725 0.262,-2.072 0.048,-0.006 0.096,-0.009 0.145,-0.009 0.129,0 0.254,0.021 0.372,0.058 -0.11,0.217 -0.247,0.853 -0.28,2.037 -0.046,1.671 -0.367,2.637 -0.843,3.195 0.845,-0.364 1.341,-1.219 1.407,-3.21 0.026,-0.802 0.104,-1.424 0.232,-1.862 0.047,0.005 0.094,0.008 0.143,0.008 0.142,0 0.279,-0.025 0.406,-0.069 -0.11,0.278 -0.246,0.855 -0.282,1.939 -0.052,1.584 -0.388,2.537 -0.923,3.109 0.11,-0.051 0.215,-0.108 0.314,-0.175 0.741,-0.497 1.114,-1.435 1.173,-2.952 0.026,-0.673 0.091,-1.513 0.327,-2.078 0.004,0 0.009,0 0.014,0 0.173,0 0.338,0.037 0.488,0.102 -0.129,0.26 -0.284,0.814 -0.33,1.996 -0.058,1.495 -0.417,2.428 -0.98,3.01 0.077,-0.038 0.152,-0.077 0.224,-0.121 0.834,-0.511 1.253,-1.436 1.32,-2.91 0.037,-0.828 0.113,-1.426 0.246,-1.853 0.02,0.001 0.041,0.002 0.061,0.002 0.185,0 0.361,-0.042 0.519,-0.113 C 5.623,-4.759 5.496,-4.199 5.445,-3.062 5.372,-1.429 4.862,-0.345 3.887,0.252 2.969,0.814 1.716,0.891 0.499,0.891 H -0.034 -0.363 -0.379 -1.204 -1.515 -1.593 -1.709 V 0.568 h 0.198 C -0.902,0.568 -0.377,0.375 0,0"
         style="fill:#231f20;fill-opacity:1;fill-rule:nonzero;stroke:none"
         id="path15425"
         inkscape:connector-curvature="0" />
    </g>
    <g
       id="g15427"
       transform="matrix(1.3333333,0,0,-1.3333333,13.48826,12.707337)">
      <path
         d="M 0,0 C -0.18,0 -0.352,0.041 -0.506,0.109 -0.665,0.184 -0.843,0.227 -1.029,0.227 -1.215,0.227 -1.394,0.184 -1.551,0.109 -1.706,0.041 -1.878,0 -2.059,0 -2.238,0 -2.411,0.041 -2.566,0.109 -2.725,0.184 -2.902,0.227 -3.088,0.227 -3.274,0.227 -3.452,0.184 -3.611,0.109 -3.765,0.041 -3.938,0 -4.118,0 -4.298,0 -4.472,0.041 -4.625,0.109 -4.784,0.184 -4.962,0.227 -5.147,0.227 -5.334,0.227 -5.513,0.184 -5.67,0.109 -5.824,0.041 -5.997,0 -6.177,0 -6.357,0 -6.53,0.041 -6.685,0.109 -6.843,0.184 -7.021,0.227 -7.207,0.227 -7.393,0.227 -7.571,0.184 -7.729,0.109 -7.884,0.041 -8.057,0 -8.236,0 v 0.76 c 0.179,0 0.352,0.041 0.507,0.111 0.158,0.072 0.336,0.115 0.522,0.115 0.186,0 0.364,-0.043 0.522,-0.115 0.155,-0.07 0.328,-0.111 0.508,-0.111 0.18,0 0.353,0.041 0.507,0.111 0.157,0.072 0.336,0.115 0.523,0.115 0.185,0 0.363,-0.043 0.522,-0.115 0.153,-0.07 0.327,-0.111 0.507,-0.111 0.18,0 0.353,0.041 0.507,0.111 0.159,0.072 0.337,0.115 0.523,0.115 0.186,0 0.363,-0.043 0.522,-0.115 0.155,-0.07 0.328,-0.111 0.507,-0.111 0.181,0 0.353,0.041 0.508,0.111 0.157,0.072 0.336,0.115 0.522,0.115 0.186,0 0.364,-0.043 0.523,-0.115 C -0.352,0.801 -0.18,0.76 0,0.76 Z"
         style="fill:#231f20;fill-opacity:1;fill-rule:nonzero;stroke:none"
         id="path15429"
         inkscape:connector-curvature="0" />
    </g>
  </g>
</svg>
