<?xml version="1.0" encoding="UTF-8" standalone="no"?>
<!-- Created with Inkscape (http://www.inkscape.org/) -->

<svg
   xmlns:dc="http://purl.org/dc/elements/1.1/"
   xmlns:cc="http://creativecommons.org/ns#"
   xmlns:rdf="http://www.w3.org/1999/02/22-rdf-syntax-ns#"
   xmlns:svg="http://www.w3.org/2000/svg"
   xmlns="http://www.w3.org/2000/svg"
   xmlns:sodipodi="http://sodipodi.sourceforge.net/DTD/sodipodi-0.dtd"
   xmlns:inkscape="http://www.inkscape.org/namespaces/inkscape"
   width="16px"
   height="16px"
   viewBox="0 0 16 16"
   version="1.1"
   id="SVGRoot"
   inkscape:version="0.92.1 r15371"
   sodipodi:docname="Waterfowl.svg">
  <sodipodi:namedview
     id="base"
     pagecolor="#ffffff"
     bordercolor="#666666"
     borderopacity="1.0"
     inkscape:pageopacity="0.0"
     inkscape:pageshadow="2"
     inkscape:zoom="16"
     inkscape:cx="1.15625"
     inkscape:cy="8"
     inkscape:document-units="px"
     inkscape:current-layer="layer1"
     showgrid="false"
     inkscape:window-width="1366"
     inkscape:window-height="705"
     inkscape:window-x="-8"
     inkscape:window-y="-8"
     inkscape:window-maximized="1"
     inkscape:grid-bbox="true" />
  <defs
     id="defs20207" />
  <metadata
     id="metadata20210">
    <rdf:RDF>
      <cc:Work
         rdf:about="">
        <dc:format>image/svg+xml</dc:format>
        <dc:type
           rdf:resource="http://purl.org/dc/dcmitype/StillImage" />
        <dc:title></dc:title>
      </cc:Work>
    </rdf:RDF>
  </metadata>
  <g
     id="layer1"
     inkscape:groupmode="layer"
     inkscape:label="Layer 1">
    <g
       id="g30314"
       transform="matrix(1.3333333,0,0,-1.3333333,13.014,14.588667)">
      <path
         d="M 0,0 C 0.652,0 1.182,0.527 1.182,1.18 V 8.701 C 1.182,9.354 0.652,9.883 0,9.883 h -7.521 c -0.653,0 -1.182,-0.529 -1.182,-1.182 V 1.18 C -8.703,0.527 -8.174,0 -7.521,0 Z"
         style="fill:#231f20;fill-opacity:1;fill-rule:nonzero;stroke:none"
         id="path30316"
         inkscape:connector-curvature="0" />
    </g>
    <g
       id="g30318"
       transform="matrix(1.3333333,0,0,-1.3333333,2.9853336,1.6771965)">
      <path
         d="m 0,0 c -0.542,0 -0.981,-0.441 -0.981,-0.982 v -7.522 c 0,-0.539 0.439,-0.978 0.981,-0.978 h 7.521 c 0.542,0 0.982,0.439 0.982,0.978 v 7.522 C 8.503,-0.441 8.063,0 7.521,0 Z"
         style="fill:#ffffff;fill-opacity:1;fill-rule:nonzero;stroke:none"
         id="path30320"
         inkscape:connector-curvature="0" />
    </g>
    <g
       id="g278"
       transform="matrix(1.3333333,0,0,-1.3333333,3.4905174,9.0019012)">
      <path
         d="m 0,0 -0.513,0.346 c 0,0 2.128,0.634 3.435,0.634 0.896,0 1.67,0.252 1.372,0.775 -0.299,0.522 -0.299,1.977 0.895,1.903 0,0 0.823,0 0.897,-0.783 0,0 -0.066,-0.289 1.017,-0.514 0,0 0.186,-0.111 -0.15,-0.261 0,0 -1.642,0.113 -1.492,-0.298 0,0 -0.037,-0.357 0.513,-0.57 0.942,-0.364 1.885,-3.379 -2.044,-3.089 0,0 -1.54,0.065 -2.772,0.775 0,0 -1.41,0.643 -1.97,0.793 z"
         style="fill:#231f20;fill-opacity:1;fill-rule:nonzero;stroke:none"
         id="path280"
         inkscape:connector-curvature="0" />
    </g>
  </g>
</svg>
