<?xml version="1.0" encoding="UTF-8" standalone="no"?>
<!-- Created with Inkscape (http://www.inkscape.org/) -->

<svg
   xmlns:dc="http://purl.org/dc/elements/1.1/"
   xmlns:cc="http://creativecommons.org/ns#"
   xmlns:rdf="http://www.w3.org/1999/02/22-rdf-syntax-ns#"
   xmlns:svg="http://www.w3.org/2000/svg"
   xmlns="http://www.w3.org/2000/svg"
   xmlns:sodipodi="http://sodipodi.sourceforge.net/DTD/sodipodi-0.dtd"
   xmlns:inkscape="http://www.inkscape.org/namespaces/inkscape"
   width="16px"
   height="16px"
   viewBox="0 0 16 16"
   version="1.1"
   id="SVGRoot"
   inkscape:version="0.92.1 r15371"
   sodipodi:docname="Wilderness.svg">
  <sodipodi:namedview
     id="base"
     pagecolor="#ffffff"
     bordercolor="#666666"
     borderopacity="1.0"
     inkscape:pageopacity="0.0"
     inkscape:pageshadow="2"
     inkscape:zoom="16"
     inkscape:cx="8"
     inkscape:cy="8"
     inkscape:document-units="px"
     inkscape:current-layer="layer1"
     showgrid="false"
     inkscape:window-width="681"
     inkscape:window-height="696"
     inkscape:window-x="676"
     inkscape:window-y="0"
     inkscape:window-maximized="0"
     inkscape:grid-bbox="true" />
  <defs
     id="defs20207" />
  <metadata
     id="metadata20210">
    <rdf:RDF>
      <cc:Work
         rdf:about="">
        <dc:format>image/svg+xml</dc:format>
        <dc:type
           rdf:resource="http://purl.org/dc/dcmitype/StillImage" />
        <dc:title></dc:title>
      </cc:Work>
    </rdf:RDF>
  </metadata>
  <g
     id="layer1"
     inkscape:groupmode="layer"
     inkscape:label="Layer 1">
    <g
       id="g15471"
       transform="matrix(1.3333333,0,0,-1.3333333,2.9820001,14.592667)">
      <path
         d="m 0,0 c -0.652,0 -1.182,0.529 -1.182,1.184 v 7.523 c 0,0.652 0.53,1.182 1.182,1.182 h 7.527 c 0.653,0 1.182,-0.53 1.182,-1.182 V 1.184 C 8.709,0.529 8.18,0 7.527,0 Z"
         style="fill:#231f20;fill-opacity:1;fill-rule:nonzero;stroke:none"
         id="path15473"
         inkscape:connector-curvature="0" />
    </g>
    <g
       id="g15475"
       transform="matrix(1.3333333,0,0,-1.3333333,2.9820001,1.6734665)">
      <path
         d="m 0,0 c -0.541,0 -0.98,-0.441 -0.98,-0.982 v -7.524 c 0,-0.541 0.439,-0.982 0.98,-0.982 h 7.527 c 0.541,0 0.983,0.441 0.983,0.982 v 7.524 C 8.51,-0.441 8.068,0 7.527,0 Z"
         style="fill:#ffffff;fill-opacity:1;fill-rule:nonzero;stroke:none"
         id="path15477"
         inkscape:connector-curvature="0" />
    </g>
    <g
       id="g15479"
       transform="matrix(1.3333333,0,0,-1.3333333,11.29626,11.509737)">
      <path
         d="m 0,0 -0.91,1.088 h 0.673 l -0.798,0.974 h 0.561 L -1.216,2.99 h 0.506 l -0.722,0.928 h 0.485 l -0.695,0.928 h 0.458 L -2.471,6.651 -3.758,4.846 H -3.3 L -3.995,3.918 H -3.51 L -4.232,2.99 h 0.506 L -4.469,2.062 h 0.562 L -4.705,1.088 h 0.672 L -4.942,0 -2.687,0.177 v -1.564 h 0.432 v 1.564 z"
         style="fill:#231f20;fill-opacity:1;fill-rule:nonzero;stroke:none"
         id="path15481"
         inkscape:connector-curvature="0" />
    </g>
  </g>
</svg>
