<?xml version="1.0" encoding="UTF-8" standalone="no"?>
<!-- Created with Inkscape (http://www.inkscape.org/) -->

<svg
   xmlns:dc="http://purl.org/dc/elements/1.1/"
   xmlns:cc="http://creativecommons.org/ns#"
   xmlns:rdf="http://www.w3.org/1999/02/22-rdf-syntax-ns#"
   xmlns:svg="http://www.w3.org/2000/svg"
   xmlns="http://www.w3.org/2000/svg"
   xmlns:sodipodi="http://sodipodi.sourceforge.net/DTD/sodipodi-0.dtd"
   xmlns:inkscape="http://www.inkscape.org/namespaces/inkscape"
   width="16px"
   height="16px"
   viewBox="0 0 16 16"
   version="1.1"
   id="SVGRoot"
   inkscape:version="0.92.1 r15371"
   sodipodi:docname="Winter recreation.svg">
  <sodipodi:namedview
     id="base"
     pagecolor="#ffffff"
     bordercolor="#666666"
     borderopacity="1.0"
     inkscape:pageopacity="0.0"
     inkscape:pageshadow="2"
     inkscape:zoom="16"
     inkscape:cx="8"
     inkscape:cy="8"
     inkscape:document-units="px"
     inkscape:current-layer="layer1"
     showgrid="false"
     inkscape:window-width="681"
     inkscape:window-height="696"
     inkscape:window-x="676"
     inkscape:window-y="0"
     inkscape:window-maximized="0"
     inkscape:grid-bbox="true" />
  <defs
     id="defs20207" />
  <metadata
     id="metadata20210">
    <rdf:RDF>
      <cc:Work
         rdf:about="">
        <dc:format>image/svg+xml</dc:format>
        <dc:type
           rdf:resource="http://purl.org/dc/dcmitype/StillImage" />
        <dc:title></dc:title>
      </cc:Work>
    </rdf:RDF>
  </metadata>
  <g
     id="layer1"
     inkscape:groupmode="layer"
     inkscape:label="Layer 1">
    <g
       id="g12767"
       transform="matrix(1.3333333,0,0,-1.3333333,13.014667,14.588667)">
      <path
         d="M 0,0 C 0.652,0 1.18,0.527 1.18,1.18 V 8.701 C 1.18,9.354 0.652,9.883 0,9.883 h -7.521 c -0.652,0 -1.181,-0.529 -1.181,-1.182 V 1.18 C -8.702,0.527 -8.173,0 -7.521,0 Z"
         style="fill:#231f20;fill-opacity:1;fill-rule:nonzero;stroke:none"
         id="path12769"
         inkscape:connector-curvature="0" />
    </g>
    <g
       id="g12771"
       transform="matrix(1.3333333,0,0,-1.3333333,2.9873269,1.6785265)">
      <path
         d="m 0,0 c -0.541,0 -0.981,-0.44 -0.981,-0.982 v -7.521 c 0,-0.54 0.44,-0.979 0.981,-0.979 h 7.521 c 0.54,0 0.979,0.439 0.979,0.979 v 7.521 C 8.5,-0.44 8.061,0 7.521,0 Z"
         style="fill:#ffffff;fill-opacity:1;fill-rule:nonzero;stroke:none"
         id="path12773"
         inkscape:connector-curvature="0" />
    </g>
    <g
       id="g12775"
       transform="matrix(1.3333333,0,0,-1.3333333,7.2777269,7.9949265)">
      <path
         d="M 0,0 0.283,-0.418 H 0.811 L 1.053,0 0.797,0.445 H 0.27 Z m 0.217,-3.361 v 0.945 l -0.528,-0.297 -0.269,0.154 v 0.332 l 0.783,0.446 v 0.621 l -0.568,-0.365 v 0.658 L -0.908,-1.18 v -0.892 l -0.297,-0.184 -0.251,0.166 v 0.598 l -0.824,-0.465 -0.352,0.148 v 0.377 l 0.865,0.473 -0.541,0.272 v 0.345 l 0.307,0.168 0.776,-0.457 0.539,0.311 -0.013,0.009 -0.551,0.317 0.535,0.332 -0.537,0.31 -0.776,-0.455 -0.291,0.145 v 0.344 l 0.525,0.295 -0.838,0.455 V 1.809 L -2.31,1.975 -1.483,1.498 V 2.105 L -1.234,2.273 -0.93,2.098 -0.932,1.187 -0.377,0.871 -0.379,1.514 0.203,1.201 V 1.822 L -0.58,2.268 v 0.33 L -0.311,2.754 0.217,2.457 V 3.4 L 0.52,3.598 0.824,3.4 V 2.457 L 1.371,2.76 1.646,2.578 V 2.281 L 0.836,1.822 V 1.201 L 1.391,1.539 V 0.863 l 0.57,0.311 V 2.146 L 2.236,2.275 2.525,2.146 V 1.525 L 3.375,1.984 3.672,1.803 V 1.451 L 2.842,0.979 3.361,0.687 V 0.352 L 3.092,0.203 2.295,0.674 1.744,0.324 2.277,-0.008 1.729,-0.324 2.295,-0.621 3.092,-0.176 3.348,-0.357 v -0.321 l -0.5,-0.281 0.797,-0.473 V -1.803 L 3.307,-1.957 2.525,-1.512 v -0.59 L 2.244,-2.258 1.969,-2.102 v 0.895 l -0.578,0.33 V -1.498 L 0.836,-1.16 V -1.781 L 1.619,-2.227 V -2.578 L 1.35,-2.713 0.824,-2.416 V -3.361 L 0.52,-3.557 Z"
         style="fill:#231f20;fill-opacity:1;fill-rule:nonzero;stroke:none"
         id="path12777"
         inkscape:connector-curvature="0" />
    </g>
  </g>
</svg>
