<?xml version="1.0" encoding="UTF-8" standalone="no"?>
<!-- Created with Inkscape (http://www.inkscape.org/) -->

<svg
   xmlns:dc="http://purl.org/dc/elements/1.1/"
   xmlns:cc="http://creativecommons.org/ns#"
   xmlns:rdf="http://www.w3.org/1999/02/22-rdf-syntax-ns#"
   xmlns:svg="http://www.w3.org/2000/svg"
   xmlns="http://www.w3.org/2000/svg"
   xmlns:sodipodi="http://sodipodi.sourceforge.net/DTD/sodipodi-0.dtd"
   xmlns:inkscape="http://www.inkscape.org/namespaces/inkscape"
   width="16px"
   height="16px"
   viewBox="0 0 16 16"
   version="1.1"
   id="SVGRoot"
   inkscape:version="0.92.1 r15371"
   sodipodi:docname="Womens Room.svg">
  <sodipodi:namedview
     id="base"
     pagecolor="#ffffff"
     bordercolor="#666666"
     borderopacity="1.0"
     inkscape:pageopacity="0.0"
     inkscape:pageshadow="2"
     inkscape:zoom="16"
     inkscape:cx="8"
     inkscape:cy="8"
     inkscape:document-units="px"
     inkscape:current-layer="layer1"
     showgrid="false"
     inkscape:window-width="1366"
     inkscape:window-height="705"
     inkscape:window-x="-8"
     inkscape:window-y="-8"
     inkscape:window-maximized="1"
     inkscape:grid-bbox="true" />
  <defs
     id="defs20207" />
  <metadata
     id="metadata20210">
    <rdf:RDF>
      <cc:Work
         rdf:about="">
        <dc:format>image/svg+xml</dc:format>
        <dc:type
           rdf:resource="http://purl.org/dc/dcmitype/StillImage" />
        <dc:title></dc:title>
      </cc:Work>
    </rdf:RDF>
  </metadata>
  <g
     id="layer1"
     inkscape:groupmode="layer"
     inkscape:label="Layer 1">
    <g
       id="g13731"
       transform="matrix(1.3333333,0,0,-1.3333333,13.014667,14.588667)">
      <path
         d="M 0,0 C 0.651,0 1.181,0.528 1.181,1.18 V 8.702 C 1.181,9.354 0.651,9.883 0,9.883 h -7.522 c -0.653,0 -1.181,-0.529 -1.181,-1.181 V 1.18 C -8.703,0.528 -8.175,0 -7.522,0 Z"
         style="fill:#231f20;fill-opacity:1;fill-rule:nonzero;stroke:none"
         id="path13733"
         inkscape:connector-curvature="0" />
    </g>
    <g
       id="g13735"
       transform="matrix(1.3333333,0,0,-1.3333333,2.9846662,1.6784065)">
      <path
         d="m 0,0 c -0.541,0 -0.98,-0.44 -0.98,-0.98 v -7.523 c 0,-0.54 0.439,-0.979 0.98,-0.979 h 7.522 c 0.541,0 0.981,0.439 0.981,0.979 V -0.98 C 8.503,-0.44 8.063,0 7.522,0 Z"
         style="fill:#ffffff;fill-opacity:1;fill-rule:nonzero;stroke:none"
         id="path13737"
         inkscape:connector-curvature="0" />
    </g>
    <g
       id="g13739"
       transform="matrix(1.3333333,0,0,-1.3333333,8.7906662,4.5834665)">
      <path
         d="m 0,0 c 0.464,0 0.797,-0.382 0.867,-0.59 l 0.569,-1.87 c 0.113,-0.401 -0.4,-0.568 -0.52,-0.177 L 0.403,-0.921 H 0.108 l 0.858,-3.05 H 0.149 v -2.38 c 0,-0.406 -0.611,-0.404 -0.611,0 v 2.395 h -0.309 v -2.39 c 0,-0.411 -0.614,-0.411 -0.614,0 v 2.375 h -0.819 l 0.848,3.05 h -0.281 l -0.511,-1.721 c -0.122,-0.374 -0.639,-0.221 -0.52,0.182 l 0.567,1.87 C -2.04,-0.377 -1.77,0 -1.303,0 Z"
         style="fill:#231f20;fill-opacity:1;fill-rule:nonzero;stroke:none"
         id="path13741"
         inkscape:connector-curvature="0" />
    </g>
    <g
       id="g13743"
       transform="matrix(1.3333333,0,0,-1.3333333,7.9690662,4.3958665)">
      <path
         d="M 0,0 C 0.364,0 0.662,0.297 0.662,0.662 0.662,1.029 0.364,1.326 0,1.326 -0.368,1.326 -0.662,1.029 -0.662,0.662 -0.662,0.297 -0.368,0 0,0"
         style="fill:#231f20;fill-opacity:1;fill-rule:nonzero;stroke:none"
         id="path13745"
         inkscape:connector-curvature="0" />
    </g>
  </g>
</svg>
